<svg width="196" height="333" viewBox="0 0 196 333" fill="none" xmlns="http://www.w3.org/2000/svg">
<g clip-path="url(#clip0_10046_7380)">
<path d="M158.696 273.327C159.644 275.059 158.696 276.949 158.538 278.838C158.38 281.672 160.277 284.034 162.174 286.238C162.648 286.71 163.122 287.34 163.438 287.97C163.912 289.229 163.596 290.646 163.596 291.906C163.438 297.889 168.97 302.297 170.709 307.966C170.867 308.753 171.183 309.383 171.657 310.012C171.974 310.485 172.606 310.8 173.08 311.115C176.874 313.319 181.141 315.051 185.567 315.995C187.464 316.468 189.519 316.625 191.099 315.68C192.838 314.736 193.786 312.532 194.261 310.485C195.841 304.029 194.893 297.259 191.732 291.434C190.783 289.702 189.519 287.812 189.519 285.766C189.519 283.561 190.783 281.514 191.099 279.468C191.415 276.791 190.151 273.957 188.254 272.068C186.357 270.178 183.828 268.761 181.457 267.502C180.351 266.872 179.086 266.242 178.296 265.297C177.19 264.038 176.874 262.306 176.557 260.732C175.451 254.591 174.344 248.451 173.238 242.31C173.238 241.838 173.08 241.523 172.922 241.051C172.606 240.421 171.815 240.106 171.183 239.634C167.548 237.744 163.596 236.485 159.644 235.54C154.112 242.31 151.267 251.285 151.899 259.944C152.057 262.149 152.532 264.51 153.48 266.4C154.903 269.234 157.274 270.966 158.696 273.327Z" fill="white"/>
<path d="M151.427 201.06C147.949 201.847 137.359 202.162 133.882 202.949C123.607 205.783 113.333 209.09 103.059 212.553C97.8428 214.128 92.6267 215.702 87.4106 217.592C80.6138 219.953 74.1332 222.315 67.3364 224.677C64.4912 225.779 61.1719 226.566 58.0106 227.668C56.9041 227.983 55.9557 228.298 54.8493 228.928C54.8493 229.085 54.6912 229.4 54.6912 229.4C54.6912 229.243 54.5332 228.928 54.5332 228.928C54.059 225.779 54.059 222.63 54.059 219.324C53.9009 214.128 54.059 208.617 54.6912 203.421C54.6912 203.264 57.6944 202.634 57.6944 202.319C58.3267 197.596 57.5364 193.502 58.6428 188.779C58.959 187.204 57.6944 185.158 58.1686 183.583H58.3267C58.6428 183.741 59.117 183.898 59.4332 183.741C60.8557 184.055 62.1203 184.213 63.3848 184.528C64.1751 184.843 65.1235 184.685 66.0719 185C66.388 185.158 66.5461 185.158 67.1783 185.158C82.0364 187.362 97.3686 185 112.227 182.324C112.701 182.166 113.333 182.009 113.965 182.009C114.914 181.694 115.862 181.694 116.811 181.379C118.549 181.064 120.446 180.749 122.027 180.592C122.659 180.434 124.872 178.072 125.188 177.915C125.504 178.072 130.088 179.332 131.985 181.221C131.985 181.221 136.569 184.685 137.991 186.102C140.678 189.724 149.056 197.438 151.427 201.06Z" fill="white"/>
<path d="M45.6808 122.021C44.2583 122.178 42.6776 122.651 41.097 122.651C41.255 123.281 41.7292 123.91 42.0454 124.855C42.2034 125.327 42.3615 125.8 42.6776 125.957C42.9937 126.272 43.3099 126.429 43.7841 126.902C45.8389 128.476 47.2615 130.051 49.3163 131.94C49.9486 132.412 50.7389 133.2 50.7389 134.302C50.1066 134.774 49.4744 134.932 49.0002 135.246C49.6324 135.089 50.4228 135.089 51.3712 134.774H51.5292C51.8453 134.932 52.0034 135.404 52.0034 135.561C52.0034 135.719 51.6873 136.191 51.3712 136.506C50.2647 137.608 49.3163 138.868 48.3679 139.812C48.0518 140.442 47.7357 141.072 47.4195 141.544C47.1034 142.174 46.7873 142.489 46.4712 143.119C46.155 143.906 45.6808 144.851 45.997 145.795C45.5228 146.425 45.6808 147.212 45.8389 147.527C45.997 148.944 45.6808 150.361 45.6808 151.778C45.8389 153.195 46.3131 154.612 46.4712 156.029C46.9454 157.446 47.2615 158.706 47.8937 160.123C48.526 161.383 49.6324 162.642 50.5808 163.272C51.2131 163.587 51.6873 163.744 52.3195 164.059C52.9518 164.532 53.426 165.161 54.0583 165.791C54.6905 166.421 55.797 166.736 56.9034 166.893C57.6937 167.208 58.6421 167.051 59.5905 166.893C60.5389 166.578 61.3292 165.949 62.1195 165.319C62.7518 164.846 63.7002 165.791 64.3325 166.106C65.597 166.893 66.8615 167.838 67.3357 169.412C67.9679 170.515 68.126 171.932 67.9679 173.191C67.9679 173.349 67.1776 177.442 67.1776 177.442C69.7066 178.229 72.3937 178.859 74.4486 179.174C84.7228 180.749 95.155 180.119 105.429 178.544C110.803 177.915 115.861 176.655 121.236 175.71C122.184 175.395 123.132 175.395 124.239 175.081C123.449 174.136 123.291 172.876 123.923 171.617C123.132 170.672 122.342 169.885 121.868 168.783C121.394 167.995 121.394 167.208 121.394 166.421C121.71 165.634 122.184 165.004 122.816 164.532C123.449 164.059 124.081 163.587 124.713 163.429C124.397 161.383 124.871 158.864 125.187 156.659C127.716 146.898 135.303 139.025 138.149 129.421C139.097 125.957 139.729 122.178 139.887 118.872C139.887 117.298 140.52 115.251 140.045 113.676C139.413 111.787 138.939 110.055 138.623 108.166C138.623 107.221 138.307 106.276 138.781 105.332C139.097 104.702 139.413 104.072 139.729 103.6C141.468 100.923 143.207 97.7742 144.313 94.7827C145.578 91.4763 147 88.1699 148.265 84.8635C148.897 82.9742 149.529 80.9273 150.478 79.1954C150.794 78.4082 151.426 77.1486 151.268 76.2039C151.11 75.7316 150.32 74.472 149.687 74.1571C148.739 73.5273 147.474 74.1571 146.368 74.6295C141.942 77.1486 137.516 79.8252 132.774 82.5018C129.139 84.5486 125.345 86.7529 121.868 89.4295C123.291 90.0593 123.132 90.0593 122.658 90.2167C122.184 90.3742 121.71 90.2167 121.078 90.2167C117.6 89.272 113.965 88.1699 110.645 86.438C109.697 85.9656 108.591 85.3359 107.642 85.3359C107.168 85.4933 106.694 85.6508 106.378 85.4933C105.903 85.3359 105.587 85.1784 105.429 84.8635C105.271 84.2337 105.903 83.7614 105.113 83.1316C104.481 82.6593 103.374 82.1869 102.742 81.872C102.11 81.5571 101.161 81.872 100.529 81.872C98.3163 81.872 95.9454 81.7146 93.7325 81.3997C91.5195 81.3997 88.9905 80.7699 87.0937 80.6125C87.726 79.3529 87.8841 78.0933 87.5679 76.9912C83.4583 77.9359 79.3486 78.7231 75.2389 79.1954C74.7647 79.3529 73.9744 79.3529 73.5002 79.1954C73.026 79.038 72.2357 78.5656 71.7615 78.2508C67.9679 74.9444 64.0163 71.638 61.1712 67.2295C59.9066 65.3401 59.2744 63.2933 57.6937 61.5614C56.1131 59.8295 54.5324 58.5699 52.4776 57.4678C49.9486 67.2295 48.0518 77.1486 46.6292 87.3827C46.4712 89.4295 46.155 91.4763 45.6808 93.3656C45.5228 94.4678 45.0486 95.255 44.5744 96.1997C44.1002 96.8295 42.9937 97.4593 41.8873 97.3018L43.3099 107.064L40.3066 107.693L44.8905 116.195L45.6808 122.021Z" fill="white"/>
<path d="M34.2995 146.268C34.1414 147.37 34.1414 147.527 34.2995 147.842C30.664 152.88 27.0285 158.234 23.235 163.272C22.6027 164.217 21.9704 165.634 19.4414 164.846C23.393 157.761 27.0285 150.991 34.2995 146.268Z" fill="#F15748"/>
<path d="M0 130.996C1.26452 130.366 2.05484 129.421 2.6871 129.421C9.48387 129.578 16.2806 128.004 23.2355 127.217C23.2355 128.791 22.129 129.578 21.0226 129.893C14.5419 130.681 8.37742 132.727 1.73871 131.94C1.26452 132.098 1.26452 131.625 0 130.996Z" fill="#F15748"/>
<path d="M27.0294 112.732C22.4455 112.417 10.9068 102.183 9.32617 96.5146C10.5907 97.3019 11.381 97.6168 12.0133 98.2466C13.752 99.9785 15.0165 101.71 16.7552 103.285C20.3907 106.434 23.8681 109.425 27.0294 112.732Z" fill="#F15748"/>
<path d="M142.574 192.399C142.258 193.501 139.57 196.808 138.622 197.28C135.935 198.225 132.932 198.225 130.245 198.225C120.287 198.067 110.487 197.753 100.37 197.595C96.893 197.595 93.2576 197.595 89.9382 196.493C86.6189 195.391 83.6156 193.187 82.5092 189.723C82.3511 189.25 82.3511 188.778 82.5092 188.463C82.6672 188.148 83.1414 188.148 83.4576 187.991C95.3124 186.101 106.377 183.425 117.758 180.591C121.709 179.646 124.712 177.442 128.822 179.646C132.299 180.748 143.838 187.833 142.574 192.399Z" fill="#BCBCBB"/>
<path d="M121.394 168.153C121.394 168.311 121.394 168.311 121.236 168.626C120.92 170.672 119.023 172.089 117.126 172.404C115.229 173.034 114.123 173.034 112.384 173.821C110.962 174.766 109.539 176.183 107.326 175.868C105.271 175.711 104.639 174.136 103.216 173.192V173.034C102.742 173.192 102.426 173.507 101.952 173.664C100.846 174.294 99.7391 174.766 98.6326 175.081C96.4197 176.026 94.2068 176.655 91.8358 177.128C89.4649 177.6 86.6197 177.443 84.0907 177.285C81.4036 177.6 78.8746 177.128 76.3455 176.341C74.4487 175.711 72.71 174.924 71.4455 173.192C69.5488 172.719 67.81 172.089 65.9133 171.46C65.1229 171.145 64.0165 170.987 63.0681 171.145C62.5939 170.987 62.2778 171.145 61.8036 170.987C61.6455 170.987 61.6455 170.987 61.3294 171.145C61.1713 171.617 61.0133 171.932 61.1713 172.404C61.1713 173.192 60.8552 173.979 60.8552 174.766C60.5391 175.553 60.0649 176.183 59.4326 176.655L58.3262 189.251L94.5229 188.621L117.126 181.851L126.294 177.758L121.394 168.153Z" fill="#F15748"/>
<path d="M143.996 190.668C141.309 187.519 137.832 185 134.987 182.166C133.248 180.434 131.351 179.962 129.454 178.545C127.874 177.6 126.767 178.073 126.767 176.183C126.451 173.507 125.661 170.987 123.764 168.941C123.764 168.783 123.764 168.783 123.448 168.626C123.132 168.468 122.974 167.996 122.658 167.839L122.342 167.681L122.025 167.524C121.077 166.894 120.129 166.422 119.022 167.366C119.655 167.839 120.603 168.311 121.077 168.941C121.393 169.256 121.867 169.728 122.025 170.2V170.358C122.816 171.302 123.448 172.719 123.922 173.979L124.396 175.553C124.396 176.341 124.08 176.97 123.29 177.6C122.5 178.86 121.077 179.49 119.813 179.962C119.655 179.962 119.654 179.962 119.338 180.119L115.861 181.222C113.648 181.851 111.119 182.953 108.906 183.583C106.851 184.213 105.113 185 103.216 185.473C101.793 185.945 100.371 186.102 98.948 186.26C98.79 186.26 98.79 186.26 98.4739 186.417C96.5771 186.732 94.6803 186.89 92.7835 187.205C89.148 187.834 85.8287 187.992 82.1932 188.149C77.4513 188.149 72.7093 188.307 68.1255 187.992C67.9674 187.992 67.4932 187.677 67.3351 187.677C67.3351 186.732 67.019 185.63 66.8609 184.528C66.2287 181.694 66.2287 179.017 65.5964 176.498C65.1222 176.341 64.8061 176.498 64.49 176.341C64.0158 179.017 63.5416 181.536 63.0674 183.898C62.4351 184.843 61.6448 185.787 61.0126 186.732C60.3803 186.417 59.748 186.102 59.2738 185.787C59.4319 184.685 59.4319 184.056 59.4319 183.268C59.4319 183.268 59.4319 183.111 59.59 182.953C60.2222 180.277 61.1706 177.443 62.119 174.924C62.7513 173.034 62.5932 172.562 60.6964 171.932L60.5384 171.302C59.9061 172.719 59.2738 173.979 58.9577 175.239C58.1674 177.443 57.0609 179.805 56.5868 182.009C56.1126 183.898 55.7964 186.26 57.0609 187.519C57.0609 187.677 57.3771 187.677 57.3771 187.834C57.3771 187.992 57.6932 188.149 58.0093 188.149C58.0093 188.307 57.8513 188.464 57.8513 188.622C57.0609 192.558 56.5868 196.179 55.6384 199.485C55.4803 199.8 55.4803 199.958 55.3222 200.273C55.1642 200.745 55.0061 201.06 55.0061 201.69C53.2674 207.673 51.6868 213.656 50.2642 219.796C49.948 220.583 50.2642 221.528 50.4222 222.787C52.319 221.685 53.4255 220.111 54.5319 218.851C54.69 218.536 54.69 218.536 54.848 218.222C55.3222 217.592 55.6384 216.962 56.5868 216.49C56.4287 218.536 56.4287 219.953 55.9545 221.685C55.7964 223.417 55.4803 225.307 55.1642 227.196C55.0061 227.668 55.1642 227.983 55.0061 228.456C56.1126 228.141 57.219 227.826 58.1674 227.196C58.6416 223.575 58.9577 219.953 59.4319 216.805C59.59 215.545 59.4319 214.128 58.9577 213.026C58.4835 212.396 57.0609 212.396 55.6384 212.081C57.6932 204.839 58.9577 196.966 61.0126 189.566C61.0126 189.566 61.1706 189.251 61.1706 189.094C62.4351 189.251 63.5416 189.409 64.3319 189.566C64.3319 189.566 64.3319 189.566 64.49 189.566C69.2319 190.353 73.4997 191.141 78.3997 190.826C80.2964 190.668 82.6674 190.826 84.5642 190.511C85.3545 190.511 86.1448 190.511 86.7771 190.353C87.2513 190.196 88.0416 190.196 88.6738 190.039C89.148 189.881 89.3061 189.881 89.9384 189.881C91.6771 189.566 93.2577 189.409 94.9964 189.409L95.6287 189.251C101.003 188.622 106.377 187.519 111.435 185.473C112.7 184.843 113.964 184.213 115.229 184.056C116.809 183.268 118.548 182.796 120.129 182.009C120.287 182.009 120.761 181.851 120.919 181.536C121.551 181.379 122.184 180.907 122.816 180.434C122.974 180.434 123.448 179.962 123.606 179.962C123.764 179.962 124.238 179.49 124.396 179.49C124.871 179.332 125.187 179.017 125.661 178.86C125.977 179.017 125.977 179.017 126.293 179.175C126.609 179.332 127.242 179.647 127.558 179.805C128.506 180.277 129.613 180.907 130.403 181.694C131.351 182.324 132.142 183.111 133.09 184.056C136.567 187.519 140.519 190.983 144.154 194.29C144.471 194.447 144.787 194.762 144.945 195.234C145.893 196.494 146.684 198.226 147.316 199.485C147.474 199.485 150.635 199.8 150.951 199.8C150.161 197.596 145.893 192.4 143.996 190.668ZM62.9093 187.362C63.0674 186.102 63.2255 185 63.3835 184.213C64.0158 183.268 64.49 182.324 65.4384 181.064C65.7545 182.166 66.0706 183.268 65.9126 184.37C65.9126 184.37 65.9126 184.37 65.9126 184.528C65.9126 185.473 66.0706 186.417 66.0706 187.519C65.1222 187.362 64.1738 187.362 62.9093 187.362Z" fill="black"/>
<path d="M119.655 178.072C118.865 177.285 118.075 176.34 117.126 175.395C116.968 175.868 116.968 176.497 116.81 176.97C114.755 174.293 114.281 172.089 114.281 169.57C114.439 169.57 114.755 169.412 114.755 169.727C115.546 171.459 115.862 173.348 117.759 174.608C119.023 175.238 119.497 176.812 119.814 178.229C120.288 177.914 120.13 177.914 119.655 178.072Z" fill="black"/>
<path d="M49.632 133.357C46.9449 131.94 42.6772 126.744 42.0449 124.068C47.4191 121.234 57.2191 124.383 62.4352 127.217C61.6449 128.949 59.7481 129.106 58.0094 129.893C54.532 131.468 51.0546 133.2 47.5772 134.774L49.632 133.357Z" fill="#BCBCBB"/>
<path d="M127.875 147.842C129.93 148.157 132.143 147.212 133.565 145.323C134.988 143.434 135.304 141.387 135.936 139.34C136.726 135.404 137.517 131.468 137.991 127.059C137.991 125.327 138.149 123.595 137.043 122.336C135.62 120.761 132.775 121.391 131.194 122.808C129.614 124.225 128.981 126.429 127.559 128.161C125.978 131.153 116.494 135.246 116.494 137.451C116.652 139.34 126.61 147.527 127.875 147.842Z" fill="#BCBCBB"/>
<path d="M130.245 22.9873C130.877 25.1916 131.352 27.5533 131.035 29.915C130.719 32.2767 129.613 34.0086 128.032 35.7405C122.184 44.2427 113.174 50.2256 103.216 52.4299C101.161 53.0597 98.4741 53.3746 96.5774 54.1618C96.1032 54.0044 95.629 54.1618 94.9967 54.1618C94.2064 54.1618 93.258 54.4767 92.6257 54.3192C91.6774 57.7831 90.729 61.0895 89.7806 64.3958C89.4645 65.0256 89.3064 65.9703 88.6741 66.2852H88.5161C86.4612 65.3405 82.9838 54.6341 82.1935 53.8469C81.087 52.9022 79.9806 52.2724 78.558 51.6427C76.8193 50.8554 74.6064 50.3831 72.8677 49.4384C71.4451 48.6512 69.8645 47.8639 68.758 46.7618C67.3354 45.5022 66.387 43.9278 65.9128 42.1958C65.9128 42.1958 65.9128 42.1958 65.9128 42.0384C64.4903 37.9448 64.0161 34.0086 65.5967 28.9703C65.5967 28.8129 65.7548 28.6554 65.7548 28.498C65.9128 22.2001 70.0225 17.7916 72.5516 12.5958C73.3419 10.8639 75.0806 9.28946 76.5032 8.34478C78.2419 6.77031 80.1386 5.51073 82.0354 4.40861C87.7257 2.67669 93.5741 1.25967 99.5806 0.629883C104.006 1.10222 108.274 1.25967 112.384 1.88946C116.493 2.83414 120.129 5.03839 122.974 7.87244C126.452 11.9661 128.823 17.3192 130.245 22.9873Z" fill="white"/>
<path d="M107.958 175.868C111.12 174.136 113.174 170.83 116.494 168.626C116.81 168.783 117.126 168.941 117.126 168.941C116.968 170.2 116.81 171.302 116.494 172.877C117.284 172.405 117.916 171.932 118.549 171.46C123.132 167.051 126.61 161.856 126.768 155.243C126.926 154.77 126.452 154.141 126.61 153.826C128.507 151.307 126.61 149.102 125.661 147.213C124.239 145.166 122.658 143.119 120.761 141.702C118.232 139.813 115.703 137.451 113.016 135.877C110.645 134.617 107.642 133.83 105.113 132.728C100.213 131.311 95.9453 133.515 91.0453 133.988C89.7808 134.145 88.6743 135.405 87.4098 135.877C86.3034 135.405 86.3034 134.775 87.0937 133.988C88.3582 132.57 90.255 132.098 92.1518 131.783C95.4711 131.311 98.7905 130.839 102.11 130.209C103.058 130.209 104.165 130.366 104.955 130.366C105.271 130.524 105.745 130.681 106.061 130.839C112.7 132.256 117.6 136.034 122.342 140.285C125.187 142.332 127.558 145.166 128.823 148.473C129.771 150.834 130.245 153.196 128.507 155.715C128.19 156.345 128.032 156.817 128.032 157.605C126.768 164.69 123.29 170.515 117.442 174.451C116.494 175.239 115.229 175.553 113.649 176.026C113.49 174.609 113.49 173.822 113.49 172.877C111.594 174.766 109.539 176.341 107.484 177.915C105.587 176.026 104.323 174.136 102.584 172.405C99.4227 175.081 96.2614 177.285 92.4679 178.388C90.5711 179.017 88.6744 178.86 86.7776 179.175C86.1453 179.332 85.355 179.332 84.5647 179.332C76.8195 179.962 70.655 176.341 65.9131 171.145C64.8066 170.2 64.4905 168.783 63.8582 167.524C63.384 168.153 62.7518 168.783 61.9614 169.57C61.3292 169.098 60.6969 168.468 60.0647 168.153C57.8518 170.043 57.8518 170.043 55.3227 168.311C53.426 167.209 51.8453 165.634 49.7905 164.06C49.4743 163.902 49.4743 163.745 49.4743 163.745C45.3647 162.485 45.5227 159.022 45.2066 155.558C44.8905 153.668 45.0485 151.936 44.2582 149.89C43.626 148.787 43.9421 147.056 44.7324 145.796C45.9969 141.86 48.0518 138.553 51.5292 135.247C49.4743 135.877 48.2098 137.451 46.6292 135.562C47.1034 134.932 47.4195 134.302 48.2098 134.145C51.055 132.256 54.0582 130.366 57.2195 128.634C58.6421 127.69 60.5389 127.375 62.4356 127.06C63.8582 126.587 65.4389 126.43 67.0195 126.43C67.0195 125.643 66.8614 125.013 66.8614 124.068C74.9227 125.328 81.0873 128.949 85.8292 136.507C84.7227 136.349 84.0905 136.349 83.6163 135.877C82.5098 134.775 81.4034 133.515 80.6131 132.413C79.1905 130.839 77.7679 129.579 75.7131 128.477C74.6066 128.005 73.5002 127.847 72.2356 128.477C71.4453 128.949 70.3389 128.792 69.3905 128.792C67.0195 128.949 64.1744 129.107 61.9614 129.736C59.7485 130.366 57.5356 130.839 56.5873 133.358C55.7969 135.09 54.2163 136.349 52.4776 137.294C49.4743 139.656 48.0518 143.119 46.3131 146.583C47.1034 146.898 47.8937 146.898 48.684 147.056C48.526 148.158 48.3679 149.102 48.2098 150.205C48.0518 151.936 47.7356 153.511 47.5776 155.4C47.5776 156.187 47.8937 157.29 48.3679 157.447C50.2647 157.919 50.4227 159.494 50.8969 160.911C51.8453 162.17 52.7937 163.273 53.7421 164.69C54.3743 164.217 55.0066 164.06 55.955 163.588C56.4292 164.217 56.9034 164.847 57.2195 165.162C57.3776 165.162 57.6937 165.319 57.6937 165.319C59.9066 163.588 62.2776 162.485 65.2808 163.115C65.755 163.273 66.7034 162.643 67.3356 162.328C70.1808 160.439 72.8679 158.707 75.8711 156.975C76.1873 156.66 77.2937 156.817 77.6098 157.132C78.5582 157.762 79.6647 159.022 79.6647 159.966C79.6647 161.698 77.6098 160.753 76.8195 161.383C75.3969 162.328 73.8163 162.958 72.2356 163.745C70.8131 164.69 69.7066 166.264 67.4937 165.949C67.4937 165.949 66.8614 167.366 67.0195 167.524C68.9163 169.413 70.655 171.46 72.7098 173.192C76.3453 176.341 81.2453 176.026 86.1453 176.341C87.4098 176.183 88.5163 176.183 89.7808 176.183C90.255 176.026 90.5711 176.498 91.0453 176.026C94.5227 174.451 98.1582 173.349 101.794 171.302C100.845 170.83 100.529 170.515 99.8969 170.2C99.5808 170.043 98.7905 170.043 98.4743 169.57C95.9453 165.162 91.2034 163.588 86.7776 162.17C86.6195 162.17 86.4614 162.013 86.1453 161.698C86.3034 161.383 86.1453 160.911 86.6195 160.753C86.7776 160.439 87.2518 160.281 87.0937 160.124C95.3131 163.587 101.478 169.728 107.958 175.868Z" fill="black"/>
<path d="M89.6219 76.8339C89.1478 77.936 88.8316 79.0381 88.5155 80.4551C94.8381 80.6126 100.845 80.77 106.693 81.8722C106.693 82.8168 106.693 83.6041 106.851 84.2339C111.909 86.1232 116.967 87.8551 122.025 90.0594C131.351 82.8168 140.361 75.5743 152.374 73.37C154.112 74.3147 154.112 75.5743 153.48 76.9913C151.109 84.0764 148.738 91.6339 144.786 98.2466C143.522 100.608 141.941 103.127 141.309 105.804C140.835 107.693 140.835 109.898 140.993 111.944C141.467 115.093 142.257 117.927 142.415 120.919C142.257 123.91 140.993 126.744 140.045 129.579C139.57 131.94 139.096 134.617 138.306 136.821C137.357 139.655 136.409 142.804 133.248 144.851C133.248 143.906 133.09 143.434 133.248 143.119C136.725 138.081 137.357 132.255 139.096 126.43C140.677 120.919 140.203 116.196 138.938 111.157C138.306 109.268 138.464 108.008 139.412 106.276C140.993 102.34 143.048 98.719 144.628 94.7828C147.474 89.2722 149.845 83.2892 151.109 76.9913C151.109 76.8339 150.951 76.519 150.793 76.0466C148.422 76.2041 145.893 76.9913 143.68 77.936C137.516 80.77 131.983 84.3913 126.451 88.6424C125.503 89.4296 124.554 90.6892 123.606 91.4764C122.657 92.2636 121.709 92.8934 120.128 91.9487C119.496 91.6339 118.548 91.4764 117.757 91.4764C117.441 91.319 116.967 91.4764 116.967 91.319C114.122 89.2722 110.645 88.4849 107.325 87.2253C105.903 86.5956 104.164 86.4381 102.425 85.9658C102.741 85.1785 103.057 84.5487 103.215 83.7615C103.057 83.7615 102.741 83.6041 102.425 83.4466C98.3155 82.9743 94.0477 82.8168 90.0961 82.187C88.8316 82.0296 87.5671 82.6594 85.8284 82.8168C85.9865 81.5573 85.9865 80.2977 86.1445 79.0381C84.2477 78.4083 82.6671 79.0381 80.7703 79.353C78.8736 79.9828 76.8187 80.2977 75.08 81.0849C73.9736 81.3998 73.0252 81.3998 71.9187 80.77C67.651 77.3062 63.8574 73.2126 60.8542 68.9615C58.6413 65.97 56.7445 62.1913 53.2671 59.8296C52.951 61.2466 52.6348 62.5062 52.3187 63.9232C51.3703 68.9615 50.4219 73.9998 49.4736 78.8807C48.5252 84.7062 48.051 89.9019 47.1026 95.57C46.9445 97.3019 46.4703 99.5062 43.9413 99.0339C43.4671 102.655 45.9961 105.647 44.7316 109.268C43.9413 109.268 43.309 109.425 42.0445 109.583C44.7316 114.306 47.1026 118.715 47.2607 124.225C45.8381 124.383 44.5736 124.54 42.5187 124.383C44.7316 126.902 46.4703 129.421 48.8413 131.94C48.209 132.098 47.7348 132.255 47.1026 132.255C46.6284 132.098 45.8381 131.625 45.5219 131.31C43.6252 128.949 41.5703 126.272 39.5155 123.753C40.6219 121.706 42.8348 122.493 44.0994 121.864C44.2574 119.344 43.151 115.408 41.0961 112.574C40.3058 111.787 39.5155 110.842 39.0413 109.898C37.7768 108.008 38.251 107.221 40.4639 107.064C40.9381 106.906 41.7284 106.906 42.6768 106.906C42.2026 105.489 41.8865 104.387 41.7284 103.127C41.4123 102.025 41.2542 100.608 41.2542 99.3487C41.0961 97.1445 41.0961 97.1445 43.4671 96.987C43.6252 96.987 43.9413 96.8296 44.5736 96.6722C44.7316 93.2083 45.3639 89.4296 45.8381 86.1232C46.4703 81.7147 46.9445 77.3062 47.8929 73.37C48.8413 68.9615 49.7897 64.8679 50.8961 60.3019C51.0542 59.1998 51.5284 58.4126 52.0026 56.6807C54.2155 58.4126 55.9542 59.987 57.6929 62.1913C60.5381 65.8126 63.2252 69.4339 66.0703 73.37C67.651 75.4168 69.3897 76.8339 71.4445 78.7232C72.709 79.8253 74.1316 80.1402 76.0284 79.8253C79.8219 79.1956 83.7736 78.2509 87.5671 77.6211C88.5155 76.519 88.8316 76.6764 89.6219 76.8339Z" fill="black"/>
<path d="M124.556 8.50191C122.027 4.56574 118.233 2.51894 113.807 2.0466C113.649 2.0466 113.491 1.88915 113.333 1.88915C112.859 1.7317 112.543 1.88915 112.069 1.7317C107.643 1.10191 103.375 0.944468 99.2654 0.472127C98.7912 0.314681 98.317 0.472127 97.6847 0.472127C96.1041 0.472127 94.8395 0.314681 93.2589 -0.000213079C92.7847 -0.15766 92.3105 -0.000213072 91.8363 0.157234C88.675 1.10191 85.5137 2.0466 82.6686 3.62106C82.5105 3.62106 82.0363 4.0934 81.8783 4.0934C79.9815 5.19553 78.0847 6.29766 76.346 8.02957C74.7654 9.4466 73.1847 10.5487 72.3944 12.2806C69.7073 17.3189 65.7557 22.0423 65.5976 28.3402C65.5976 28.4977 65.4396 28.6551 65.4396 28.8126C64.175 32.1189 64.017 35.4253 64.8073 38.4168C64.9654 39.0466 65.2815 39.8338 65.4396 40.6211C65.5976 41.0934 65.7557 41.5657 65.9137 42.0381C65.9137 42.0381 65.9137 42.0381 65.9137 42.1955C67.0202 45.0296 68.917 47.7062 70.9718 50.5402C72.7105 52.7445 75.2395 53.2168 77.9266 53.8466C81.246 54.1615 82.9847 56.3657 84.2492 59.1998C85.3557 61.0891 86.146 63.136 87.2525 65.0253C87.7266 65.6551 87.8847 66.9147 88.675 66.5998H88.8331C89.3073 66.4423 89.7815 65.4977 89.9396 64.7104C90.8879 61.404 91.9944 58.0977 92.7847 54.6338C93.7331 54.6338 94.5234 54.3189 95.1557 54.4764C95.6299 54.6338 96.2621 54.6338 96.7363 54.4764C100.846 54.7913 104.64 53.5317 108.433 51.9572C115.388 48.8083 122.027 45.187 127.559 39.204C131.511 34.953 132.775 30.2296 131.827 24.7189C130.562 19.0508 127.717 13.5402 124.556 8.50191ZM79.3492 51.9572C79.0331 51.7998 78.5589 51.6423 78.2428 51.7998C77.7686 51.6423 76.9783 51.6423 76.5041 51.6423C74.9234 51.3274 73.6589 50.6977 72.5525 49.9104C72.2363 49.753 71.9202 49.4381 71.446 48.9657C71.1299 48.6509 70.6557 48.1785 70.4976 47.7062C69.8654 46.4466 68.917 45.187 68.6008 44.0849C65.9137 39.9913 65.7557 35.5828 66.7041 30.5445C67.0202 28.4977 67.4944 26.2934 68.1266 24.7189C68.7589 22.8296 69.8654 20.7828 71.446 19.0509C72.0783 18.1062 72.8686 17.1615 73.817 16.0594C73.975 15.587 74.2912 14.9572 74.2912 14.9572C73.0266 13.3828 74.4492 12.1232 75.2395 11.4934C77.4524 9.60404 79.5073 7.24234 82.6686 7.08489C83.617 6.77 84.5654 5.98277 85.3557 5.51043C86.6202 4.88064 87.8847 4.25085 89.6234 3.77851C92.7847 2.51894 95.6299 2.0466 98.9492 2.20404C103.375 2.83383 107.959 2.99128 112.069 3.62106C114.123 3.77851 116.02 4.4083 117.917 5.03808C120.604 5.51043 121.394 7.71468 123.133 9.76149C127.243 15.2721 129.614 21.4126 130.088 28.3402C130.246 32.2764 128.823 35.4253 126.136 38.2594C119.814 45.3445 111.436 49.1232 102.901 51.9572C100.056 53.0594 96.5783 52.4296 93.417 52.587C91.2041 52.7445 91.2041 52.587 91.046 54.4764C90.7299 57.6253 89.7815 60.3019 88.3589 63.4508C86.7783 60.4594 85.6718 58.0977 84.2492 55.5785L88.0428 54.6338C88.0428 54.4764 88.2008 54.1615 88.2008 54.1615C87.0944 53.6892 85.6718 53.3743 84.7234 53.2168C82.6686 52.4296 81.0879 52.1147 79.3492 51.9572Z" fill="black"/>
<path d="M97.2091 144.379C96.5768 145.796 96.1026 147.213 95.1542 148.158C92.9413 150.519 90.5704 152.566 87.8833 154.77C85.6704 156.66 81.5607 155.873 79.1897 153.983C76.5026 151.779 75.5542 148.63 74.6058 145.481C74.4478 144.851 74.1316 144.064 73.9736 143.434C73.0252 139.498 73.6575 138.081 77.451 136.664C79.98 135.404 82.9833 134.932 86.1446 135.562C89.3058 135.877 92.151 136.664 94.68 138.239C96.8929 139.341 98.1575 141.86 97.2091 144.379Z" fill="black"/>
<path d="M68.1262 111.157C71.1294 110.213 74.4488 113.204 74.2907 116.511C74.1327 118.557 73.5004 120.447 71.6036 121.706C69.3907 123.596 66.8617 123.438 64.8069 121.706C62.5939 119.974 62.2778 117.77 63.5423 115.094C64.8069 113.519 65.7552 111.63 68.1262 111.157Z" fill="black"/>
<path d="M107.326 125.485C106.219 121.076 109.381 117.455 113.016 117.14C115.229 116.983 117.758 121.234 116.968 123.438C116.019 126.272 114.281 127.689 111.752 128.476C111.119 128.634 109.697 128.319 109.064 127.846C108.116 126.902 107.8 125.8 107.326 125.485Z" fill="black"/>
<path d="M111.593 112.259C110.012 114.464 107.009 112.889 106.219 116.038C105.112 113.204 105.587 112.259 107.799 109.11C108.432 109.583 109.064 110.212 109.538 110.842C112.383 109.74 112.383 109.74 114.28 112.574C116.493 113.204 118.39 113.519 120.287 114.306C121.709 114.621 122.499 115.093 122.974 116.668C123.29 117.77 124.712 118.4 125.661 119.029C123.922 119.974 122.499 119.974 121.709 118.242C120.445 115.723 118.39 115.251 116.177 114.936C114.28 115.093 112.383 114.778 111.593 112.259Z" fill="black"/>
<path d="M55.9555 85.808C56.4297 85.9654 56.7458 85.8079 57.0619 85.9654C60.3813 86.9101 60.3813 86.9101 60.5394 83.6037C60.6974 83.1314 60.5394 82.8165 60.6974 82.5016C62.4361 81.5569 63.8587 80.7697 65.9136 79.9824C66.0716 81.3994 65.7555 82.5016 64.6491 83.1314C62.9103 84.076 62.7523 85.6505 62.12 87.0675C61.8039 87.8548 61.3297 88.7994 60.8555 89.4292C60.6974 89.7441 59.9071 89.4292 59.1168 89.4292C59.2749 89.9016 59.4329 90.5314 59.591 91.0037C55.9555 89.9016 55.0071 88.642 55.9555 85.808Z" fill="black"/>
<path d="M79.664 99.1913C77.4511 99.3487 76.9769 96.8296 74.9221 97.4594C70.6544 95.57 67.0189 98.5615 62.9092 98.4041C62.1189 98.4041 61.3286 98.4041 59.5898 98.4041C60.8544 97.4594 61.1705 96.987 61.6447 96.8296C64.3318 95.7275 67.1769 95.0977 69.864 94.3105C70.4963 94.153 71.4447 93.8381 72.0769 94.153C73.9737 95.2551 75.3963 94.6253 76.9769 93.6807C79.1898 95.2551 78.8737 97.4594 79.664 99.1913Z" fill="black"/>
<path d="M85.8296 127.532C85.0392 128.319 84.7231 128.792 84.407 129.264C83.1425 129.107 81.0876 125.8 80.7715 124.068C82.5102 123.753 82.8263 125.643 83.9328 126.273C84.8812 125.17 86.3037 125.013 87.7263 125.8C88.8328 126.273 90.0973 125.643 91.2037 125.485C91.6779 125.328 91.9941 125.8 92.4683 126.115C92.3102 126.43 91.9941 127.217 91.836 127.375C89.9392 128.162 88.0425 129.107 85.8296 127.532Z" fill="black"/>
<path d="M88.1997 92.8936C88.99 93.8382 89.7803 94.6255 90.4126 95.4127C91.9932 94.9404 93.5739 94.1531 95.3126 94.1531C96.261 94.1531 97.3674 95.0978 99.1061 96.0425C97.9997 96.3574 97.2094 96.6723 96.7352 96.5148C94.9965 95.7276 93.4158 96.0425 91.9932 97.1446C90.5707 98.2467 89.6223 97.3021 88.6739 96.1999C88.1997 97.1446 87.7255 97.7744 87.0932 98.4042C86.461 96.0425 86.461 95.4127 88.1997 92.8936Z" fill="black"/>
<path d="M135.462 93.0508C137.359 95.4125 136.569 96.6721 132.933 98.5614C133.565 99.6635 134.04 100.451 134.356 101.553C132.143 101.71 131.827 101.395 130.088 96.3572C130.246 96.3572 130.562 95.7274 130.878 95.8848C131.827 95.8848 133.091 95.8848 133.723 95.5699C134.672 95.5699 134.988 94.3104 135.462 93.0508Z" fill="black"/>
<path d="M111.91 163.115C109.539 164.059 109.065 161.698 107.326 161.225C107.01 161.54 106.694 162.17 106.378 162.8C106.062 163.43 106.062 164.217 105.746 164.689C102.742 163.902 102.742 161.225 100.846 160.123C103.217 159.651 103.375 162.013 104.797 163.115C105.43 161.855 106.062 160.753 106.852 159.336C108.591 160.596 110.172 161.54 111.91 163.115Z" fill="black"/>
<path d="M134.039 128.634C131.826 130.366 130.878 133.042 127.717 130.996C127.243 131.94 126.768 132.57 126.136 133.2C125.82 133.042 125.82 133.042 125.504 132.885C125.662 131.783 125.82 130.838 126.136 129.421C127.559 129.736 128.823 129.893 129.614 130.051C131.352 129.893 131.826 127.689 134.039 128.634Z" fill="black"/>
<path d="M66.5451 155.872C63.7 156.502 64.0161 153.353 62.4355 152.881C61.9613 153.826 61.329 154.77 60.5387 155.715C60.2226 153.826 60.2226 153.826 63.0677 151.464C64.0161 152.723 65.2806 153.983 66.5451 155.872Z" fill="black"/>
<path d="M90.887 17.1611C89.7805 15.2717 90.4128 14.3271 91.6773 13.3824C94.9967 10.8632 101.477 12.5952 103.374 16.6888C104.006 18.1058 104.322 19.3654 102.9 20.4675C101.003 22.5143 98.4741 24.4037 96.4192 26.4505C96.4192 28.8122 97.9999 31.1739 97.0515 34.3228C95.6289 32.5909 94.3644 27.8675 93.8902 24.2462C96.7354 24.2462 98.4741 22.3569 100.687 20.7824C102.9 18.7356 102.742 16.3739 99.8967 15.1143C97.3676 14.1696 94.8386 13.5398 92.7838 15.9015C91.8354 16.059 91.5192 16.5313 90.887 17.1611Z" fill="#F15748"/>
<path d="M93.2578 41.0933C94.2062 39.9912 94.6804 38.7316 95.6288 38.1018C96.103 37.9444 97.3675 38.5741 97.6836 39.0465C98.632 39.8337 98.1578 40.9358 97.6836 41.7231C96.8933 42.6678 96.261 43.6124 94.9965 43.1401C94.6804 43.1401 94.2062 42.038 93.2578 41.0933Z" fill="#F15748"/>
<path d="M70.1809 118.872C70.339 119.502 70.0229 120.132 69.3906 120.289C68.7583 120.447 68.1261 120.132 67.968 119.502C67.81 118.872 68.1261 118.242 68.7583 118.085C69.5487 118.085 70.0229 118.4 70.1809 118.872Z" fill="white"/>
<path d="M112.384 124.855C112.542 125.485 112.226 126.115 111.594 126.272C110.961 126.43 110.329 126.115 110.171 125.485C110.013 124.855 110.329 124.225 110.961 124.068C111.594 123.911 112.226 124.383 112.384 124.855Z" fill="white"/>
<path d="M80.4553 139.97C80.6133 139.97 80.9294 139.812 81.0875 139.812C84.0907 138.868 87.252 139.655 89.3069 141.544C89.623 141.702 89.7811 141.702 90.2553 141.544C90.4133 141.229 90.4133 141.072 90.2553 140.599C87.5682 138.395 84.0907 137.45 80.6133 138.553C80.4553 138.553 80.1391 138.71 79.9811 138.71C79.823 138.71 79.3488 139.182 79.6649 139.497C79.823 139.97 80.2972 140.285 80.4553 139.97Z" fill="white"/>
<path d="M195.052 300.093C194.578 298.047 194.104 296.315 193.314 294.268C192.365 291.906 191.733 289.702 189.836 288.127C189.994 287.813 189.994 287.498 190.152 287.34C190.468 286.868 190.784 286.238 191.101 285.766C192.839 281.515 193.788 277.264 190.626 273.485C187.149 269.234 182.407 266.557 177.033 265.14C176.084 264.983 174.82 265.298 173.714 265.613C173.239 265.77 172.923 266.4 172.449 267.187C174.346 267.187 175.768 266.715 177.033 267.187C181.617 268.447 185.726 270.651 188.888 274.272C189.52 275.059 190.152 276.161 190.152 277.106C190.152 280.57 189.362 283.719 186.675 286.71C186.517 285.451 186.517 284.664 186.201 283.876C185.41 281.2 184.462 278.366 182.407 276.319C181.617 275.847 180.984 275.532 180.352 276.634C180.668 277.106 180.984 277.893 181.459 278.366C183.355 281.042 184.62 283.876 184.62 287.183C184.62 288.127 184.462 288.915 183.197 289.23C178.455 290.017 173.872 290.647 169.288 288.757C168.972 288.6 168.497 288.127 167.707 287.655C168.655 287.183 169.13 287.025 169.92 286.553C168.339 285.766 166.917 287.498 165.652 285.766C166.284 283.719 168.655 283.404 169.92 281.83C168.814 282.302 167.865 282.459 166.601 282.932C166.443 279.783 170.078 278.838 170.394 275.532C166.443 277.421 164.704 280.57 163.439 284.349C161.226 281.987 159.646 280.098 160.752 277.264C161.384 275.374 162.175 273.642 162.965 271.91C162.965 271.438 163.281 270.808 163.439 270.336C162.333 269.391 161.543 269.864 160.91 270.336C160.12 270.651 159.488 271.123 158.855 271.596C157.275 267.817 157.591 266.557 160.436 264.668C162.017 263.566 163.597 262.621 165.02 261.676C165.494 261.361 165.81 261.047 166.284 260.732L165.968 260.259C163.597 261.362 161.384 262.464 158.855 263.723C158.855 261.361 159.804 260.417 160.91 259.157C161.068 259.157 160.91 258.842 160.91 258.685C160.594 258.527 159.962 258.527 159.33 258.37C159.172 257.425 159.172 256.638 159.172 255.851C159.488 249.868 159.804 244.042 160.12 238.059C160.12 236.957 159.962 235.855 159.962 234.596C159.962 230.03 159.646 225.621 160.91 221.055C162.017 216.961 163.281 212.868 164.072 208.774C164.546 205.94 165.336 202.949 163.281 200.272C159.33 200.272 155.536 200.272 151.743 199.957C143.839 199.485 136.094 198.698 128.191 198.225C121.078 197.753 113.649 197.596 106.536 197.438C100.372 197.281 94.3651 197.438 88.2006 197.123C80.2974 196.966 72.2361 196.336 64.3329 195.864C62.9103 195.706 61.3296 195.706 59.749 195.549C59.2748 195.706 58.8006 195.706 58.1683 195.706C56.4296 195.549 54.6909 195.391 52.9522 195.391C51.2135 195.391 49.4748 195.391 47.578 195.234C46.9458 195.234 46.4716 195.076 45.9974 194.919C45.8393 194.919 45.5232 194.919 45.3651 194.919C45.3651 195.234 45.2071 195.549 45.2071 195.864C42.9941 195.864 45.049 195.549 42.8361 195.706C38.7264 195.864 34.3006 195.391 31.2974 199.485C31.4554 200.744 31.9296 202.161 31.9296 203.421C31.9296 210.191 31.6135 217.119 31.4554 224.047C31.2974 231.762 30.9812 239.476 31.2974 247.191C31.2974 252.544 32.0877 258.055 32.5619 263.566C33.1941 272.698 33.6683 281.672 34.1425 290.804C34.3006 293.166 35.249 294.898 37.1458 296.157C39.0425 297.574 40.9393 298.204 43.1522 298.047C45.049 297.889 47.42 297.417 48.8425 300.093C48.5264 298.676 49.0006 298.204 50.1071 298.204C52.7942 298.204 55.4812 298.047 58.3264 298.204C69.549 298.834 80.9296 298.204 92.3103 297.732C95.6296 297.732 98.7909 297.259 102.11 297.259C107.801 297.259 113.649 297.574 119.181 296C119.655 295.842 120.288 296 120.762 296C126.294 295.842 132.143 295.842 137.675 295.685C141.152 295.527 144.63 294.583 148.107 295.842C148.265 295.842 148.423 295.685 148.739 295.527C149.372 295.055 150.162 294.74 150.794 294.268C152.849 293.008 154.43 291.591 154.904 288.915C155.536 284.821 156.168 280.885 156.801 276.949C156.959 275.847 156.959 274.587 158.223 273.8C157.433 276.949 156.643 280.098 157.749 283.562C158.855 287.183 161.543 288.915 164.23 291.276C161.859 294.11 162.491 296.63 163.755 299.464C164.23 300.251 164.388 301.196 164.704 302.14C165.336 304.344 166.126 306.391 167.549 308.281H174.346C175.768 307.179 177.349 305.919 178.772 304.659C176.243 304.974 174.504 307.021 172.449 308.123C172.291 308.123 171.975 308.123 171.817 307.966C168.339 304.974 167.707 303.242 173.714 300.723C177.507 298.991 181.775 298.519 185.726 297.732C187.781 297.417 189.678 297.417 191.575 297.102C191.891 297.732 192.049 297.889 192.207 298.204C193.472 301.353 193.788 304.974 193.788 308.281H196.159C196.001 305.447 195.843 302.77 195.052 300.093ZM167.549 302.613C166.443 298.361 165.652 294.898 164.862 291.276C167.233 291.906 169.446 292.693 171.817 293.166C173.081 293.323 174.03 293.638 175.294 293.638C177.823 293.638 177.823 293.638 179.088 296.787C175.136 298.047 170.868 298.834 167.549 302.613ZM188.572 295.842C186.833 296 185.252 296.157 183.514 296.315C180.826 296.472 180.826 296.472 180.352 293.481C183.039 292.221 185.568 290.804 188.572 289.387C190.468 290.647 190.468 292.693 190.943 295.055C189.994 295.37 189.362 295.685 188.572 295.842Z" fill="#F15748"/>
<path d="M178.772 280.097C178.139 277.106 176.243 274.587 174.82 271.753C172.133 267.029 170.078 261.991 168.814 256.638C168.34 254.276 167.549 251.6 165.81 249.868C163.756 248.136 160.91 248.293 158.54 249.395C156.485 256.166 156.959 263.251 156.801 270.178C158.539 274.902 158.223 282.617 162.333 285.923C163.439 286.868 164.704 287.34 166.127 287.812C169.446 289.072 173.398 290.174 176.401 288.127C178.772 286.553 179.562 283.089 178.772 280.097Z" fill="#BCBCBB"/>
<path d="M171.026 312.375C172.132 313.477 173.239 314.579 174.82 314.579C176.242 314.736 177.665 313.634 178.455 312.375C179.245 311.115 179.562 309.54 179.72 308.123C180.668 303.4 181.774 299.936 177.823 296.63C175.294 294.426 170.71 292.851 167.391 294.583C159.962 298.519 167.232 308.123 171.026 312.375Z" fill="#BCBCBB"/>
<path d="M60.3807 292.063C59.9066 292.851 59.1162 293.008 58.3259 293.323C57.2195 293.638 56.2711 293.953 55.3227 294.268C53.9001 294.74 52.6356 295.37 51.213 295.842C49.0001 296.629 46.6291 297.416 44.2582 297.259C40.6227 297.259 37.4614 294.74 35.4066 291.748C34.7743 290.804 34.3001 289.859 33.8259 288.914C33.3517 280.412 32.8775 271.91 32.4033 263.408C32.0872 259.314 31.4549 255.221 31.2969 251.127C32.0872 249.71 32.7195 249.238 33.5098 249.395C34.142 249.71 35.0904 250.812 36.1969 252.387C38.884 256.008 40.3066 261.361 42.9937 265.297C47.1033 271.753 52.4775 277.578 57.3775 283.246C57.8517 283.876 58.3259 284.348 58.8001 284.978L58.9582 285.136C60.6969 287.34 62.1195 290.331 60.3807 292.063Z" fill="#BF3737"/>
<path d="M195.052 300.093C194.578 298.047 194.104 296.315 193.314 294.268C192.365 291.906 191.733 289.702 189.836 288.127C189.994 287.813 189.994 287.498 190.152 287.34C190.468 286.868 190.784 286.238 191.101 285.766C192.839 281.515 193.788 277.264 190.626 273.485C187.149 269.234 182.407 266.557 177.033 265.14C176.084 264.983 174.82 265.298 173.714 265.613C173.239 265.77 172.923 266.4 172.449 267.187C174.346 267.187 175.768 266.715 177.033 267.187C181.617 268.447 185.726 270.651 188.888 274.272C189.52 275.059 190.152 276.161 190.152 277.106C190.152 280.57 189.362 283.719 186.675 286.71C186.517 285.451 186.517 284.664 186.201 283.876C185.41 281.2 184.462 278.366 182.407 276.319C181.617 275.847 180.984 275.532 180.352 276.634C180.668 277.106 180.984 277.893 181.459 278.366C183.355 281.042 184.62 283.876 184.62 287.183C184.62 288.127 184.462 288.915 183.197 289.23C178.455 290.017 173.872 290.647 169.288 288.757C168.972 288.6 168.497 288.127 167.707 287.655C168.655 287.183 169.13 287.025 169.92 286.553C168.339 285.766 166.917 287.498 165.652 285.766C166.284 283.719 168.655 283.404 169.92 281.83C168.814 282.302 167.865 282.459 166.601 282.932C166.443 279.783 170.078 278.838 170.394 275.532C166.443 277.421 164.704 280.57 163.439 284.349C161.226 281.987 159.646 280.098 160.752 277.264C161.384 275.374 162.175 273.642 162.965 271.91C162.965 271.438 163.281 270.808 163.439 270.336C162.333 269.391 161.543 269.864 160.91 270.336C160.12 270.651 159.488 271.123 158.855 271.596C157.275 267.817 157.591 266.557 160.436 264.668C162.017 263.566 163.597 262.621 165.02 261.676C165.494 261.361 165.81 261.047 166.284 260.732L165.968 260.259C163.597 261.361 161.384 262.464 158.855 263.723C158.855 261.361 159.804 260.417 160.91 259.157C161.068 259.157 160.91 258.842 160.91 258.685C160.594 258.527 159.962 258.527 159.33 258.37C159.172 257.425 159.172 256.638 159.172 255.851C159.488 249.868 159.804 244.042 160.12 238.059C160.12 236.957 159.962 235.855 159.962 234.596C159.962 230.03 159.646 225.621 160.91 221.055C162.017 216.961 163.281 212.868 164.072 208.774C164.546 205.94 165.336 202.949 163.281 200.272C159.33 200.272 155.536 200.272 151.743 199.957C143.839 199.485 136.094 198.698 128.191 198.225C121.078 197.753 113.649 197.596 106.536 197.438C100.372 197.281 94.3651 197.438 88.2006 197.123C80.2974 196.966 72.2361 196.336 64.3329 195.864C62.9103 195.706 61.3296 195.706 59.749 195.549C59.2748 195.706 58.8006 195.706 58.1683 195.706C56.4296 195.549 54.6909 195.391 52.9522 195.391C51.2135 195.391 49.4748 195.391 47.578 195.234C46.9458 195.234 46.4716 195.076 45.9974 194.919C45.8393 194.919 45.5232 194.919 45.3651 194.919C45.3651 195.234 45.2071 195.549 45.2071 195.864C42.9941 195.864 45.049 195.549 42.8361 195.706C38.7264 195.864 34.3006 195.391 31.2974 199.485C31.4554 200.744 31.9296 202.161 31.9296 203.421C31.9296 210.191 31.6135 217.119 31.4554 224.047C31.2974 231.761 30.9812 239.476 31.2974 247.191C31.2974 248.608 31.2974 250.025 31.4554 251.442C31.6135 255.379 32.2458 259.472 32.5619 263.723C33.1941 272.225 33.6683 280.727 33.9845 289.23C33.9845 289.859 33.9845 290.332 34.1425 290.961C34.3006 293.323 35.249 295.055 37.1458 296.315C39.0425 297.732 40.9393 298.361 43.1522 298.204C45.049 298.047 47.42 297.574 48.8425 300.251C48.5264 298.834 49.0006 298.361 50.1071 298.361C52.7942 298.361 55.4812 298.204 58.3264 298.361C69.549 298.991 80.9296 298.361 92.3103 297.889C95.6296 297.889 98.7909 297.417 102.11 297.417C107.801 297.417 113.649 297.732 119.181 296.157C119.655 296 120.288 296.157 120.762 296.157C126.294 296 132.143 296 137.675 295.842C141.152 295.685 144.63 294.74 148.107 296C148.265 296 148.423 295.842 148.739 295.685C149.372 295.213 150.162 294.898 150.794 294.425C152.849 293.166 154.43 291.749 154.904 289.072C155.536 284.979 156.168 281.042 156.801 277.106C156.959 276.004 156.959 274.744 158.223 273.957C157.433 277.106 156.643 280.255 157.749 283.719C158.855 287.34 161.543 289.072 164.23 291.434C161.859 294.268 162.491 296.787 163.755 299.621C164.23 300.408 164.388 301.353 164.704 302.298C165.336 304.502 166.126 306.549 167.549 308.438C168.339 309.54 169.13 310.327 170.236 311.272C171.184 312.059 171.817 313.319 172.449 314.264C173.714 315.051 174.978 315.523 176.084 316.31C180.352 319.144 184.936 319.932 189.836 318.672C193.63 317.885 195.368 316.153 195.843 312.374C196.001 311.115 196.159 309.698 196.159 308.438C196.001 305.447 195.843 302.77 195.052 300.093ZM36.5135 290.647C36.1974 288.915 36.1974 287.183 35.8812 284.979C37.62 284.979 38.8845 284.821 40.4651 284.821C40.7812 287.97 41.0974 290.647 41.4135 293.638C38.0942 293.796 36.9877 293.166 36.5135 290.647ZM142.891 291.906C142.575 289.544 141.943 287.025 141.943 284.506C142.259 284.349 142.417 284.349 142.733 284.349C143.049 286.71 143.207 289.23 143.523 291.749C143.365 291.906 143.207 291.906 142.891 291.906ZM145.262 292.221C144.472 289.702 144.314 287.025 144.63 284.349C144.63 284.034 145.262 284.034 146.052 283.562C146.21 286.71 146.21 289.23 146.368 292.064C146.052 292.221 145.736 292.221 145.262 292.221ZM157.591 238.847C157.591 241.366 157.749 243.885 157.433 246.404C156.326 255.536 156.801 264.668 154.272 273.485C153.481 276.634 153.165 279.94 152.691 283.089C152.533 283.876 152.533 284.506 152.375 285.293C151.743 287.97 151.11 290.489 147.791 291.276C146.843 288.915 147.159 286.396 147.317 283.562C148.739 283.247 150.162 282.774 152.217 282.302C151.11 281.515 150.636 281.2 150.162 281.042C149.846 280.885 149.372 281.042 148.897 281.042C138.465 282.459 127.875 281.2 117.443 281.672C116.494 281.672 115.546 281.83 114.597 282.144C114.123 282.302 113.965 282.932 113.491 283.562C118.233 283.562 122.501 283.561 126.768 283.719C131.036 283.719 135.304 283.876 139.73 284.034C140.994 286.553 140.994 289.072 141.468 291.906C140.678 292.064 140.046 292.379 139.413 292.536C132.301 293.323 125.504 293.481 118.391 293.008C116.968 293.008 115.388 293.166 113.965 293.166C103.691 293.323 93.4167 293.323 83.1425 293.638C78.0845 293.796 72.8683 294.268 67.8103 294.425C63.7006 294.583 59.4329 294.425 55.3232 294.425C52.9522 294.425 50.4232 294.425 48.0522 294.425C46.7877 294.425 46.1554 293.953 45.8393 292.693C45.5232 290.961 44.8909 289.387 44.4167 287.655C44.4167 287.655 44.2587 287.813 43.9425 287.813C44.2587 289.859 44.5748 291.749 44.2587 294.268C43.1522 294.74 42.2038 294.583 42.0458 293.323C41.8877 290.804 41.8877 288.285 41.5716 285.451C45.2071 284.979 48.5264 284.979 51.6877 285.136C54.0587 285.293 56.4296 285.293 58.9587 285.451C63.8587 285.608 68.7587 285.923 73.6587 285.923C81.878 285.923 90.0974 285.608 98.3167 285.451C99.4232 285.451 100.53 285.608 101.794 285.451C102.268 285.451 102.901 285.136 103.533 284.979C102.901 283.247 101.636 283.562 100.53 283.562C97.2103 283.562 94.049 283.404 90.8877 283.719C80.4554 284.506 69.8651 284.034 59.4329 283.719C58.8006 283.719 58.0103 283.719 57.378 283.562C52.9522 283.247 48.5264 283.089 43.9425 282.932C42.3619 282.932 40.7812 283.089 39.2006 283.089C38.2522 283.089 37.1458 282.932 36.1974 282.932C35.249 280.098 35.7232 278.208 37.9361 276.791C40.149 275.374 42.2038 273.642 43.9425 271.596C41.2554 273.327 38.5683 275.059 35.7232 276.949C34.7748 273.957 38.0941 273.8 38.5683 271.753C37.4619 272.383 36.6716 273.013 35.4071 273.642C34.9329 269.706 34.4587 265.927 34.1425 262.149C33.9845 258.37 33.6683 254.276 33.5103 250.498C33.5103 250.183 33.5103 250.025 33.5103 249.71C33.3522 245.302 33.0361 240.579 33.0361 236.17C33.0361 229.4 33.1942 222.63 33.5103 215.859C33.6683 210.349 34.1425 204.996 33.0361 199.642C33.0361 199.327 33.1941 199.17 33.3522 198.54C34.9329 198.225 36.8296 197.438 38.7264 197.596C46.6296 197.91 54.6909 198.383 62.5941 198.855C70.0232 199.17 77.4522 199.8 84.8812 200.115C91.2038 200.43 97.3683 200.43 103.691 200.43C108.591 200.43 113.491 200.272 118.549 200.115C120.762 200.115 122.659 200.115 124.714 200.272C133.881 200.744 143.207 201.374 152.375 201.847C155.536 202.004 158.855 202.319 162.333 202.634C162.965 205.153 162.491 207.83 161.859 210.506C160.594 215.387 159.014 220.268 158.065 225.149C157.433 227.983 157.749 231.289 157.591 234.281C157.433 235.698 157.591 237.272 157.591 238.847ZM188.572 289.387C190.468 290.647 190.468 292.693 190.943 295.055C189.994 295.37 189.362 295.685 188.572 295.842C186.833 296 185.252 296.157 183.514 296.315C180.826 296.472 180.826 296.472 180.352 293.481C183.039 292.221 185.568 290.804 188.572 289.387ZM167.549 302.613C166.443 298.361 165.652 294.898 164.862 291.276C167.233 291.906 169.446 292.693 171.817 293.166C173.081 293.323 174.03 293.638 175.294 293.638C177.823 293.638 177.823 293.638 179.088 296.787C175.136 298.047 170.868 298.834 167.549 302.613ZM193.63 309.54C193.472 314.579 189.046 316.468 184.778 315.996C180.036 315.366 176.875 313.476 172.923 309.068C173.397 308.753 173.714 308.438 174.188 308.123C175.61 307.021 177.191 305.761 178.614 304.502C176.084 304.817 174.346 306.864 172.291 307.966C172.133 307.966 171.817 307.966 171.659 307.808C168.181 304.817 167.549 303.085 173.555 300.566C177.349 298.834 181.617 298.361 185.568 297.574C187.623 297.259 189.52 297.259 191.417 296.944C191.733 297.574 191.891 297.732 192.049 298.047C193.314 301.196 193.63 304.817 193.63 308.123C193.63 308.596 193.63 309.068 193.63 309.54Z" fill="black"/>
<path d="M177.033 267.187C175.769 266.085 175.927 264.668 175.769 263.251C175.611 259.157 175.295 255.064 174.504 250.812C174.03 248.451 172.003 246.621 170.423 244.889C169.948 244.417 169.474 243.63 169 243C169.948 242.37 170.581 241.898 171.529 241.268C168.684 240.481 167 237.375 165.5 235.5C163.5 233 161.212 228.232 158.999 226.5C158.999 226.5 158.802 213.191 160.501 223C162.001 226.5 167.103 236.702 170.581 238.119C172.477 238.906 174.532 239.851 176.587 240.638C176.587 242.842 174.216 242.842 173.426 244.102C176.429 251.659 179.088 259.157 177.033 267.187Z" fill="black"/>
<path d="M40.9395 269.548C42.8362 268.289 44.5749 267.029 46.4717 265.77C46.6298 265.927 46.7878 266.242 46.9459 266.242C45.0491 267.501 43.3104 268.761 41.5717 270.021C41.2556 269.863 41.0975 269.706 40.9395 269.548Z" fill="black"/>
<path d="M180.667 318.672C173.238 321.348 165.177 322.765 157.274 322.765C155.377 322.765 153.48 322.608 151.742 322.45C149.055 322.136 146.209 321.663 143.838 320.561C141.626 319.301 139.887 317.727 139.097 315.208C138.938 314.735 138.78 314.106 138.78 313.633C138.78 312.374 139.255 311.272 140.045 310.484C140.835 309.697 141.784 309.225 143.206 309.225C143.997 309.225 144.471 309.382 145.103 309.697C145.893 310.17 146.526 310.957 147.158 312.059C147.632 313.161 147.79 314.263 147.79 315.365C147.79 319.144 145.893 322.45 143.206 325.127C140.519 327.804 136.567 329.693 132.774 330.323C131.351 330.638 129.771 330.795 128.19 330.795C121.867 330.795 115.387 328.906 109.222 327.016C86.9352 320.246 64.1739 314.106 40.7804 314.106C40.6223 314.106 40.4643 314.106 40.3062 314.106C37.303 314.106 33.9836 314.263 30.9804 315.838C28.9255 317.097 27.1868 318.829 26.3965 321.191C26.2384 321.663 26.0804 322.136 26.0804 322.45C26.0804 323.867 26.7126 325.127 27.661 325.914C28.6094 326.701 29.8739 327.174 31.1384 327.174C31.9288 327.174 32.8772 327.016 33.5094 326.544C34.2997 326.072 34.932 325.284 35.4062 324.497C36.5126 322.45 36.9868 319.931 36.9868 317.412C36.9868 312.216 34.7739 307.021 30.3481 304.029C28.7675 302.927 27.1868 302.14 25.9223 301.195C25.2901 300.723 24.8159 300.093 24.4997 299.621C24.0255 299.148 23.8675 298.361 23.8675 297.259C23.8675 297.101 23.8675 296.944 23.8675 296.787C23.8675 295.527 24.1836 294.425 24.8159 293.323C26.3965 290.331 29.2417 288.599 32.2449 286.71C32.7191 286.395 32.8772 285.765 32.561 285.45C32.2449 284.978 31.6126 284.821 31.2965 285.136C28.2933 287.025 24.9739 289.072 23.2352 292.536C22.603 293.795 21.9707 295.527 21.9707 297.101C21.9707 297.259 21.9707 297.574 21.9707 297.731C22.1288 298.991 22.4449 299.936 22.9191 300.88C23.7094 302.14 24.8159 303.084 25.9223 303.872C27.1868 304.659 28.2933 305.131 29.2417 305.918C33.0352 308.438 35.0901 313.004 35.0901 317.727C35.0901 319.774 34.6159 321.978 33.8255 323.867C33.5094 324.34 33.1933 324.812 32.7191 325.127C32.2449 325.442 31.7707 325.599 31.2965 325.599C30.5062 325.599 29.7159 325.284 29.0836 324.812C28.6094 324.34 28.1352 323.553 28.1352 322.765C28.1352 322.45 28.1352 322.293 28.2933 321.978C28.7675 320.246 30.1901 318.672 31.9288 317.727C34.2997 316.467 37.303 316.31 40.1481 316.31C40.3062 316.31 40.4643 316.31 40.6223 316.31C63.6997 316.467 86.303 322.608 108.432 329.221C114.755 331.11 121.393 332.999 128.19 332.999C129.771 332.999 131.351 332.842 133.09 332.527C137.358 331.897 141.467 329.85 144.629 327.016C147.79 324.025 150.003 320.246 150.003 315.68C150.003 313.791 149.529 311.901 148.422 310.327C147.948 309.54 147.158 308.91 146.367 308.28C145.577 307.808 144.471 307.493 143.364 307.493C141.467 307.493 139.887 308.28 138.78 309.382C137.674 310.484 137.042 312.216 137.042 313.948C137.042 314.578 137.2 315.365 137.358 315.995C138.306 319.301 140.519 321.348 143.206 322.765C145.893 324.025 148.897 324.655 151.742 324.812C153.638 324.97 155.535 325.127 157.432 325.127C165.493 325.127 173.713 323.71 181.458 320.876C181.932 320.718 182.248 320.089 181.932 319.616C181.932 318.829 181.3 318.514 180.667 318.672Z" fill="#010202"/>
<path d="M72.2351 236.642C71.919 236.957 71.2867 236.957 70.9706 236.642C70.6545 236.327 70.4964 235.855 70.3383 235.382C70.0222 234.595 69.7061 233.808 69.548 232.863C68.9158 230.816 68.1254 228.455 69.0738 226.565C69.8642 225.148 71.2867 224.204 72.8674 223.416C73.1835 223.259 73.6577 222.944 73.9738 223.102C74.29 223.102 74.448 223.259 74.7642 223.416C76.819 224.991 78.2416 227.353 79.348 229.714C80.1383 231.289 80.7706 232.863 80.9287 234.595C81.0867 236.327 80.2964 238.059 78.8738 239.004C78.2416 239.476 77.4513 239.633 76.6609 239.633C75.7125 239.791 74.6061 239.791 73.8158 239.319C71.7609 238.374 71.1287 235.855 70.1803 233.808" fill="white"/>
<path d="M98.1577 217.276C98.6319 217.119 98.9481 216.961 99.4222 217.119C99.8964 217.276 100.371 217.591 100.687 217.906C101.951 219.166 102.742 220.898 102.9 222.787C102.9 223.574 102.9 224.361 102.742 225.149C102.109 227.668 100.213 229.872 97.6835 230.502C94.2061 231.447 91.6771 229.085 91.8351 225.778C91.8351 221.842 94.6803 218.536 98.1577 217.276Z" fill="white"/>
<path d="M119.023 224.204C119.339 224.204 119.497 224.519 119.813 224.676C120.762 225.306 121.71 226.093 122.184 227.038C124.871 231.919 116.968 240.263 112.542 235.54C110.962 233.966 110.487 231.131 111.436 229.085C112.226 227.038 116.494 223.731 119.023 224.204Z" fill="white"/>
<path d="M92.31 238.689C94.0487 237.587 96.1035 236.643 98.1584 236.643C99.5809 236.643 101.162 236.957 102.426 237.43C107.168 239.162 111.436 242.468 113.333 247.034C115.387 251.6 116.178 262.306 112.542 265.77C109.539 268.762 101.794 263.409 97.6842 264.038C95.3132 264.353 94.6809 265.455 92.31 265.14C90.2551 264.826 83.1422 268.132 80.6132 266.715C77.4519 264.826 79.3487 257.898 79.6648 254.592C80.6132 248.451 87.2519 241.681 92.31 238.689Z" fill="white"/>
<path d="M115.861 255.221C115.861 256.48 116.019 258.212 116.019 259.787C116.177 263.093 114.438 265.455 111.751 267.029C111.119 267.502 110.012 267.659 109.222 267.502C107.325 267.187 105.429 266.557 103.69 265.927C100.845 264.825 97.9995 264.51 94.9963 265.297C92.4673 265.927 89.9382 266.872 87.2511 267.344C85.8286 267.659 84.0898 267.974 82.6673 267.817C79.506 267.502 77.4511 264.668 77.9253 261.519C78.3995 258.527 78.8737 255.693 79.3479 252.702C80.1382 248.923 82.035 245.617 84.7221 242.94C86.4608 241.051 88.6737 239.476 90.7286 237.902C91.835 237.115 92.9415 236.485 94.206 236.012C101.161 233.651 103.848 235.068 108.748 239.949C110.329 241.523 111.593 243.57 112.858 245.459C113.648 246.876 114.438 248.293 114.912 249.868C115.229 251.6 115.387 253.174 115.861 255.221ZM86.3027 255.378C86.3027 255.536 86.4608 255.693 86.4608 255.693C85.0382 256.48 83.4576 257.268 82.035 258.055C79.9802 259.157 79.8221 259.629 80.1382 261.991C80.1382 262.306 80.2963 262.778 80.4544 263.093C81.2447 265.77 82.9834 266.714 85.6705 266.4C86.7769 266.242 88.0415 265.927 89.1479 265.612C91.2028 265.14 93.2576 264.353 95.4705 263.88C98.3157 263.251 101.003 263.408 103.848 264.51C105.587 265.297 107.483 265.455 109.222 266.085C110.645 266.557 111.909 266.085 112.858 265.14C114.122 263.88 114.912 262.463 115.07 260.732C115.229 257.425 114.596 254.119 113.806 250.812C112.7 246.561 110.17 243.255 107.009 240.263C105.587 238.846 103.69 237.272 101.319 237.429C97.2092 237.744 93.2576 238.689 89.9382 241.366C89.464 241.838 88.8318 242.153 88.3576 242.625C86.3028 244.042 84.7221 245.932 83.6157 248.136C82.8253 249.71 82.1931 251.285 81.5608 252.859C81.2447 253.646 80.7705 254.434 81.0866 255.378C83.9318 254.119 86.4608 252.859 89.1479 251.6C89.1479 251.757 89.306 251.915 89.306 252.072C88.9898 252.229 88.6737 252.387 88.3576 252.544C86.3028 253.489 84.2479 254.434 82.3511 255.536C81.4027 256.166 79.9802 256.48 80.2963 258.527C82.3511 257.268 84.2479 256.323 86.3027 255.378Z" fill="black"/>
<path d="M81.2442 232.234C81.5603 235.225 79.9797 238.374 77.9248 239.319C75.87 240.263 73.8152 239.948 72.0765 238.531C68.9152 235.855 67.6507 232.706 68.599 228.612C69.0732 226.408 70.3377 224.676 72.2345 223.574C72.8668 223.259 73.9732 223.417 74.7635 223.731C77.1345 224.834 78.7152 226.88 79.8216 229.085C80.6119 230.187 80.9281 231.446 81.2442 232.234ZM70.3377 230.974C70.97 233.178 72.2345 235.382 74.6055 236.8C77.4506 238.689 79.5055 237.902 80.2958 234.595C80.6119 233.021 79.9797 231.604 79.3474 230.344C78.399 228.14 76.9765 226.251 74.7635 224.991C73.9732 224.519 73.0248 224.361 72.3926 225.148C70.97 226.723 70.0216 228.455 70.3377 230.974Z" fill="black"/>
<path d="M102.109 221.527C102.425 224.519 101.161 227.038 99.422 229.242C97.9994 230.974 93.4156 230.029 92.151 228.14C89.9381 224.991 91.2027 220.583 93.0994 218.693C94.3639 217.591 95.7865 216.804 97.3672 215.859C98.3156 215.387 99.1059 215.702 99.7381 216.332C100.845 217.591 101.951 219.638 102.109 221.527ZM93.7317 227.51C95.1543 226.881 96.5768 226.408 97.8414 225.936C95.6285 227.353 95.6285 227.353 94.8381 228.612C95.6285 228.612 96.4188 228.455 96.893 228.77C98.4736 229.715 99.1059 228.612 99.7381 227.668C100.37 226.723 100.845 225.621 101.161 224.361C101.793 221.527 100.37 218.536 97.9994 217.276C95.4704 218.851 92.6252 220.425 92.9414 224.361C94.2059 223.889 95.3123 223.417 96.4188 223.102C95.7865 223.732 95.1543 224.046 94.522 224.361C92.9414 225.149 92.9414 225.306 93.7317 227.51Z" fill="black"/>
<path d="M110.645 232.706C110.329 229.557 112.384 225.621 115.229 224.204C117.758 222.944 120.287 223.574 121.394 226.093C122.5 228.613 122.342 230.974 120.603 233.178C118.865 235.383 116.968 237.115 113.807 236.485C111.278 236.013 110.962 235.54 110.645 232.706ZM113.332 229.715C113.016 230.187 112.7 230.659 112.068 231.604C113.332 231.289 114.281 231.132 115.229 230.817V230.974C114.439 231.447 113.649 231.761 112.542 232.391C113.491 233.493 114.281 234.438 115.071 235.383C117.284 235.068 118.707 233.966 120.129 231.761C121.236 229.872 121.078 227.353 119.497 225.778C119.181 225.464 118.549 225.149 117.916 225.149C116.02 224.991 113.332 227.038 112.7 228.927C112.858 229.242 113.332 229.557 113.332 229.715Z" fill="black"/>
<path d="M113.49 229.715C114.122 228.927 114.913 228.612 115.861 228.927C115.071 229.085 114.28 229.4 113.49 229.715C113.332 229.715 113.49 229.715 113.49 229.715Z" fill="black"/>
</g>
<defs>
<clipPath id="clip0_10046_7380">
<rect width="196" height="333" fill="white"/>
</clipPath>
</defs>
</svg>
