<svg width="84" height="59" viewBox="0 0 84 59" fill="none" xmlns="http://www.w3.org/2000/svg">
<path d="M61.645 41.4736C61.3552 42.9648 60.9461 44.4843 60.3541 45.8707C59.8042 47.2218 59.0646 48.517 57.9981 49.5495C57.7034 49.7953 57.4473 50.0447 57.1174 50.2485C56.8296 50.4171 56.4996 50.6209 56.1767 50.7475C55.8537 50.8741 55.4921 50.9972 55.0988 51.0397C54.7406 51.1242 54.3895 51.1315 54.0418 51.1002C53.3077 51.0343 52.5488 50.8105 51.8776 50.4779C51.5438 50.2922 51.2099 50.1066 50.8795 49.8823C50.5842 49.7002 50.2925 49.4795 50.0042 49.2201C49.2097 48.5263 48.4994 47.7621 47.8698 46.9663C47.8278 47.0015 47.8243 47.04 47.7821 47.0751C47.6559 47.1805 47.5048 47.128 47.3958 47.0404C47.111 46.7425 46.8261 46.4446 46.5028 46.1431C45.891 45.5824 45.2372 45.0567 44.5799 44.5698L44.5412 44.5662C43.9577 44.1247 43.3707 43.7218 42.7803 43.3575C42.1512 42.9898 41.5608 42.6254 40.9282 42.2962C40.0708 41.869 39.2133 41.4418 38.3103 41.0883C38.2682 41.1234 38.1558 41.0745 38.1206 41.0324L38.0855 40.9903C37.7447 40.8819 37.446 40.7383 37.1438 40.6334C36.9575 40.5388 36.8065 40.4863 36.6167 40.4304C36.4657 40.3779 36.3146 40.3255 36.1635 40.2729C35.8228 40.1645 35.482 40.0561 35.1411 39.9476C34.4981 39.7342 33.8518 39.5594 33.2019 39.4231C33.1667 39.3811 33.0894 39.3742 33.0121 39.3672C31.751 39.0983 30.4864 38.8679 29.2113 38.7533C28.5545 38.6943 27.8977 38.6353 27.2374 38.6148C26.9248 38.6257 26.5772 38.5944 26.2646 38.6052C26.11 38.5913 25.952 38.616 25.7975 38.6022C25.6429 38.5882 25.5235 38.6164 25.369 38.6025C25.2917 38.5956 25.1723 38.6238 25.0951 38.6168C24.5086 38.6419 23.9186 38.7056 23.3287 38.7693C23.0512 38.8222 22.7773 38.8365 22.4999 38.8894L22.4613 38.8859C22.4965 38.928 22.4929 38.9665 22.4895 39.0052C22.4756 39.1595 22.3879 39.2684 22.2651 39.3351C22.2547 39.4509 22.2092 39.5246 22.1636 39.5984C22.0724 39.7457 21.9461 39.8511 21.7812 39.953C21.6162 40.055 21.4899 40.1603 21.3284 40.2236C21.2055 40.2904 21.1213 40.3606 20.9985 40.4274C20.8301 40.5678 20.623 40.7049 20.4511 40.8839C20.2371 41.0982 20.1004 41.3193 19.9251 41.537C19.8373 41.6458 19.7883 41.7581 19.7007 41.867C19.6551 41.9407 19.5674 42.0495 19.5184 42.1618C19.4728 42.2356 19.4237 42.3479 19.3782 42.4216C19.3326 42.4952 19.3222 42.6111 19.2766 42.6848C19.2207 42.8743 19.1646 43.0637 19.1087 43.2533C19.0983 43.369 19.0492 43.4813 19.0389 43.5971C19.0215 43.7901 18.9621 44.0182 18.9447 44.2112C18.9378 44.2884 18.8922 44.3621 18.8501 44.3972C18.8115 44.3938 18.808 44.4323 18.7694 44.4289L18.7381 44.7762C18.7174 45.0078 18.7 45.2007 18.7177 45.4358C18.7425 45.5936 18.7252 45.7866 18.7886 45.9479C18.8203 46.0286 18.8906 46.1127 18.9224 46.1934C18.9892 46.3161 19.0982 46.4037 19.1686 46.4878C19.2775 46.5754 19.3444 46.6981 19.3726 46.8174C19.4008 46.9367 19.3869 47.091 19.3765 47.2069L19.3141 47.9015C19.3038 48.0173 19.2195 48.0875 19.1036 48.0771C18.9876 48.0667 18.9173 47.9825 18.9278 47.8668C18.8049 47.9336 18.6469 47.9582 18.5275 47.9865C18.4081 48.0146 18.2888 48.0428 18.1694 48.071C18.05 48.0991 17.8919 48.1238 17.7726 48.152C17.671 48.4152 17.573 48.6399 17.5101 48.9066C17.4119 49.1311 17.3491 49.3979 17.2896 49.626L17.2515 50.0505C17.2376 50.2048 17.2658 50.3241 17.252 50.4785C17.2802 50.5977 17.2698 50.7135 17.298 50.8328C17.3262 50.9521 17.351 51.1099 17.3792 51.2291C17.4074 51.3484 17.4357 51.4677 17.5026 51.5904C17.5729 51.6746 17.6397 51.7973 17.7066 51.92C17.777 52.0041 17.8825 52.1303 17.9494 52.253C18.0162 52.3758 18.1183 52.5406 18.1851 52.6633C18.3189 52.9087 18.4491 53.1928 18.5408 53.4734C18.6324 53.7539 18.7205 54.0731 18.8087 54.3923C18.8369 54.5116 18.8617 54.6694 18.8865 54.8272C18.9147 54.9464 18.9008 55.1008 18.9256 55.2587C18.9504 55.4165 18.933 55.6095 18.9191 55.7639C18.9053 55.9183 18.8527 56.0692 18.8389 56.2235C18.8215 56.4165 18.7655 56.606 18.6323 56.7885C18.5412 56.936 18.4148 57.0414 18.292 57.1082C18.0429 57.2802 17.755 57.4489 17.4707 57.579C17.225 57.7125 16.9441 57.804 16.6598 57.9341C16.3755 58.0642 16.056 58.1521 15.7716 58.2822C15.4486 58.4089 15.1292 58.4969 14.7675 58.62C14.6903 58.613 14.613 58.6061 14.5392 58.5605C14.504 58.5185 14.4688 58.4764 14.4372 58.3957C14.402 58.3537 14.3669 58.3116 14.3703 58.273L11.4725 58.0126C11.1213 58.0199 10.8122 57.9922 10.4645 57.9609L9.45998 57.8707C9.10877 57.8779 8.79964 57.8502 8.44843 57.8576C8.37115 57.8506 8.25523 57.8402 8.17451 57.8718C8.01994 57.858 7.90058 57.8861 7.78122 57.9143C7.58113 57.9741 7.38094 58.034 7.18086 58.0937C7.06149 58.122 6.98077 58.1536 6.89995 58.1853C6.85787 58.2204 6.78058 58.2134 6.74194 58.21C6.7033 58.2064 6.7033 58.2064 6.66466 58.203C6.59092 58.1575 6.51709 58.1119 6.48539 58.0312C6.45369 57.9506 6.42199 57.87 6.46756 57.7962C6.47104 57.7576 6.50967 57.7611 6.51314 57.7225C6.51661 57.6839 6.47797 57.6804 6.48144 57.6419C6.4111 57.5577 6.3794 57.4771 6.3477 57.3963C6.2843 57.2351 6.2209 57.0737 6.1575 56.9124C6.07281 56.5547 6.02328 56.239 6.01586 55.8882C6.0015 55.6145 6.02578 55.3443 6.05006 55.0743C6.0778 54.7654 6.10209 54.4953 6.16501 54.2286C6.25567 53.6532 6.38496 53.0813 6.54944 52.5513C6.651 52.2881 6.71392 52.0214 6.81549 51.7582C6.91706 51.495 7.01853 51.2318 7.15873 50.972C7.29894 50.7123 7.43915 50.4526 7.57936 50.1928C7.71947 49.9331 7.85624 49.7119 8.03508 49.4556C8.12967 49.2696 8.2629 49.0871 8.39622 48.9045C8.39966 48.866 8.39966 48.866 8.39966 48.866C8.40311 48.8273 8.44519 48.7922 8.44519 48.7922C8.44873 48.7536 8.48737 48.7571 8.49081 48.7185C8.66612 48.5008 8.76425 48.2762 8.90091 48.0551C8.94654 47.9814 8.94998 47.9427 8.9956 47.8691C9.09363 47.6444 9.23384 47.3846 9.3354 47.1214C9.38791 46.9706 9.47905 46.8231 9.53156 46.6722C9.49636 46.6301 9.49636 46.6301 9.4999 46.5916C9.50334 46.5529 9.54542 46.5178 9.54542 46.5178C9.5875 46.4827 9.5875 46.4827 9.62614 46.4862C9.62968 46.4476 9.67176 46.4125 9.67521 46.3739C9.68219 46.2967 9.72427 46.2616 9.73125 46.1844C9.69605 46.1423 9.69605 46.1423 9.69949 46.1037C9.70293 46.0651 9.74511 46.03 9.78375 46.0335C9.83626 45.8826 9.88876 45.7316 9.94127 45.5808C10.0007 45.3527 10.0636 45.0859 10.1231 44.8579C10.1756 44.707 10.1894 44.5526 10.2033 44.3983L10.2796 43.5492C10.29 43.4334 10.2652 43.2755 10.2757 43.1598C10.2895 43.0053 10.2647 42.8475 10.2365 42.7283C10.247 42.6125 10.2153 42.5318 10.1835 42.4512C10.1201 42.2898 10.0533 42.1671 9.9864 42.0444C9.91954 41.9217 9.84924 41.8376 9.7402 41.75C9.59261 41.6589 9.48367 41.5713 9.33609 41.4802C9.29745 41.4767 9.26225 41.4346 9.22361 41.4312C9.17799 41.5048 9.09726 41.5365 9.01654 41.5682C8.93926 41.5613 8.86198 41.5543 8.78824 41.5088L8.68264 41.3825C8.68618 41.344 8.64754 41.3405 8.65098 41.3019C8.61932 41.2213 8.5911 41.102 8.60142 40.9862C8.6084 40.909 8.57674 40.8284 8.58363 40.7512C8.59749 40.5968 8.56927 40.4776 8.58313 40.3232C8.60054 40.1302 8.5792 39.9337 8.59651 39.7407C8.16802 39.7412 7.73962 39.7416 7.31113 39.742C6.99857 39.7528 6.6508 39.7216 6.33826 39.7324L6.10644 39.7115C6.02569 39.7432 5.94495 39.7748 5.87115 39.7293C5.83598 39.6872 5.83598 39.6872 5.79734 39.6837C5.7166 39.7154 5.63932 39.7085 5.56552 39.663C5.45308 39.6139 5.41791 39.5718 5.38621 39.4912C5.27377 39.4421 5.16479 39.3545 5.05582 39.2669C4.79923 39.0883 4.58475 38.8745 4.37027 38.6607C4.30341 38.5379 4.19443 38.4503 4.08893 38.3241C3.86058 38.2647 3.59358 38.2018 3.3687 38.1038C3.10518 38.0023 2.84513 37.8622 2.62371 37.7256C2.51127 37.6765 2.40229 37.5889 2.29332 37.5013C2.22298 37.4173 2.11054 37.3682 2.0402 37.284C1.96987 37.2 1.86089 37.1124 1.79056 37.0282C1.61472 36.8179 1.43887 36.6076 1.2665 36.3586C1.19963 36.2359 1.09413 36.1097 1.02726 35.987C0.956921 35.9028 0.921751 35.8608 0.890052 35.7801C0.858352 35.6995 0.823182 35.6574 0.791483 35.5768C0.657744 35.3313 0.562647 35.0893 0.47102 34.8088C0.287756 34.2475 0.143123 33.6898 0.0757723 33.1391C0.0510049 32.9813 0.0648881 32.827 0.0401206 32.6691C0.00842139 32.5884 0.0118921 32.5498 0.0188238 32.4726C0.0257654 32.3954 -0.00593387 32.3148 0.000997877 32.2376L0.0773062 31.3885C0.12982 31.2377 0.140223 31.1219 0.150625 31.006C0.164499 30.8517 0.181843 30.6588 0.234357 30.5078C0.293803 30.2797 0.35672 30.0131 0.458267 29.7499C0.559825 29.4867 0.661372 29.2234 0.801561 28.9637C0.94175 28.7039 1.04331 28.4407 1.22214 28.1845C1.31328 28.037 1.40096 27.9281 1.49211 27.7808C1.57979 27.6719 1.62536 27.5982 1.71304 27.4893C1.84283 27.3454 1.9305 27.2365 2.06029 27.0926C2.14796 26.9838 2.27428 26.8784 2.37236 26.6538C2.41794 26.58 2.46005 26.5449 2.54079 26.5133C2.59677 26.3238 2.64928 26.1729 2.74043 26.0255C2.92966 25.6534 3.19269 25.3269 3.4909 25.0425L3.61722 24.9371L3.62762 24.8213C3.67319 24.7476 3.7153 24.7125 3.79604 24.6808C3.83468 24.6843 3.91542 24.6526 3.99616 24.621L4.07344 24.6279C4.19282 24.5997 4.31219 24.5716 4.43158 24.5434C4.67033 24.487 4.91256 24.3921 5.15132 24.3357C6.30994 24.0119 7.42991 23.6846 8.5851 23.3993C9.77884 23.1176 10.934 22.8324 12.0892 22.5471C13.2022 22.297 14.3539 22.0503 15.467 21.8002C16.0217 21.6945 16.5379 21.5851 17.0927 21.4795C17.2507 21.4548 17.4087 21.43 17.5668 21.4053C17.7248 21.3806 17.8828 21.356 18.0408 21.3312C18.1602 21.3031 18.3147 21.3169 18.4727 21.2922C18.5535 21.2606 18.5956 21.2255 18.6764 21.1938C18.9537 21.1409 19.2346 21.0494 19.512 20.9966L19.5506 21C19.5506 21 19.5927 20.9649 19.5962 20.9263C19.6452 20.814 19.7646 20.7858 19.8453 20.7541C19.884 20.7577 19.9648 20.726 20.042 20.733C20.1192 20.7399 20.2001 20.7082 20.2773 20.7152C20.3545 20.7222 20.474 20.694 20.8707 20.6129C22.3701 20.3975 23.8834 20.0277 25.3264 19.5738C26.1269 19.3345 26.8956 19.0145 27.6644 18.6946C27.8294 18.5927 28.0295 18.5328 28.2331 18.4344C28.4367 18.336 28.5982 18.2728 28.8017 18.1743C29.0054 18.0759 29.1703 17.974 29.3739 17.8755C29.4547 17.8439 29.5775 17.7771 29.6582 17.7455C29.6969 17.749 29.7003 17.7103 29.7389 17.7138C30.1075 17.5135 30.4761 17.3132 30.8446 17.1129C31.2132 16.9126 31.5851 16.6736 31.915 16.4699C31.9537 16.4734 31.9958 16.4383 32.0379 16.4032L32.08 16.3679L32.1221 16.3328C32.5749 16.0624 32.989 15.7882 33.4066 15.4757C33.41 15.437 33.41 15.437 33.4136 15.3985C33.417 15.3598 33.4204 15.3213 33.4625 15.2862C33.5012 15.2896 33.5433 15.2545 33.582 15.258C33.6205 15.2614 33.6171 15.3001 33.6557 15.3035C35.1577 14.1935 36.5541 12.9573 37.845 11.5949C37.8484 11.5563 37.887 11.5598 37.8906 11.5212C37.894 11.4826 37.894 11.4826 37.8975 11.444C37.9465 11.3317 38.0308 11.2615 38.1115 11.2298C38.6727 10.6188 39.2374 9.9693 39.7283 9.27416C40.037 8.87399 40.349 8.43517 40.6225 7.99282C40.7592 7.77169 40.8538 7.58567 40.9905 7.36454C41.043 7.21361 41.099 7.02415 41.1515 6.87322C41.5295 5.70111 42.0199 4.57803 42.6614 3.50742C42.9804 2.99141 43.2925 2.55259 43.6819 2.1207C43.6853 2.08211 43.6923 2.00493 43.7344 1.96981C43.8255 1.82237 43.9519 1.71701 44.0817 1.57305C44.2114 1.42909 44.3412 1.28513 44.5097 1.14464C44.6359 1.03928 44.7623 0.933909 44.9272 0.832017C45.2185 0.624763 45.5449 0.459571 45.8679 0.332971C46.2295 0.209851 46.5911 0.0867213 46.9844 0.0442557C47.3005 -0.00515145 47.6517 -0.0124961 47.9993 0.0187509L48.1153 0.0291732C48.5017 0.0638909 48.8811 0.175802 49.2605 0.287713C49.6013 0.396153 49.9 0.539714 50.2338 0.725337C50.9016 1.09659 51.4885 1.4995 52.0651 2.01818C53.1831 3.01348 54.1678 4.19134 55.0262 5.47458C55.9233 6.76123 56.6974 8.11474 57.3487 9.53491C58.6584 12.2983 59.6416 15.2267 60.4281 18.1764C61.1725 21.1613 61.7589 24.1707 62.0679 27.2332C62.2383 28.8048 62.3314 30.3693 62.3824 31.969C62.3982 33.5267 62.3754 35.0809 62.2718 36.6667C62.1717 38.214 61.9943 39.7542 61.645 41.4736Z" fill="white"/>
<path d="M58.7923 20.7536C58.7923 20.7536 52.8153 8.81698 48.0401 9.94405C40.7579 11.6629 39.7581 21.9219 41.6377 31.7784C41.6377 31.7784 35.8099 12.1131 44.5704 3.91313C44.5704 3.91313 49.3129 -1.18526 55.6209 11.4035L58.7923 20.7536Z" fill="#BBBBBA"/>
<path d="M19.7357 41.0536C19.6025 41.2361 19.5044 41.4607 19.2973 41.5977C19.0026 41.8436 18.5707 41.8826 18.1843 41.8478C17.7979 41.8131 17.415 41.7398 17.0183 41.8209C16.6601 41.9055 16.3268 42.1478 16.0707 42.3971C15.2637 43.1416 14.6291 44.135 13.5548 44.3886C13.316 44.445 13.042 44.4593 12.7647 44.5122C11.8165 44.6604 10.8829 45.0823 10.1987 45.76C10.3453 44.9951 10.4568 44.188 10.6035 43.4231C10.6699 43.1179 10.6976 42.809 10.606 42.5285C10.5109 42.2866 10.2964 42.0727 10.0785 41.8975C9.7902 41.6381 9.46327 41.3753 9.17155 41.1546C9.13635 41.1125 9.10115 41.0705 9.06595 41.0284C9.03085 40.9863 9.03773 40.9092 9.04471 40.832C9.069 40.5618 9.05464 40.2881 9.07893 40.0181C9.08935 39.9022 9.10322 39.7479 9.11354 39.632C9.21865 39.3303 9.54508 39.1651 9.82589 39.0736C11.311 38.5846 12.9233 38.8461 14.4792 38.8693C15.2203 38.858 15.9648 38.8083 16.7058 38.7971C17.2922 38.7719 17.8753 38.7855 18.4583 38.799C18.9255 38.802 19.4311 38.8086 19.8983 38.8116C20.1301 38.8325 20.3654 38.8147 20.5972 38.8355C20.7518 38.8494 20.9905 38.7931 21.1381 38.8841C21.363 38.9821 21.3352 39.291 21.2407 39.477C21.1357 39.7787 20.883 39.9894 20.6304 40.2003C20.3777 40.411 20.0023 40.6884 19.7357 41.0536Z" fill="#BBBBBA"/>
<path d="M23.0688 38.2012C22.2366 38.3598 24.6098 37.5227 25.442 37.364C29.2201 36.4975 33.112 36.9639 36.9618 37.4655C37.5027 37.5141 38.0016 37.5979 38.49 37.7974C39.0908 38.0459 39.6005 38.4419 40.2014 38.6903C40.8022 38.9389 41.5397 38.9663 42.0064 38.5414C42.1782 38.3622 42.3185 38.1026 42.4903 37.9234C42.6623 37.7444 42.9114 37.5722 43.1784 37.6351C43.3295 37.6877 43.435 37.8138 43.5405 37.94C44.5921 39.2407 44.9032 40.9804 45.5019 42.5516C45.914 43.6001 46.449 44.5819 47.0226 45.5672C47.026 45.5286 34.7546 36.0222 23.0688 38.2012Z" fill="#BBBBBA"/>
<path d="M46.0833 22.1788C46.0733 22.7226 45.7192 23.1965 45.4422 23.6774C45.1619 24.1968 44.9518 24.8004 44.8577 25.4145C44.8368 25.6461 44.8195 25.839 44.8409 26.0355C44.8621 26.2319 44.9607 26.4354 45.0628 26.6001C45.4922 27.4558 45.883 28.3079 46.6071 28.9176C46.7162 29.0052 46.7865 29.0894 46.8147 29.2086C46.8078 29.2858 46.7201 29.3947 46.6745 29.4683C46.3308 29.8265 45.9166 30.1005 45.4674 30.3325C44.9794 30.561 44.4984 30.7123 44.0105 30.9408C43.3998 31.2361 42.8103 31.7278 42.143 31.7845C42.1044 31.7811 42.0657 31.7776 42.0657 31.7776C42.0271 31.7741 42.0306 31.7355 41.9954 31.6935C41.728 31.2025 41.5026 30.6765 41.3158 30.1539C41.2277 29.8348 41.1395 29.5156 41.0513 29.1965C40.9067 28.6388 40.8042 28.046 40.6596 27.4883C40.5432 27.0499 40.4654 26.6149 40.3912 26.1414C40.3416 25.8257 40.2921 25.5099 40.2812 25.1978C40.2703 24.8855 40.2594 24.5733 40.2485 24.261C40.2376 23.9489 40.2654 23.6401 40.2966 23.2928C40.3243 22.984 40.3521 22.6753 40.3833 22.3279C40.3903 22.2507 40.4006 22.1349 40.5201 22.1068C40.5622 22.0716 40.6008 22.0751 40.6781 22.082C40.7554 22.089 40.8326 22.096 40.9134 22.0643C41.2259 22.0535 41.5736 22.0848 41.8862 22.074C42.2374 22.0666 42.5465 22.0943 42.8977 22.087C43.2103 22.0762 43.558 22.1075 43.8705 22.0967C44.2217 22.0893 44.5309 22.117 44.8821 22.1097C45.1946 22.0989 45.5423 22.1302 45.8549 22.1194C45.848 22.1966 46.0833 22.1788 46.0833 22.1788Z" fill="#BBBBBA"/>
<path d="M3.32326 35.9998C2.50648 34.2534 2.29353 32.2891 2.6953 30.4188C2.88752 29.5802 3.19564 28.7519 3.72519 28.0603C4.25474 27.3687 4.96706 26.8102 5.80617 26.5743C6.40654 26.3949 7.06682 26.4153 7.68851 26.4323C9.08981 26.4415 10.4877 26.4893 11.8959 26.4214C12.6018 26.3681 13.3077 26.3148 13.9571 26.0229C14.4451 25.7944 14.8661 25.4432 15.2871 25.092C16.2169 24.2808 17.0412 23.3433 17.5351 22.1816C16.8362 22.1577 16.1481 22.4461 15.4388 22.5379C14.8453 22.6402 14.2658 22.5881 13.6759 22.6518C12.8085 22.7684 12.001 23.0849 11.1585 23.3593C9.15725 23.9576 7.08176 24.0823 5.09095 24.5648C4.81355 24.6176 4.57133 24.7126 4.32564 24.8461C4.03784 25.0148 3.77827 25.3027 3.59597 25.5976C3.23137 26.1873 3.05304 26.8716 2.87469 27.5559C2.73499 28.2437 2.59529 28.9313 2.45558 29.6191C2.25296 30.5735 2.05033 31.5279 2.23408 32.5172C2.3366 33.1099 2.59714 33.6781 2.4292 34.2466L3.32326 35.9998Z" fill="#BBBBBA"/>
<path d="M14.9694 49.4182C14.9387 50.1934 15.1818 50.9546 15.5058 51.6839C15.6326 52.0066 15.798 52.3327 16.0056 52.6237C16.1779 52.8726 16.3503 53.1216 16.5648 53.3353C16.8075 53.6685 17.015 53.9594 17.2578 54.2924C17.7046 54.9551 18.1513 55.6177 18.5981 56.2804C18.7165 55.3962 18.8771 54.4769 18.5214 53.6668C18.3912 53.3827 18.2222 53.0952 18.0499 52.8463C17.5713 52.1031 17.0963 51.3211 17.0603 50.423C16.982 49.56 17.3322 48.6968 17.3699 47.8442C17.0187 47.8515 16.7027 47.9009 16.3515 47.9083C16.2742 47.9013 16.1934 47.933 16.1582 47.8909C15.972 47.7963 16.0349 47.5297 16.0102 47.3719C15.982 47.2526 15.8061 47.0423 15.7149 47.1897C15.5782 47.4108 15.4801 47.6355 15.3821 47.86C15.284 48.0847 15.1858 48.3093 15.123 48.576C15.0601 48.8427 14.9936 49.148 14.9694 49.4182Z" fill="#BBBBBA"/>
<path d="M39.1247 37.66C39.0648 37.4601 39.0049 37.2602 38.945 37.0603C38.8885 36.8218 38.7934 36.5798 38.7756 36.3448C38.7439 36.2641 38.6701 36.2185 38.5928 36.2116L38.5542 36.2082C38.4348 36.2363 38.3892 36.3101 38.4174 36.4293C38.4353 36.6643 38.4917 36.9028 38.5447 37.1799C38.6012 37.4184 38.6577 37.657 38.7528 37.8989C38.7528 37.8989 38.7528 37.899 38.7492 37.9375C38.9355 38.0321 39.1218 38.1267 39.308 38.2212C39.2446 38.0599 39.1847 37.8599 39.1247 37.66ZM10.5307 26.4532C10.4148 26.4428 10.3341 26.4744 10.2181 26.464L10.2147 26.5027C10.2113 26.5412 10.2499 26.5447 10.2464 26.5833C10.2816 26.6254 10.3202 26.6288 10.3588 26.6323C10.3975 26.6358 10.4361 26.6392 10.4782 26.6041C10.5203 26.569 10.5238 26.5304 10.5307 26.4532C10.5273 26.4918 10.5273 26.4918 10.5307 26.4532ZM62.2718 36.6667C62.3754 35.0809 62.3982 33.5267 62.3824 31.969C62.3314 30.3693 62.2383 28.8048 62.0679 27.2332C61.7589 24.1707 61.1725 21.1613 60.4281 18.1764C59.6416 15.2267 58.6584 12.2983 57.3487 9.53491C56.6974 8.11474 55.9233 6.76123 55.0262 5.47458C54.1678 4.19134 53.1831 3.01348 52.0651 2.01818C51.4885 1.4995 50.9016 1.09659 50.2338 0.725337C49.9 0.539714 49.6013 0.396153 49.2605 0.287713C48.8811 0.175802 48.5017 0.0638909 48.1153 0.0291732L47.9993 0.0187509C47.6517 -0.0124961 47.3005 -0.00515145 46.9844 0.0442557C46.5911 0.0867213 46.2295 0.209851 45.8679 0.332971C45.5449 0.459571 45.2185 0.624763 44.9272 0.832017C44.7623 0.933909 44.6359 1.03928 44.5097 1.14464C44.3412 1.28513 44.2114 1.42909 44.0817 1.57305C43.9519 1.71701 43.8255 1.82237 43.7344 1.96981C43.6923 2.00493 43.6853 2.08211 43.6819 2.1207C43.2925 2.55259 42.9804 2.99141 42.6614 3.50742C42.0199 4.57803 41.5295 5.70111 41.1515 6.87322C41.099 7.02415 41.043 7.21361 40.9905 7.36454C40.8538 7.58567 40.7592 7.77169 40.6225 7.99282C40.349 8.43517 40.037 8.87399 39.7283 9.27416C39.2374 9.9693 38.6727 10.6188 38.1115 11.2298C38.0308 11.2615 37.9465 11.3317 37.8975 11.444C37.894 11.4826 37.894 11.4826 37.8906 11.5212C37.887 11.5598 37.8484 11.5563 37.845 11.5949C36.5541 12.9573 35.1577 14.1935 33.6557 15.3035C33.6171 15.3001 33.6205 15.2614 33.582 15.258C33.5433 15.2545 33.5012 15.2896 33.4625 15.2862C33.4204 15.3213 33.417 15.3598 33.4136 15.3985C33.41 15.437 33.41 15.437 33.4066 15.4757C32.989 15.7882 32.5749 16.0624 32.1221 16.3328L32.08 16.3679L32.0379 16.4032C31.9958 16.4383 31.9537 16.4734 31.915 16.4699C31.5851 16.6736 31.2132 16.9126 30.8446 17.1129C30.4761 17.3132 30.1075 17.5135 29.7389 17.7138C29.7003 17.7103 29.6969 17.749 29.6582 17.7455C29.5775 17.7771 29.4547 17.8439 29.3739 17.8755C29.1703 17.974 29.0054 18.0759 28.8017 18.1743C28.5982 18.2728 28.4367 18.336 28.2331 18.4344C28.0295 18.5328 27.8294 18.5927 27.6644 18.6946C26.8956 19.0145 26.1269 19.3345 25.3264 19.5738C23.8834 20.0277 22.3701 20.3975 20.8707 20.6129C20.474 20.694 20.3545 20.7222 20.2773 20.7152C20.2001 20.7082 20.1192 20.7399 20.042 20.733C19.9648 20.726 19.884 20.7577 19.8453 20.7541C19.7646 20.7858 19.6452 20.814 19.5962 20.9263C19.5927 20.9649 19.5506 21 19.5506 21L19.512 20.9966C19.2346 21.0494 18.9537 21.1409 18.6764 21.1938C18.5956 21.2255 18.5535 21.2606 18.4727 21.2922C18.3147 21.3169 18.1602 21.3031 18.0408 21.3312C17.8828 21.356 17.7248 21.3806 17.5668 21.4053C17.4087 21.43 17.2507 21.4548 17.0927 21.4795C16.5379 21.5852 16.0217 21.6945 15.467 21.8002C14.3539 22.0503 13.2022 22.297 12.0892 22.5471C10.934 22.8324 9.77884 23.1176 8.5851 23.3993C7.42991 23.6846 6.30994 24.0119 5.15132 24.3357C4.91256 24.3921 4.67033 24.487 4.43158 24.5434C4.31219 24.5716 4.19282 24.5997 4.07344 24.6279L3.99616 24.621C3.91542 24.6526 3.83468 24.6843 3.79604 24.6808C3.7153 24.7125 3.67319 24.7476 3.62762 24.8213L3.61722 24.9371L3.4909 25.0425C3.19269 25.3269 2.92966 25.6534 2.74043 26.0255C2.64928 26.1729 2.59677 26.3238 2.54079 26.5133C2.46005 26.5449 2.41794 26.58 2.37236 26.6538C2.27428 26.8784 2.14796 26.9838 2.06029 27.0926C1.9305 27.2365 1.84283 27.3454 1.71304 27.4893C1.62536 27.5982 1.57979 27.6719 1.49211 27.7808C1.40096 27.9281 1.31328 28.037 1.22214 28.1845C1.04331 28.4407 0.94175 28.7039 0.801561 28.9637C0.661372 29.2234 0.559825 29.4867 0.458267 29.7499C0.35672 30.0131 0.293803 30.2797 0.234357 30.5078C0.181843 30.6588 0.164499 30.8517 0.150625 31.006C0.140223 31.1219 0.12982 31.2377 0.0773062 31.3885L0.000997877 32.2376C-0.00593387 32.3148 0.0257654 32.3954 0.0188238 32.4726C0.0118921 32.5498 0.00842139 32.5884 0.0401206 32.6691C0.0648881 32.827 0.0510049 32.9813 0.0757723 33.1391C0.143123 33.6898 0.287756 34.2475 0.47102 34.8088C0.562647 35.0893 0.657744 35.3313 0.791483 35.5768C0.823182 35.6574 0.858352 35.6995 0.890052 35.7801C0.921751 35.8608 0.956921 35.9028 1.02726 35.987C1.09413 36.1097 1.19963 36.2359 1.2665 36.3586C1.43887 36.6076 1.61472 36.8179 1.79056 37.0282C1.8609 37.1124 1.96987 37.2 2.0402 37.284C2.11054 37.3682 2.22298 37.4173 2.29332 37.5013C2.40229 37.5889 2.51127 37.6765 2.62371 37.7256C2.84513 37.8622 3.10518 38.0023 3.3687 38.1038C3.59358 38.2018 3.86058 38.2647 4.08893 38.3241C4.19443 38.4503 4.3034 38.5379 4.37027 38.6607C4.58475 38.8745 4.79923 39.0883 5.05582 39.2669C5.16479 39.3545 5.27377 39.4421 5.38621 39.4912C5.41791 39.5718 5.45308 39.6139 5.56552 39.6629C5.63932 39.7085 5.7166 39.7154 5.79734 39.6837C5.83598 39.6872 5.83598 39.6872 5.87115 39.7293C5.94495 39.7748 6.02569 39.7432 6.10644 39.7115L6.33826 39.7324C6.6508 39.7216 6.99857 39.7528 7.31113 39.742C7.73962 39.7416 8.16802 39.7412 8.59651 39.7407C8.5792 39.9337 8.60054 40.1302 8.58313 40.3232C8.56927 40.4776 8.59749 40.5968 8.58363 40.7512C8.57674 40.8284 8.6084 40.909 8.60142 40.9862C8.5911 41.102 8.61932 41.2213 8.65098 41.3019C8.64754 41.3405 8.68618 41.344 8.68264 41.3825L8.78824 41.5088C8.86198 41.5543 8.93926 41.5613 9.01654 41.5682C9.09726 41.5365 9.17799 41.5048 9.22361 41.4312C9.26225 41.4346 9.29745 41.4767 9.33609 41.4802C9.48367 41.5713 9.59261 41.6589 9.7402 41.75C9.84924 41.8376 9.91954 41.9217 9.9864 42.0444C10.0533 42.1671 10.1201 42.2898 10.1835 42.4512C10.2153 42.5318 10.247 42.6125 10.2365 42.7283C10.2647 42.8475 10.2895 43.0053 10.2757 43.1598C10.2652 43.2755 10.29 43.4334 10.2796 43.5492L10.2033 44.3983C10.1894 44.5526 10.1756 44.707 10.1231 44.8579C10.0636 45.0859 10.0007 45.3527 9.94127 45.5808C9.88876 45.7316 9.83626 45.8826 9.78375 46.0335C9.74511 46.03 9.70293 46.0651 9.69949 46.1037C9.69605 46.1423 9.69605 46.1423 9.73125 46.1844C9.72427 46.2616 9.68219 46.2967 9.67521 46.3739C9.67176 46.4125 9.62968 46.4476 9.62614 46.4862C9.5875 46.4827 9.5875 46.4827 9.54542 46.5178C9.54542 46.5178 9.50334 46.5529 9.4999 46.5916C9.49636 46.6301 9.49636 46.6301 9.53156 46.6722C9.47905 46.8231 9.38791 46.9706 9.3354 47.1214C9.23384 47.3846 9.09363 47.6444 8.9956 47.8691C8.94998 47.9427 8.94654 47.9814 8.90091 48.0551C8.76425 48.2762 8.66612 48.5008 8.49081 48.7185C8.48737 48.7571 8.44873 48.7536 8.44519 48.7922C8.44519 48.7922 8.40311 48.8273 8.39966 48.866C8.39966 48.866 8.39966 48.866 8.39622 48.9045C8.2629 49.0871 8.12967 49.2696 8.03508 49.4556C7.85624 49.7119 7.71947 49.9331 7.57936 50.1928C7.43915 50.4526 7.29894 50.7123 7.15873 50.972C7.01853 51.2318 6.91696 51.495 6.81549 51.7582C6.71392 52.0214 6.651 52.2881 6.54944 52.5513C6.38496 53.0813 6.25567 53.6532 6.16501 54.2286C6.10209 54.4953 6.0778 54.7654 6.05006 55.0743C6.02578 55.3443 6.0015 55.6145 6.01586 55.8882C6.02328 56.239 6.07281 56.5547 6.1575 56.9124C6.2209 57.0737 6.2843 57.2351 6.3477 57.3963C6.3794 57.4771 6.4111 57.5577 6.48144 57.6419C6.47797 57.6804 6.51661 57.6839 6.51314 57.7225C6.50967 57.7611 6.47104 57.7576 6.46756 57.7962C6.42199 57.87 6.45369 57.9506 6.48539 58.0312C6.51709 58.1119 6.59092 58.1575 6.66466 58.203C6.7033 58.2064 6.7033 58.2064 6.74194 58.21C6.78058 58.2134 6.85787 58.2204 6.89995 58.1853C6.98077 58.1536 7.06149 58.122 7.18086 58.0937C7.38094 58.034 7.58113 57.9741 7.78122 57.9143C7.90058 57.8861 8.01994 57.858 8.17451 57.8718C8.25523 57.8402 8.37115 57.8506 8.44843 57.8576C8.79964 57.8502 9.10877 57.8779 9.45998 57.8707L10.4645 57.9609C10.8122 57.9922 11.1213 58.0199 11.4725 58.0126L14.3703 58.273C14.3669 58.3116 14.402 58.3537 14.4372 58.3957C14.4688 58.4764 14.504 58.5185 14.5392 58.5605C14.613 58.6061 14.6903 58.613 14.7675 58.62C15.1292 58.4969 15.4486 58.4089 15.7716 58.2822C16.056 58.1521 16.3755 58.0642 16.6598 57.9341C16.9441 57.804 17.225 57.7125 17.4707 57.579C17.755 57.4489 18.0429 57.2802 18.292 57.1082C18.4148 57.0414 18.5412 56.936 18.6323 56.7885C18.7655 56.606 18.8215 56.4165 18.8389 56.2235C18.8527 56.0692 18.9053 55.9183 18.9191 55.7639C18.933 55.6095 18.9504 55.4165 18.9256 55.2587C18.9008 55.1008 18.9147 54.9464 18.8865 54.8272C18.8617 54.6694 18.8369 54.5116 18.8087 54.3923C18.7205 54.0731 18.6324 53.7539 18.5408 53.4734C18.4491 53.1928 18.3189 52.9087 18.1851 52.6633C18.1183 52.5406 18.0162 52.3758 17.9494 52.253C17.8825 52.1303 17.777 52.0041 17.7066 51.92C17.6397 51.7973 17.5729 51.6746 17.5026 51.5904C17.4357 51.4677 17.4074 51.3484 17.3792 51.2291C17.351 51.1099 17.3262 50.9521 17.298 50.8328C17.2698 50.7135 17.2802 50.5977 17.252 50.4785C17.2658 50.3241 17.2376 50.2048 17.2515 50.0505L17.2896 49.626C17.3491 49.3979 17.4119 49.1311 17.5101 48.9066C17.573 48.6399 17.671 48.4152 17.7726 48.152C17.8919 48.1238 18.05 48.0991 18.1694 48.071C18.2888 48.0428 18.4081 48.0146 18.5275 47.9865C18.6469 47.9582 18.8049 47.9336 18.9278 47.8668C18.9173 47.9825 18.9876 48.0667 19.1036 48.0771C19.2195 48.0875 19.3038 48.0173 19.3141 47.9015L19.3765 47.2069C19.3869 47.091 19.4008 46.9367 19.3726 46.8174C19.3444 46.6981 19.2775 46.5754 19.1686 46.4878C19.0982 46.4037 18.9892 46.3161 18.9224 46.1934C18.8907 46.1127 18.8203 46.0286 18.7886 45.9479C18.7252 45.7866 18.7425 45.5936 18.7177 45.4358C18.7 45.2008 18.7174 45.0078 18.7381 44.7762L18.7694 44.4289C18.808 44.4323 18.8115 44.3938 18.8501 44.3972C18.8922 44.3621 18.9378 44.2884 18.9447 44.2112C18.9621 44.0183 19.0215 43.7901 19.0389 43.5971C19.0492 43.4813 19.0983 43.369 19.1087 43.2533C19.1646 43.0637 19.2207 42.8743 19.2766 42.6848C19.3222 42.6111 19.3326 42.4952 19.3782 42.4216C19.4237 42.3479 19.4728 42.2356 19.5184 42.1618C19.5674 42.0495 19.6551 41.9407 19.7007 41.867C19.7883 41.7581 19.8373 41.6458 19.9251 41.537C20.1004 41.3193 20.2371 41.0982 20.4511 40.8839C20.623 40.7049 20.8301 40.5678 20.9985 40.4274C21.1213 40.3606 21.2055 40.2904 21.3284 40.2236C21.4899 40.1603 21.6162 40.055 21.7812 39.953C21.9461 39.8511 22.0724 39.7457 22.1636 39.5984C22.2092 39.5246 22.2547 39.4509 22.2651 39.3351C22.3879 39.2684 22.4756 39.1595 22.4895 39.0052C22.4929 38.9665 22.4965 38.928 22.4613 38.8859L22.4999 38.8894C22.7773 38.8365 23.0512 38.8222 23.3287 38.7693C23.9186 38.7056 24.5086 38.6419 25.0951 38.6168C25.1723 38.6238 25.2917 38.5956 25.369 38.6025C25.5235 38.6164 25.6429 38.5882 25.7975 38.6022C25.952 38.616 26.11 38.5913 26.2646 38.6052C26.5772 38.5944 26.9248 38.6257 27.2374 38.6148C27.8977 38.6353 28.5545 38.6943 29.2113 38.7533C30.4864 38.8679 31.751 39.0983 33.0121 39.3672C33.0894 39.3742 33.1667 39.3811 33.2019 39.4231C33.8518 39.5594 34.4981 39.7342 35.1411 39.9476C35.482 40.0561 35.8228 40.1645 36.1635 40.2729C36.3146 40.3255 36.4657 40.3779 36.6167 40.4304C36.8065 40.4863 36.9575 40.5388 37.1438 40.6334C37.446 40.7383 37.7447 40.8819 38.0855 40.9903L38.1206 41.0324C38.1558 41.0745 38.2682 41.1234 38.3103 41.0883C39.2133 41.4418 40.0708 41.869 40.9282 42.2962C41.5608 42.6254 42.1512 42.9898 42.7803 43.3575C43.3707 43.7218 43.9577 44.1247 44.5412 44.5662L44.5799 44.5698C45.2372 45.0567 45.891 45.5824 46.5027 46.1431C46.8261 46.4446 47.111 46.7425 47.3958 47.0404C47.5048 47.128 47.6559 47.1805 47.7821 47.0751C47.8243 47.04 47.8278 47.0015 47.8698 46.9663C48.4994 47.7621 49.2097 48.5263 50.0042 49.2201C50.2925 49.4795 50.5842 49.7002 50.8795 49.8823C51.2099 50.1066 51.5438 50.2922 51.8776 50.4779C52.5488 50.8105 53.3077 51.0343 54.0418 51.1002C54.3895 51.1315 54.7406 51.1242 55.0988 51.0397C55.4921 50.9972 55.8537 50.8741 56.1767 50.7475C56.4996 50.6209 56.8296 50.4171 57.1174 50.2485C57.4473 50.0447 57.7034 49.7953 57.9981 49.5495C59.0646 48.517 59.8043 47.2218 60.3541 45.8707C60.9461 44.4843 61.3553 42.9648 61.645 41.4736C61.9943 39.7542 62.1717 38.214 62.2718 36.6667ZM46.1571 23.1188C46.28 23.052 46.3607 23.0204 46.4835 22.9536C46.4835 22.9536 46.4835 22.9536 46.5221 22.957C46.5117 23.0729 46.6207 23.1605 46.7331 23.2094C46.8104 23.2164 46.8456 23.2585 46.9194 23.304C46.9932 23.3495 47.1057 23.3986 47.176 23.4827L47.4574 23.8192C47.4925 23.8613 47.5242 23.9419 47.5593 23.984C47.5911 24.0647 47.6262 24.1067 47.658 24.1875C47.7248 24.3102 47.753 24.4294 47.7812 24.5487C47.8412 24.7486 47.9011 24.9485 47.9576 25.187C47.9859 25.3063 48.0141 25.4255 48.0037 25.5413C48.0319 25.6605 48.025 25.7377 48.0146 25.8535C48.0041 25.9693 48.0358 26.05 48.0254 26.1657L47.9908 26.5516C47.9699 26.7833 47.9104 27.0113 47.8897 27.2429C47.8827 27.3201 47.8372 27.3938 47.8268 27.5096C47.7708 27.6991 47.7182 27.85 47.6236 28.036C47.5325 28.1834 47.4413 28.3309 47.3116 28.4748C47.266 28.5486 47.1852 28.5802 47.1397 28.6539C47.1011 28.6504 47.0976 28.6891 47.059 28.6855L46.7498 28.6578C46.7112 28.6543 46.6374 28.6087 46.5987 28.6053C46.4511 28.5142 46.3036 28.4231 46.1946 28.3355C46.0856 28.2479 45.9801 28.1217 45.9132 27.999C45.8147 27.7956 45.7161 27.5923 45.6596 27.3537C45.568 27.0731 45.5116 26.8346 45.4586 26.5575C45.4338 26.3997 45.409 26.2418 45.3842 26.084C45.3595 25.9261 45.3312 25.8069 45.3451 25.6526C45.3239 25.4561 45.3412 25.2631 45.3585 25.0701L45.3897 24.7228C45.3966 24.6456 45.4036 24.5685 45.4491 24.4947C45.4561 24.4175 45.5017 24.3438 45.5121 24.228C45.5681 24.0385 45.6241 23.849 45.7186 23.663C45.8098 23.5155 45.8975 23.4067 45.9886 23.2593C46.0343 23.1855 46.115 23.1539 46.1571 23.1188ZM3.15721 37.4234C2.86198 37.2413 2.56677 37.0591 2.31365 36.8418C2.13434 36.67 1.95849 36.4597 1.78265 36.2494C1.64197 36.0812 1.54341 35.8777 1.40274 35.7095C1.3324 35.6253 1.3007 35.5447 1.269 35.464C1.20213 35.3413 1.17043 35.2607 1.10356 35.138C1.00499 34.9345 0.945063 34.7346 0.885135 34.5347C0.821727 34.3734 0.796969 34.2155 0.733571 34.0542C0.708803 33.8963 0.645405 33.7351 0.624108 33.5386C0.574583 33.2229 0.528529 32.8686 0.521105 32.5177C0.534979 32.3634 0.50675 32.2441 0.520624 32.0897L0.562244 31.6266C0.576117 31.4723 0.593461 31.2793 0.645965 31.1285C0.659839 30.974 0.712353 30.8232 0.726226 30.6688C0.77874 30.5179 0.827784 30.4056 0.880288 30.2547C0.932802 30.1037 0.985317 29.9528 1.03782 29.8019C1.14284 29.5001 1.2865 29.2018 1.42669 28.942C1.56341 28.7209 1.65803 28.5349 1.79475 28.3137C1.88243 28.2049 1.97011 28.0961 2.02262 27.9452C2.06472 27.91 2.1103 27.8363 2.11377 27.7977C2.15587 27.7626 2.15934 27.724 2.20144 27.6888C2.08949 28.0679 2.0127 28.4889 1.97801 28.8749C1.88388 29.4889 1.82838 30.1064 1.81153 30.7274L1.79419 30.9203C1.78725 30.9976 1.78031 31.0748 1.81548 31.1167C1.83677 31.3132 1.85807 31.5096 1.84419 31.664C1.85509 31.9763 1.90461 32.292 1.91897 32.5656C1.96849 32.8812 1.98285 33.1549 2.03238 33.4706C2.08191 33.7863 2.13491 34.0634 2.22306 34.3826C2.24783 34.5404 2.31123 34.7018 2.37463 34.863C2.43802 35.0244 2.50142 35.1857 2.52619 35.3435C2.61783 35.6242 2.7481 35.9082 2.87836 36.1923C3.00863 36.4763 3.14237 36.7217 3.31127 37.0092C3.40984 37.2127 3.51188 37.3774 3.64909 37.5843C3.498 37.5318 3.34692 37.4793 3.15721 37.4234ZM7.02924 38.9775C6.79396 38.9951 6.52007 39.0095 6.28478 39.0272C6.16887 39.0168 6.08813 39.0484 5.97221 39.038L5.93357 39.0346C5.78597 38.9435 5.63836 38.8524 5.52938 38.7648C5.45558 38.7193 5.38524 38.6352 5.2728 38.5861C5.31144 38.5897 5.35007 38.5931 5.43081 38.5614C5.47292 38.5263 5.51502 38.4912 5.5606 38.4175C5.60964 38.3052 5.54624 38.1439 5.4338 38.0948C5.1351 37.9513 4.82948 37.8849 4.52732 37.78C4.38665 37.6116 4.24597 37.4434 4.1474 37.24C3.91164 36.8298 3.67586 36.4195 3.47872 36.0127C3.28158 35.606 3.12656 35.1641 2.97152 34.7222C2.9433 34.603 2.91506 34.4837 2.84819 34.361C2.82343 34.2031 2.7952 34.0838 2.73179 33.9226C2.6788 33.6454 2.62581 33.3683 2.57282 33.0913C2.55152 32.8948 2.53022 32.6984 2.50893 32.5019C2.46287 32.1477 2.45545 31.7967 2.40939 31.4425C2.39504 31.1689 2.38067 30.8952 2.40496 30.625C2.42923 30.3549 2.41834 30.0427 2.48126 29.776C2.50207 29.5445 2.51942 29.3515 2.53676 29.1586C2.54369 29.0814 2.55063 29.0041 2.59967 28.8918C2.66605 28.5865 2.69033 28.3164 2.75672 28.0111C2.76712 27.8953 2.81616 27.783 2.82658 27.6672C2.83351 27.59 2.88255 27.4777 2.88949 27.4005C2.89642 27.3234 2.942 27.2496 2.94894 27.1724C2.9524 27.1339 2.99798 27.0601 3.00144 27.0215L3.00491 26.983C3.12776 26.9162 3.21891 26.7687 3.15551 26.6075C3.15551 26.6075 3.15551 26.6075 3.15898 26.5688C3.20802 26.4565 3.25359 26.3828 3.30264 26.2705C3.43935 26.0494 3.57261 25.8668 3.7445 25.6878C3.91292 25.5473 4.04617 25.3647 4.25323 25.2277L4.29187 25.2312C4.44988 25.2065 4.56927 25.1783 4.72728 25.1536C5.04331 25.1041 5.35934 25.0548 5.67538 25.0053C5.87203 24.9841 6.11079 24.9277 6.30744 24.9065C6.20589 25.1697 6.10087 25.4715 6.03795 25.7382C5.9364 26.0014 5.87695 26.2295 5.81403 26.4962C5.81056 26.5348 5.81056 26.5348 5.8071 26.5734C5.74418 26.8401 5.68127 27.1068 5.61835 27.3734C5.55543 27.6402 5.53462 27.8717 5.51034 28.1419C5.41968 28.7173 5.37112 29.2577 5.3191 29.8365C5.29482 30.1067 5.27053 30.3769 5.2849 30.6505C5.26061 30.9206 5.27151 31.2329 5.28586 31.5065C5.27546 31.6222 5.30022 31.7801 5.32846 31.8994C5.35669 32.0187 5.34281 32.173 5.37104 32.2923C5.42404 32.5694 5.43839 32.843 5.49139 33.1201C5.54438 33.3971 5.56221 33.6322 5.65385 33.9128C5.70684 34.1899 5.79847 34.4704 5.89009 34.751C5.98173 35.0317 6.07683 35.2736 6.16847 35.5541C6.26356 35.7961 6.35866 36.0382 6.45376 36.2802C6.68256 36.7676 6.91145 37.255 7.18233 37.7073C7.28439 37.8721 7.38645 38.0369 7.48851 38.2017C7.59057 38.3665 7.73471 38.4962 7.83667 38.6609C7.90707 38.7451 7.97737 38.8292 8.04767 38.9133C7.69656 38.9207 7.38399 38.9315 7.02924 38.9775ZM8.75363 38.8601C8.57429 38.6883 8.43359 38.5201 8.25424 38.3483C8.14874 38.2221 8.04325 38.0959 7.93775 37.9697C7.83224 37.8435 7.76194 37.7594 7.69508 37.6366C7.42411 37.1843 7.15667 36.6934 6.92433 36.2446C6.79061 35.9992 6.69554 35.7572 6.60036 35.5152C6.50531 35.2732 6.4102 35.0313 6.3151 34.7893C6.24824 34.6665 6.22348 34.5087 6.16007 34.3473C6.13184 34.2281 6.10014 34.1474 6.07191 34.0282C6.04368 33.9089 6.01892 33.7511 5.99069 33.6318C5.93422 33.3933 5.9164 33.1583 5.85993 32.9198C5.78565 32.4463 5.75346 31.9375 5.67917 31.464C5.68958 31.3482 5.66481 31.1904 5.67522 31.0746C5.68562 30.9588 5.69603 30.843 5.67127 30.6852L5.74411 29.8747C5.79613 29.2958 5.88332 28.759 5.93535 28.18C6.0156 27.7204 6.09586 27.2607 6.1796 26.7625C6.18653 26.6853 6.23557 26.573 6.24598 26.4572C6.30196 26.2677 6.35446 26.1168 6.40698 25.9659C6.51547 25.6255 6.62396 25.2851 6.77459 24.9095L6.78845 24.7552C6.9851 24.7339 7.18518 24.6742 7.42047 24.6564C8.41068 24.4731 9.36224 24.2862 10.3525 24.1029L10.2137 25.6467C10.1894 25.9168 10.2072 26.1518 10.2181 26.464L10.2147 26.5027C10.2113 26.5412 10.2499 26.5447 10.2464 26.5833C10.2816 26.6254 10.3202 26.6288 10.3588 26.6323C10.3975 26.6358 10.4361 26.6392 10.4782 26.6041C10.5203 26.569 10.5238 26.5304 10.5273 26.4918L10.5307 26.4532C10.5198 26.141 10.5476 25.8323 10.5753 25.5235L10.7071 24.0569C10.7878 24.0253 10.9037 24.0356 10.9846 24.0041C11.2619 23.9512 11.5393 23.8983 11.778 23.8419L11.7677 23.9577C11.7607 24.0349 11.7537 24.112 11.7082 24.1858L11.6145 25.2278C11.6111 25.2664 11.6042 25.3436 11.6393 25.3857C11.6324 25.4629 11.7062 25.5084 11.787 25.4768C11.8256 25.4802 11.8291 25.4417 11.8677 25.4451C11.8711 25.4066 11.8746 25.3679 11.8746 25.3679L11.9509 24.5189C11.9717 24.2873 12.0312 24.0592 12.0485 23.8662C12.4453 23.7852 12.8421 23.7041 13.281 23.588L13.2775 23.6265C13.2706 23.7037 13.2285 23.7388 13.2215 23.816L13.2111 23.9318C13.2007 24.0475 13.1551 24.1213 13.1447 24.2371L13.0996 24.7388C13.0961 24.7774 13.1313 24.8195 13.17 24.8229C13.2086 24.8265 13.2507 24.7913 13.2542 24.7527L13.2958 24.2896C13.3062 24.1738 13.3552 24.0615 13.3656 23.9457C13.3726 23.8685 13.4216 23.7562 13.4286 23.679C13.432 23.6404 13.4355 23.6018 13.4776 23.5667C13.8744 23.4856 14.2326 23.4011 14.6293 23.3201C14.5768 23.471 14.5629 23.6253 14.5104 23.7763C14.5034 23.8535 14.4544 23.9657 14.4475 24.0429C14.4441 24.0816 14.4441 24.0816 14.4792 24.1235C14.4792 24.1235 14.5144 24.1656 14.553 24.1691C14.5916 24.1726 14.5916 24.1726 14.6337 24.1375C14.6758 24.1023 14.6758 24.1023 14.6793 24.0638L14.6828 24.0251C14.7457 23.7585 14.8051 23.5304 14.868 23.2637C15.7002 23.105 16.5008 22.8657 17.2978 22.665C17.3785 22.6334 17.4592 22.6017 17.5365 22.6087C17.3508 22.9421 17.1649 23.2756 17.0178 23.6126C16.8742 23.9109 16.7271 24.2478 16.622 24.5496C16.517 24.8514 16.4085 25.1918 16.3035 25.4936C16.251 25.6445 16.195 25.834 16.1811 25.9884C16.1286 26.1393 16.1148 26.2936 16.0588 26.4832C15.9889 26.827 15.9577 27.1744 15.9265 27.5218L15.8849 27.9849C15.8676 28.1778 15.8922 28.3357 15.8784 28.4901C15.8859 28.8409 15.9319 29.1951 15.9393 29.5459C15.9641 29.7039 15.9888 29.8617 16.0101 30.0581C16.0349 30.216 16.0597 30.3738 16.0845 30.5316C16.1339 30.8473 16.2221 31.1665 16.2717 31.4822C16.4445 32.1592 16.6208 32.7975 16.913 33.4462C17.0399 33.7689 17.1701 34.053 17.3391 34.3405C17.5044 34.6666 17.6734 34.9541 17.8388 35.2802C17.9023 35.4416 18.0078 35.5677 18.1097 35.7325C18.2118 35.8973 18.3173 36.0235 18.3807 36.1848C18.5883 36.4758 18.7572 36.7633 18.9682 37.0157C19.035 37.1384 19.144 37.226 19.253 37.3136C19.3585 37.4399 19.5027 37.5696 19.6116 37.6572C19.8296 37.8324 20.0475 38.0076 20.2654 38.1828C20.413 38.2739 20.5255 38.3228 20.6731 38.414C20.7117 38.4174 20.7117 38.4174 20.7469 38.4595C20.5924 38.4456 20.4378 38.4317 20.2798 38.4564C19.6581 38.4394 19.033 38.4611 18.4079 38.4827C17.6669 38.4939 16.9224 38.5438 16.1813 38.555C16.111 38.4708 16.0793 38.3902 16.009 38.306C15.9421 38.1833 15.84 38.0185 15.7732 37.8958C15.738 37.8537 15.7063 37.773 15.6711 37.731C15.6395 37.6503 15.5726 37.5276 15.5408 37.447C15.5056 37.4049 15.4705 37.3628 15.4774 37.2856C15.4458 37.205 15.414 37.1243 15.3789 37.0822C15.3155 36.9209 15.2521 36.7596 15.15 36.5948C15.0832 36.4721 15.0549 36.3528 14.9881 36.2301C14.9529 36.188 14.9178 36.146 14.8791 36.1425C14.8405 36.139 14.8405 36.139 14.7984 36.1742C14.7176 36.2057 14.7107 36.2829 14.7424 36.3636C14.8374 36.6056 14.9361 36.809 15.0346 37.0124C15.0629 37.1316 15.1332 37.2158 15.1614 37.3351C15.1966 37.3771 15.1931 37.4157 15.2283 37.4578C15.26 37.5384 15.3303 37.6226 15.362 37.7032C15.3938 37.7838 15.4289 37.8259 15.4606 37.9066C15.5275 38.0293 15.6295 38.1941 15.6964 38.3168C15.7667 38.401 15.7984 38.4816 15.8687 38.5658C15.5562 38.5766 15.2436 38.5874 14.931 38.5982C14.6354 37.988 14.3431 37.3393 14.0509 36.6906C14.0157 36.6485 13.9806 36.6064 13.9033 36.5994C13.8646 36.596 13.8646 36.596 13.8226 36.6311C13.7417 36.6627 13.6928 36.775 13.7244 36.8557C13.8899 37.1819 14.0518 37.5466 14.2173 37.8727C14.351 38.1181 14.4848 38.3635 14.615 38.6476C14.5764 38.6441 14.5378 38.6407 14.5378 38.6407C13.6387 38.6766 12.7396 38.7125 11.8371 38.787C11.5632 38.8014 11.2893 38.8156 11.0153 38.8299L10.9767 38.8264C10.8994 38.8194 10.8221 38.8126 10.7414 38.8441C10.0846 38.7851 9.42084 38.8033 8.75363 38.8601ZM15.4398 56.774C15.3977 56.8091 15.3521 56.8828 15.31 56.9179C15.1381 57.097 14.9662 57.2761 14.7978 57.4166L12.3636 57.1978C12.016 57.1666 11.6682 57.1353 11.317 57.1427C10.9693 57.1114 10.6568 57.1222 10.309 57.091C9.96123 57.0598 9.61356 57.0285 9.26235 57.0358C9.10778 57.0219 8.91114 57.0432 8.75658 57.0293C8.55993 57.0505 8.36673 57.0331 8.13144 57.0509C7.97344 57.0756 7.81543 57.1003 7.65743 57.1251C7.49942 57.1497 7.33788 57.2131 7.17987 57.2377C7.14123 57.2343 7.09915 57.2694 7.06051 57.266C6.92335 57.0591 6.82473 56.8557 6.76475 56.6558C6.67666 56.3366 6.63054 55.9823 6.61973 55.6701C6.63703 55.4771 6.61226 55.3193 6.62966 55.1263L6.68167 54.5473C6.71284 54.2001 6.78275 53.8561 6.85256 53.5123C6.91548 53.2457 6.97497 53.0175 7.07644 52.7543C7.13592 52.5262 7.23749 52.263 7.29688 52.0349C7.395 51.8102 7.45793 51.5436 7.5946 51.3225C7.69272 51.0978 7.82949 50.8767 7.93096 50.6134C8.07117 50.3537 8.20794 50.1326 8.3446 49.9114C8.48481 49.6517 8.66022 49.434 8.79689 49.2128C8.84251 49.1392 8.93012 49.0304 8.97574 48.9566C9.31997 49.0264 9.66429 49.0963 10.0085 49.1661C10.0472 49.1696 10.0858 49.1731 10.0892 49.1345C10.1313 49.0994 10.1313 49.0994 10.1349 49.0607C10.1383 49.0222 10.1417 48.9836 10.1031 48.9801C10.068 48.938 10.068 48.938 10.0294 48.9346C9.76232 48.8717 9.49537 48.8087 9.26697 48.7494C9.22833 48.7459 9.15105 48.7389 9.11595 48.6968C9.16147 48.6231 9.21053 48.5108 9.25615 48.4371C9.30168 48.3634 9.34376 48.3282 9.35074 48.2511C9.74059 48.2472 10.1269 48.2819 10.5554 48.2815C10.6713 48.292 10.7486 48.2989 10.868 48.2707C10.9066 48.2742 10.91 48.2356 10.91 48.2356C10.9136 48.197 10.8749 48.1935 10.8749 48.1935C10.4885 48.1588 10.0987 48.1627 9.70883 48.1666L9.43844 48.1422C9.52959 47.9948 9.58209 47.8439 9.67668 47.6579C9.7223 47.5842 9.76783 47.5105 9.77481 47.4333C10.3227 47.4047 10.8705 47.3761 11.3832 47.3055C11.4218 47.3089 11.4639 47.2738 11.4673 47.2353C11.5095 47.2001 11.513 47.1615 11.4778 47.1195C11.4812 47.0808 11.4461 47.0388 11.4075 47.0353C11.3688 47.0318 11.3723 46.9932 11.3336 46.9898L11.295 46.9863C10.8244 47.0218 10.3573 47.0188 9.8867 47.0543C9.9392 46.9033 10.0303 46.756 10.0864 46.5665C10.4306 46.6363 10.7748 46.7061 11.1192 46.776C11.5407 46.8528 11.9622 46.9296 12.3838 47.0064C12.4611 47.0133 12.5383 47.0202 12.6121 47.0658C12.6507 47.0692 12.6928 47.0341 12.6964 46.9956C12.6998 46.9569 12.6998 46.9569 12.6646 46.9148C12.6646 46.9148 12.6294 46.8728 12.5909 46.8693C12.3625 46.8099 12.1693 46.7925 11.941 46.7331C11.7126 46.6737 11.5193 46.6564 11.291 46.5969C10.9082 46.5236 10.5252 46.4503 10.1423 46.3769C10.188 46.3033 10.2369 46.1909 10.2439 46.1137C10.2473 46.0752 10.2473 46.0752 10.2894 46.0401C10.6758 46.0748 11.027 46.0674 11.4135 46.1021C11.7998 46.1368 12.1896 46.133 12.6147 46.1711L12.8464 46.192C12.885 46.1955 12.9271 46.1603 12.9307 46.1218C12.9341 46.0831 12.8989 46.041 12.8603 46.0376C12.3967 45.9959 11.9682 45.9963 11.5046 45.9547C11.1182 45.92 10.767 45.9273 10.3806 45.8926C10.4331 45.7417 10.4435 45.6259 10.496 45.475C10.4995 45.4364 10.503 45.3978 10.5451 45.3627C10.6501 45.0609 10.6744 44.7907 10.7407 44.4855L10.8379 43.4048C10.8483 43.289 10.8201 43.1697 10.8305 43.054C10.8444 42.8996 10.8196 42.7417 10.7948 42.5839C10.7631 42.5033 10.77 42.4261 10.7384 42.3454C10.6502 42.0262 10.5199 41.7422 10.3055 41.5284C10.2 41.4022 10.0558 41.2725 9.94677 41.1849C9.80263 41.0552 9.65505 40.9642 9.46538 40.9082C9.39154 40.8627 9.31426 40.8557 9.27906 40.8136C9.29647 40.6207 9.27169 40.4628 9.28899 40.2699C9.30984 40.0384 9.2885 39.8419 9.30935 39.6104C10.5175 39.6022 11.7256 39.594 12.9338 39.5859C14.2192 39.5847 15.4695 39.5414 16.7584 39.5016C17.1482 39.4978 17.5381 39.4939 17.9314 39.4515C17.8893 39.4866 17.8823 39.5637 17.8402 39.5989C17.6966 39.8972 17.5529 40.1956 17.4092 40.4939C17.2621 40.8308 17.1571 41.1326 17.01 41.4695C16.9575 41.6205 16.9084 41.7327 16.8173 41.8801C16.7226 42.0662 16.6666 42.2557 16.5721 42.4417C16.4284 42.7401 16.3234 43.0418 16.2148 43.3823C16.1064 43.7227 15.9592 44.0596 15.8508 44.4C15.6372 45.0422 15.3851 45.6809 15.1715 46.3231C15.0631 46.6635 14.916 47.0005 14.8075 47.3409C14.7549 47.4918 14.7024 47.6427 14.6465 47.8322C14.594 47.9831 14.5449 48.0954 14.5311 48.2498C14.4786 48.4007 14.4647 48.5551 14.4508 48.7094C14.4334 48.9024 14.4548 49.0989 14.4374 49.2918C14.4621 49.4497 14.4869 49.6075 14.5117 49.7653C14.5365 49.9232 14.5577 50.1197 14.6211 50.2809C14.6811 50.4809 14.741 50.6808 14.8044 50.8422C14.8995 51.0841 14.9947 51.3261 15.0897 51.5681C15.2235 51.8135 15.3151 52.0941 15.4488 52.3395C15.6811 52.7883 15.8713 53.2724 16.0229 53.7528C16.0546 53.8335 16.0511 53.8721 16.0828 53.9528C16.1076 54.1106 16.1358 54.2299 16.1219 54.3842C16.1081 54.5386 16.1363 54.6579 16.1224 54.8122L16.0808 55.2753C16.0739 55.3525 16.0704 55.3911 16.0248 55.4649C15.9723 55.6157 15.9198 55.7666 15.8707 55.879C15.8252 55.9527 15.8218 55.9913 15.7761 56.0651C15.7271 56.1773 15.6815 56.2511 15.6359 56.3247L15.6781 56.2896C15.6607 56.4826 15.5696 56.63 15.4398 56.774ZM17.3679 47.4542C16.9711 47.5354 16.5779 47.5778 16.181 47.6589C16.1914 47.543 16.1984 47.4658 16.2475 47.3536C16.3104 47.0869 16.3698 46.8588 16.4714 46.5956C16.4783 46.5184 16.5239 46.4447 16.5309 46.3675C16.5343 46.3289 16.5764 46.2937 16.5798 46.2552C16.6289 46.1429 16.6779 46.0305 16.7235 45.9569C16.727 45.9182 16.7725 45.8445 16.8146 45.8094C16.8182 45.7709 16.8602 45.7357 16.8637 45.6971C16.9584 45.5111 17.0916 45.3285 17.1896 45.1039L17.1793 45.2197C17.1653 45.374 17.1936 45.4933 17.2183 45.6512C17.2466 45.7705 17.2713 45.9283 17.2996 46.0475C17.3279 46.1668 17.3913 46.3281 17.4195 46.4473C17.4477 46.5666 17.5146 46.6893 17.5814 46.8121C17.6483 46.9348 17.7152 47.0575 17.782 47.1802C17.8138 47.2609 17.8875 47.3065 17.9193 47.3871C17.7261 47.3698 17.5646 47.433 17.3679 47.4542ZM18.8772 46.6951C18.9124 46.7372 18.9511 46.7406 18.9476 46.7793C18.9476 46.7793 18.9441 46.8178 18.9827 46.8212C18.9793 46.8599 18.9758 46.8984 19.0145 46.902L18.9902 47.1721L18.8743 47.1617C18.8356 47.1582 18.8356 47.1582 18.797 47.1548C18.7163 47.1864 18.6004 47.176 18.5196 47.2077C18.4492 47.1235 18.3789 47.0393 18.3086 46.9553C18.2382 46.8711 18.2066 46.7905 18.1363 46.7063C18.0693 46.5836 18.0025 46.4609 17.9356 46.3381C17.8687 46.2154 17.8405 46.0961 17.7737 45.9734C17.7172 45.7349 17.6607 45.4964 17.6429 45.2614C17.6285 44.9877 17.6528 44.7175 17.6771 44.4474C17.6805 44.4088 17.6805 44.4088 17.6841 44.3703C17.7752 44.2228 17.8628 44.1139 17.9153 43.9631C17.9575 43.9279 17.9644 43.8507 17.9678 43.8122L18.0065 43.8156C18.0873 43.784 18.1645 43.7909 18.2453 43.7593C18.2418 43.7978 18.2383 43.8365 18.2735 43.8785C18.2775 44.2679 18.2393 44.6925 18.2398 45.1205C18.2576 45.3555 18.272 45.6292 18.2898 45.8642C18.3215 45.9448 18.3532 46.0255 18.3849 46.1061C18.4131 46.2254 18.5221 46.313 18.5889 46.4357C18.6593 46.5199 18.7683 46.6075 18.8772 46.6951ZM21.2363 39.515C21.0713 39.6169 20.9485 39.6837 20.8256 39.7505C20.5378 39.9191 20.2886 40.0913 20.0747 40.3055C19.8607 40.5196 19.6433 40.7724 19.461 41.0673C19.3733 41.1761 19.3242 41.2884 19.2365 41.3973C19.1454 41.5448 19.0576 41.6536 19.0051 41.8044L19.0017 41.8431C18.8546 42.18 18.7074 42.5169 18.6376 42.8608C18.5851 43.0117 18.5712 43.1661 18.5187 43.317C18.4801 43.3135 18.4449 43.2714 18.3676 43.2645C18.329 43.261 18.2517 43.2541 18.2096 43.2892C18.0903 43.3174 18.0095 43.349 17.8936 43.3387C17.7742 43.3668 17.6549 43.395 17.4968 43.4197C17.4161 43.4513 17.374 43.4864 17.3319 43.5215C17.2863 43.5953 17.2828 43.6338 17.2758 43.7111C17.2724 43.7496 17.3076 43.7917 17.3427 43.8338L17.3115 44.1811C17.2659 44.2548 17.2238 44.2899 17.1783 44.3637C17.045 44.5462 16.9504 44.7323 16.8524 44.9568C16.719 45.1394 16.621 45.364 16.5229 45.5887C16.4738 45.701 16.4283 45.7747 16.3792 45.887C16.3302 45.9994 16.2812 46.1116 16.2356 46.1854C16.1761 46.4134 16.0781 46.6381 16.0186 46.8662C15.9661 47.017 15.9557 47.1328 15.9067 47.2451C15.8997 47.3223 15.8507 47.4347 15.8438 47.5119L15.8195 47.782C15.7808 47.7785 15.7808 47.7785 15.7422 47.7751C15.5842 47.7998 15.4931 47.9471 15.5178 48.105C15.5425 48.2629 15.6902 48.3539 15.8482 48.3292C15.8868 48.3328 15.9255 48.3362 15.9289 48.2976L15.9676 48.3011C16.0062 48.3045 16.0448 48.308 16.0869 48.2729L17.0351 48.1247C16.9825 48.2755 16.93 48.4265 16.8775 48.5774C16.7724 48.8791 16.7061 49.1844 16.6363 49.5284L16.5981 49.9528C16.5807 50.1458 16.6055 50.3036 16.5916 50.4581C16.6025 50.7703 16.6521 51.086 16.7824 51.37C16.8106 51.4893 16.8774 51.612 16.9443 51.7347C17.0112 51.8574 17.078 51.9802 17.1835 52.1064C17.3208 52.3133 17.4579 52.5201 17.6337 52.7304C17.7041 52.8146 17.7358 52.8952 17.764 53.0145C17.8344 53.0987 17.8626 53.2179 17.8909 53.3371C17.9894 53.5405 18.0459 53.7791 18.1444 53.9824C18.1444 53.9824 18.1796 54.0245 18.1762 54.0631C18.2113 54.1052 18.2113 54.1051 18.2078 54.1437C18.2078 54.1437 18.2078 54.1437 18.2113 54.1051C18.2747 54.2664 18.3381 54.4278 18.3208 54.6208C18.3421 54.8171 18.402 55.0171 18.4233 55.2136C18.4128 55.3293 18.4376 55.4872 18.4272 55.6029C18.4133 55.7573 18.4065 55.8345 18.354 55.9854L18.3504 56.0241C18.3435 56.1012 18.2979 56.1749 18.2945 56.2135C18.2945 56.2135 18.2945 56.2135 18.291 56.2521C18.2068 56.3224 18.1226 56.3926 18.0419 56.4242C17.6277 56.6982 17.1433 56.8882 16.694 57.1202C16.4518 57.2151 16.2061 57.3487 15.9638 57.4435C15.8445 57.4718 15.7603 57.542 15.6408 57.5702C15.683 57.5351 15.7251 57.5 15.7285 57.4613C15.9426 57.2471 16.1179 57.0295 16.2547 56.8083C16.3879 56.6258 16.486 56.4011 16.5806 56.2151C16.7208 55.9553 16.7485 55.6466 16.8149 55.3413L16.8635 54.801C16.8982 54.4151 16.8555 54.0222 16.7709 53.6644C16.7426 53.5451 16.7179 53.3873 16.651 53.2646C16.4643 52.742 16.2354 52.2547 16.0066 51.7672C15.9115 51.5252 15.7743 51.3183 15.6792 51.0764C15.5841 50.8344 15.489 50.5924 15.3939 50.3504C15.334 50.1505 15.2775 49.912 15.2176 49.7121C15.1577 49.5121 15.1398 49.2771 15.1185 49.0807C15.1254 49.0035 15.1359 48.8877 15.1042 48.8071L15.1388 48.4212C15.2508 48.0421 15.3592 47.7017 15.4712 47.3227C15.5798 46.9823 15.7269 46.6454 15.8353 46.305C16.0875 45.6662 16.2975 45.0626 16.5497 44.4239C16.6582 44.0835 16.8053 43.7466 16.9138 43.4062C17.0575 43.1078 17.1659 42.7674 17.3096 42.4691C17.4077 42.2445 17.5023 42.0585 17.6004 41.8338C17.6495 41.7215 17.6984 41.6093 17.7475 41.4969C17.8911 41.1986 17.9962 40.8968 18.1433 40.5599C18.2449 40.2966 18.385 40.0369 18.4832 39.8123C18.5287 39.7386 18.5743 39.6648 18.6234 39.5525C18.6654 39.5174 18.6689 39.4788 18.7111 39.4437C19.3361 39.4221 19.9226 39.397 20.5513 39.3367C20.8252 39.3225 21.0605 39.3047 21.2992 39.2483C21.4468 39.3394 21.4854 39.3429 21.5241 39.3464C21.4434 39.378 21.3591 39.4482 21.2363 39.515ZM46.6949 45.3045C46.6562 45.301 46.6562 45.301 46.6949 45.3045C46.1183 44.7858 45.5349 44.3443 44.9934 43.8677C44.192 43.2509 43.3485 42.6694 42.5014 42.1264C42.0234 41.8111 41.542 41.5344 41.0183 41.2929C41.0639 41.2191 41.0744 41.1033 41.004 41.0192C40.9371 40.8964 40.8282 40.8088 40.7613 40.6861C40.691 40.602 40.5855 40.4758 40.5185 40.3531C40.3814 40.1462 40.2056 39.9359 40.0683 39.729C39.9628 39.6028 39.8994 39.4415 39.7973 39.2767C39.6954 39.112 39.632 38.9506 39.572 38.7507C39.5087 38.5894 39.4101 38.3859 39.3466 38.2247C39.2832 38.0633 39.2233 37.8635 39.1634 37.6635C39.1035 37.4636 39.0435 37.2637 38.9836 37.0638C38.9271 36.8253 38.832 36.5833 38.8142 36.3482C38.7825 36.2676 38.7087 36.2221 38.6314 36.2151L38.5928 36.2116C38.4734 36.2398 38.4278 36.3135 38.456 36.4328C38.4739 36.6679 38.5304 36.9063 38.5834 37.1835C38.6398 37.4219 38.6962 37.6604 38.7914 37.9024C38.7914 37.9024 38.7914 37.9024 38.7879 37.941C38.8513 38.1023 38.8761 38.2602 38.9429 38.3829C39.0063 38.5442 39.0346 38.6635 39.098 38.8248C39.2283 39.1088 39.3551 39.4315 39.5275 39.6805C39.6964 39.968 39.8687 40.2168 40.0762 40.5078C40.1818 40.6341 40.2486 40.7568 40.3541 40.8829C40.3506 40.9216 40.3893 40.925 40.3858 40.9637L39.827 40.68C39.2297 40.3929 38.6289 40.1443 38.028 39.8958C37.9612 39.7731 37.8978 39.6117 37.8309 39.489C37.7675 39.3277 37.7075 39.1278 37.609 38.9245C37.5772 38.8437 37.549 38.7245 37.5173 38.6438C37.4856 38.5632 37.4539 38.4825 37.4257 38.3632C37.3657 38.1633 37.3093 37.9248 37.2494 37.7249C37.2177 37.6443 37.1826 37.6022 37.1053 37.5952L37.0666 37.5918C36.9858 37.6235 36.9016 37.6937 36.9333 37.7744C36.9546 37.9708 37.0145 38.1707 37.0779 38.3321C37.1097 38.4127 37.1379 38.532 37.1309 38.6091C37.1627 38.6898 37.1909 38.809 37.2226 38.8896C37.3176 39.1317 37.3706 39.4088 37.5045 39.6542C37.1285 39.5037 36.7525 39.3532 36.3731 39.2413L36.0774 38.6312C35.9788 38.4277 35.9189 38.2278 35.8203 38.0245L35.7851 37.9824C35.7851 37.9824 35.7851 37.9824 35.7465 37.9789L35.7078 37.9754L35.6657 38.0105C35.6623 38.0492 35.6623 38.0492 35.6588 38.0877C35.7821 38.449 35.9441 38.8137 36.1061 39.1784C35.5404 38.9719 34.9713 38.8041 34.3986 38.6748C32.765 38.2167 31.0789 37.9096 29.3788 37.7568L28.5288 37.6804C28.0265 37.6352 27.5594 37.6322 27.0536 37.6257C26.8184 37.6434 26.548 37.6191 26.3127 37.6369C26.1968 37.6265 26.0388 37.6512 25.9228 37.6408C25.8069 37.6303 25.6489 37.655 25.5294 37.6832C25.4909 37.6798 25.4136 37.6728 25.3328 37.7045C25.2942 37.7009 25.217 37.694 25.1748 37.7291C25.0589 37.7187 24.9395 37.7469 24.8201 37.7751C24.6235 37.7963 24.3882 37.8141 24.1916 37.8353C23.9949 37.8566 23.7983 37.8778 23.6367 37.941C23.4014 37.9588 23.1241 38.0117 22.8467 38.0646C22.6465 38.1244 22.4112 38.1422 22.2112 38.202C22.1725 38.1985 22.176 38.16 22.1373 38.1565C21.9124 38.0584 21.6841 37.999 21.4593 37.901C21.273 37.8064 21.0867 37.7119 20.9356 37.6594C20.7494 37.5648 20.6018 37.4738 20.419 37.3407C20.2362 37.2075 20.0921 37.0779 19.948 36.9482C19.9128 36.9061 19.839 36.8606 19.8038 36.8185C19.7335 36.7343 19.6631 36.6502 19.5928 36.5661C19.4873 36.4399 19.3466 36.2716 19.2411 36.1455C19.0336 35.8544 18.826 35.5635 18.6185 35.2725C18.4847 35.027 18.3124 34.7781 18.1786 34.5327C18.0449 34.2872 17.9146 34.0031 17.7423 33.7542C17.612 33.4702 17.4817 33.1861 17.3515 32.9021C17.2564 32.6601 17.1647 32.3795 17.0731 32.0989C16.9815 31.8184 16.925 31.5798 16.8334 31.2992C16.7452 30.9801 16.6922 30.703 16.6426 30.3873C16.5932 30.0716 16.5402 29.7945 16.4906 29.4788C16.4659 29.321 16.4411 29.1631 16.4163 29.0053C16.3916 28.8475 16.402 28.7316 16.3773 28.5738C16.3559 28.3774 16.3698 28.223 16.3871 28.03L16.4427 27.4125C16.4774 27.0265 16.5506 26.644 16.624 26.2616C16.6869 25.9949 16.7498 25.7283 16.8514 25.4651C16.9564 25.1632 17.058 24.9 17.163 24.5982C17.268 24.2964 17.3695 24.0332 17.5098 23.7734C17.6499 23.5137 17.755 23.2119 17.8951 22.9521C17.9898 22.7661 18.0809 22.6187 18.1755 22.4327C18.2562 22.401 18.2983 22.3659 18.3756 22.3728C18.4564 22.3412 18.5371 22.3096 18.6565 22.2814L18.8497 22.2988C19.0884 22.2423 19.3658 22.1895 19.6046 22.1331C19.882 22.0803 20.1594 22.0274 20.4403 21.9359C20.5596 21.9077 20.679 21.8795 20.7984 21.8514C20.9564 21.8266 21.1179 21.7634 21.2759 21.7386C21.3953 21.7105 21.5146 21.6823 21.5989 21.6121C21.7183 21.5839 21.8797 21.5205 22.0026 21.4538C22.0447 21.4187 22.0833 21.4221 22.1254 21.387C22.4835 21.3025 22.8417 21.218 23.1611 21.13C23.5614 21.0104 23.9583 20.9292 24.362 20.771C24.7621 20.6514 25.1658 20.4931 25.5696 20.3349C26.3349 20.0535 27.0651 19.7301 27.7952 19.4066C28.1603 19.2449 28.4867 19.0797 28.8552 18.8794C29.0588 18.781 29.2238 18.6791 29.4274 18.5807C29.5116 18.5104 29.631 18.4823 29.7151 18.412C29.7573 18.3769 29.796 18.3803 29.7994 18.3418C30.0451 18.2083 30.2522 18.0712 30.4978 17.9377C30.4978 17.9377 30.5364 17.9411 30.54 17.9026L30.488 18.4814C30.4775 18.5972 30.4706 18.6744 30.4988 18.7937C30.4953 18.8323 30.4919 18.8709 30.527 18.9129C30.5622 18.955 30.6008 18.9585 30.6395 18.9619C30.7168 18.9689 30.8009 18.8987 30.8079 18.8215C30.8183 18.7057 30.8287 18.5898 30.804 18.432L30.8213 18.239C30.8351 18.0847 30.849 17.9303 30.9015 17.7794C30.905 17.7408 30.9085 17.7022 30.9506 17.6671C31.0735 17.6003 31.1576 17.5301 31.2805 17.4634C31.4033 17.3965 31.5297 17.2912 31.6525 17.2244C31.7368 17.1541 31.8175 17.1225 31.9403 17.0557C31.9824 17.0206 32.0632 16.989 32.1053 16.9539C32.1474 16.9188 32.186 16.9222 32.2281 16.8871C32.5194 16.6798 32.8106 16.4726 33.1019 16.2653C33.088 16.4197 33.0321 16.6091 33.0148 16.8021C32.98 17.1881 32.9419 17.6126 32.8685 17.9951L32.8235 18.4968C32.8165 18.574 32.8868 18.6582 32.9641 18.6651C33.0414 18.672 33.1257 18.6017 33.1325 18.5246C33.1707 18.1001 33.2088 17.6755 33.2822 17.2931C33.2995 17.1001 33.3169 16.9072 33.3728 16.7176C33.3798 16.6404 33.3901 16.5247 33.4358 16.4509L33.4566 16.2194C33.4635 16.1422 33.4739 16.0264 33.5195 15.9526C34.0213 15.5698 34.5231 15.187 34.9862 14.8006C34.9407 14.8743 34.9303 14.9902 34.8847 15.0638C34.7728 15.4428 34.6608 15.8218 34.584 16.2429C34.5211 16.5095 34.4933 16.8183 34.5077 17.0919C34.4904 17.2849 34.5151 17.4427 34.5398 17.6006C34.5646 17.7584 34.7122 17.8496 34.8317 17.8214C34.9089 17.8283 34.9545 17.7546 34.9965 17.7195C35.0422 17.6458 35.0456 17.6071 35.0526 17.5299C35.056 17.4914 35.056 17.4914 35.0595 17.4527L35.0942 17.0668C35.1253 16.7195 35.1918 16.4143 35.2616 16.0703C35.328 15.765 35.433 15.4633 35.4959 15.1965C35.6045 14.8561 35.7095 14.5544 35.8531 14.256C35.8987 14.1823 35.8636 14.1403 35.8704 14.0631C36.4213 13.5679 36.9335 13.0692 37.407 12.5671C37.3511 12.7567 37.2951 12.9461 37.2391 13.1356C37.1133 13.669 37.0226 14.2444 37.0479 14.8303C37.087 15.2617 37.0875 15.6897 37.2039 16.1281C37.2287 16.286 37.3763 16.3771 37.5343 16.3524C37.6923 16.3277 37.7834 16.1803 37.7586 16.0224C37.7339 15.8645 37.7092 15.7067 37.723 15.5524C37.7017 15.3559 37.7191 15.1629 37.6978 14.9665C37.7116 14.8121 37.6904 14.6156 37.7043 14.4613C37.732 14.1525 37.7597 13.8438 37.8261 13.5385C37.8924 13.2332 37.994 12.97 38.0956 12.7068C38.2006 12.405 38.3022 12.1417 38.4072 11.84C38.4528 11.7662 38.4246 11.647 38.3928 11.5664C38.9154 10.9519 39.4415 10.2989 39.9289 9.64238C40.1534 9.31241 40.3743 9.02098 40.56 8.68757C40.5531 8.76475 40.5041 8.87704 40.4971 8.95422C40.4307 9.25951 40.3644 9.56481 40.298 9.8701C40.2385 10.0982 40.2212 10.2911 40.1617 10.5192L40.1409 10.7508C39.977 11.7087 39.8516 12.67 39.7614 13.6735C39.5949 15.526 39.5796 17.431 39.6414 19.343C39.7572 22.3881 40.0663 25.4504 40.6527 28.46C41.2356 31.5081 42.0152 34.535 43.0791 37.4318C43.1108 37.5124 43.146 37.5545 43.139 37.6317C44.0445 40.1253 45.15 42.559 46.5889 44.7503C46.7578 45.0378 46.9654 45.3288 47.1729 45.6197C47.2081 45.6618 47.2398 45.7425 47.275 45.7845C47.0536 45.648 46.8742 45.4762 46.6949 45.3045ZM51.8227 48.4887C51.4046 48.3734 50.99 48.2194 50.5788 48.0268C50.5051 47.9813 50.4312 47.9357 50.3188 47.8867C50.245 47.8411 50.1712 47.7956 50.0939 47.7886C50.0553 47.7852 50.0553 47.7852 50.0166 47.7818C48.9794 46.7548 48.1072 45.6259 47.3226 44.3882C46.4359 42.9858 45.6756 41.4779 44.9925 39.977C44.3095 38.4761 43.7493 36.9084 43.2313 35.3057C42.8647 34.1833 42.5403 33.026 42.2545 31.872C42.6582 31.7138 43.0233 31.552 43.427 31.3938C43.7499 31.2672 44.0729 31.1406 44.3993 30.9755C44.7223 30.8488 45.0101 30.6802 45.3331 30.5536C45.6561 30.4269 45.9791 30.3004 46.2669 30.1317C46.5511 30.0017 46.839 29.8329 47.1268 29.6643C47.2917 29.5624 47.3442 29.4115 47.2843 29.2115L47.1788 29.0854C47.3016 29.0186 47.4245 28.9519 47.5121 28.843C47.6806 28.7025 47.7752 28.5165 47.905 28.3726C47.9996 28.1865 48.0942 28.0005 48.1467 27.8496C48.1537 27.7724 48.1992 27.6987 48.2062 27.6215C48.2131 27.5443 48.2587 27.4705 48.2691 27.3548C48.2795 27.239 48.3251 27.1653 48.3355 27.0495L48.3563 26.818C48.4227 26.5127 48.4118 26.2004 48.4431 25.8531C48.4499 25.776 48.4217 25.6567 48.4287 25.5795C48.4356 25.5023 48.4039 25.4216 48.4108 25.3444C48.386 25.1866 48.3614 25.0287 48.3366 24.8709C48.287 24.5552 48.1602 24.2326 48.0721 23.9134C48.0087 23.7521 47.9418 23.6294 47.875 23.5066C47.8432 23.4259 47.8081 23.3839 47.7377 23.2998C47.6674 23.2156 47.6005 23.0929 47.5301 23.0088C47.4598 22.9246 47.3509 22.837 47.2384 22.788C47.1998 22.7846 47.1646 22.7425 47.1259 22.739C47.1295 22.7004 47.1716 22.6653 47.175 22.6267C47.182 22.5495 47.1468 22.5074 47.1151 22.4268C47.0799 22.3847 47.0061 22.3392 46.9674 22.3357C46.8516 22.3253 46.7321 22.3534 46.6549 22.3466C46.6584 22.3079 46.6198 22.3045 46.6232 22.2658C46.5529 22.1818 46.5143 22.1782 46.3983 22.1678C46.2086 22.1119 46.0155 22.0946 45.8223 22.0772L44.2381 21.9348C43.8904 21.9035 43.5427 21.8723 43.1914 21.8796C42.9982 21.8623 42.763 21.88 42.5699 21.8627C42.3766 21.8453 42.18 21.8665 42.022 21.8912C41.7094 21.902 41.3582 21.9094 41.0457 21.9202C41.007 21.9168 40.9684 21.9133 40.9684 21.9133C40.9297 21.9098 40.8911 21.9064 40.849 21.9415L40.8068 21.9766C40.7647 22.0117 40.7227 22.0469 40.7192 22.0854C40.677 22.1205 40.6736 22.1592 40.6702 22.1977C40.6632 22.2749 40.6914 22.3941 40.7652 22.4397C40.8004 22.4818 40.8004 22.4818 40.8391 22.4853C40.8742 22.5273 40.948 22.5729 40.9867 22.5763C41.8084 22.5335 42.6654 22.5327 43.4802 22.567L45.6439 22.7615C45.6018 22.7966 45.5596 22.8317 45.5176 22.8668C45.4334 22.9371 45.3878 23.0107 45.3001 23.1196C45.1669 23.3022 45.0723 23.4882 44.9741 23.7128C44.827 24.0497 44.7572 24.3936 44.6873 24.7375L44.6492 25.162C44.6353 25.3164 44.618 25.5093 44.6427 25.6672C44.6358 25.7444 44.664 25.8637 44.657 25.9408C44.6502 26.018 44.6818 26.0987 44.6749 26.1758C44.6997 26.3337 44.7279 26.453 44.7527 26.6108C44.8408 26.93 44.9256 27.2878 45.0137 27.6069C45.0419 27.7262 45.1053 27.8875 45.1722 28.0102C45.2708 28.2136 45.4079 28.4204 45.5873 28.5922C45.6928 28.7184 45.8369 28.8481 45.9845 28.9392C46.097 28.9882 46.2059 29.0758 46.357 29.1283C46.4308 29.1738 46.5467 29.1842 46.624 29.1912C46.5433 29.2228 46.4591 29.2931 46.3396 29.3212C46.1782 29.3845 46.0132 29.4865 45.8904 29.5532C45.5674 29.6798 45.241 29.8449 44.918 29.9716C44.5951 30.0981 44.2687 30.2634 43.9808 30.432C43.6544 30.5972 43.3315 30.7239 43.0085 30.8504C42.6855 30.977 42.3625 31.1036 42.0361 31.2688C42.0044 31.1881 42.0113 31.1109 41.9796 31.0303C42.4324 30.7597 42.8886 30.4506 43.3413 30.18C43.5484 30.043 43.752 29.9445 43.9204 29.8041C44.1661 29.6705 44.3766 29.4949 44.6189 29.4C44.7803 29.3367 44.8363 29.1472 44.7729 28.9859C44.7412 28.9053 44.6674 28.8597 44.5936 28.8141C44.555 28.8107 44.555 28.8107 44.5163 28.8072C44.4777 28.8037 44.4004 28.7968 44.3583 28.8319C44.1161 28.9269 43.8704 29.0604 43.6247 29.194C43.4211 29.2924 43.2141 29.4293 43.0104 29.5278C42.5998 29.7632 42.1857 30.0373 41.775 30.2726C41.722 29.9956 41.6304 29.7151 41.5809 29.3993C42.0584 29.2866 42.578 29.1388 43.0556 29.0261C43.4945 28.9099 43.9719 28.7972 44.4177 28.6038C44.5793 28.5405 44.6387 28.3124 44.5753 28.1511C44.5436 28.0704 44.4698 28.0249 44.396 27.9794C44.3574 27.9759 44.3187 27.9724 44.3187 27.9724C44.2414 27.9655 44.2028 27.962 44.1607 27.9972C44.1607 27.9972 44.1607 27.9972 44.1221 27.9936C43.7218 28.1133 43.3637 28.1978 42.9669 28.2789C42.4508 28.3881 41.9732 28.5009 41.4922 28.6522C41.4392 28.375 41.3862 28.0979 41.3298 27.8594C41.6845 27.8135 42.0391 27.7676 42.3973 27.683C42.7519 27.6371 43.0714 27.5491 43.4261 27.5032C43.6228 27.482 43.7595 27.2607 43.7347 27.1029C43.71 26.9451 43.5659 26.8154 43.4113 26.8015C43.3727 26.798 43.334 26.7946 43.334 26.7946C42.6246 26.8864 41.9505 27.0204 41.2411 27.1123C41.2199 26.9158 41.1633 26.6773 41.1421 26.4808C41.5388 26.3998 41.9743 26.3222 42.371 26.2411C42.81 26.125 43.2874 26.0122 43.7229 25.9347C43.8809 25.91 43.972 25.7626 43.9473 25.6047C43.9156 25.5241 43.8838 25.4433 43.8101 25.3978C43.7749 25.3557 43.7363 25.3523 43.659 25.3454C43.6203 25.3419 43.6203 25.3419 43.5817 25.3384C43.3464 25.3562 43.1111 25.3739 42.9145 25.3952C42.7951 25.4234 42.6792 25.413 42.5598 25.4411C42.4405 25.4693 42.3211 25.4974 42.2016 25.5256C41.8049 25.6066 41.3695 25.6843 40.9727 25.7653C40.9231 25.4496 40.8771 25.0954 40.8276 24.7797C40.8098 24.5447 40.7533 24.3061 40.7354 24.071L41.3151 24.1232C41.4696 24.137 41.6241 24.151 41.8208 24.1297C42.0139 24.147 42.2106 24.1258 42.4038 24.1432C42.755 24.1358 43.1096 24.0899 43.4644 24.044C43.6224 24.0192 43.7804 23.9945 43.9384 23.9699C44.0964 23.9452 44.2931 23.924 44.4545 23.8606C44.5353 23.829 44.616 23.7973 44.6616 23.7236C44.7072 23.6499 44.7141 23.5727 44.7211 23.4956C44.6894 23.4148 44.6576 23.3342 44.5838 23.2887C44.5487 23.2466 44.4714 23.2396 44.4328 23.2362C44.3941 23.2327 44.3555 23.2292 44.3555 23.2292L44.3168 23.2258C44.1623 23.2119 44.0043 23.2366 43.8497 23.2227C43.6917 23.2474 43.5371 23.2335 43.3791 23.2582C43.1052 23.2725 42.8279 23.3254 42.5153 23.3362C42.3607 23.3223 42.2027 23.347 42.0482 23.3331C41.8549 23.3157 41.6583 23.337 41.5037 23.3231L40.6924 23.2501C40.6498 22.8573 40.6072 22.4644 40.5647 22.0716C40.4794 21.2858 40.4363 20.4649 40.3933 19.644C40.267 16.7147 40.3762 13.7677 40.8294 10.8905C40.8399 10.7747 40.8854 10.701 40.8958 10.5852C40.8993 10.5467 40.8993 10.5467 40.9028 10.508L40.9132 10.3922C40.9132 10.3922 40.9132 10.3922 40.9167 10.3536L40.9375 10.1221C40.9548 9.92909 41.0073 9.77816 41.0212 9.6238L41.0246 9.58526C41.0911 9.27996 41.1609 8.93613 41.2273 8.63084C41.2832 8.44127 41.2972 8.2869 41.3531 8.09744C41.3461 8.17462 41.4165 8.25878 41.4903 8.30431L41.5289 8.30775C41.6448 8.31817 41.7291 8.24797 41.7746 8.17423C41.9812 7.60917 42.2264 7.04764 42.5489 6.49301C42.6926 6.19469 42.8714 5.93847 43.0537 5.6436C43.2815 5.27498 43.5481 4.90991 43.8497 4.58685C43.9795 4.44289 44.1479 4.30241 44.2777 4.15845C44.3654 4.04961 44.4882 3.98284 44.5725 3.9126L44.6146 3.87747C44.7409 3.77211 44.8637 3.70534 44.9866 3.63857C45.2779 3.43131 45.6008 3.30472 45.9238 3.17812C46.0853 3.11481 46.2433 3.09011 46.4399 3.06888C46.5979 3.04417 46.7559 3.01947 46.9105 3.03335C47.2617 3.02601 47.6095 3.05727 47.9151 3.12363C48.1048 3.17959 48.3331 3.23902 48.5229 3.29497C48.7478 3.393 48.9726 3.49102 49.1975 3.58905C49.7915 3.91476 50.3363 4.35278 50.8777 4.8294C51.8833 5.77564 52.7203 6.8625 53.4346 8.01603C54.184 9.21163 54.8141 10.4355 55.3599 11.7295C55.9444 13.0269 56.4095 14.3526 56.8711 15.717C57.206 16.7586 57.5021 17.7968 57.7562 18.8701C58.0702 20.1432 58.3456 21.413 58.5789 22.7178C58.9924 25.0504 59.2445 27.4464 59.342 29.8283C59.3781 30.7264 59.4109 31.6631 59.3662 32.5929C59.3672 33.4489 59.3295 34.3013 59.2497 35.1891C59.2086 36.0802 59.0902 36.9644 58.9718 37.8485C58.8534 38.7327 58.6928 39.652 58.4971 40.5293C58.3049 41.368 58.0741 42.2031 57.7659 43.0314C57.5034 43.7859 57.2022 44.5369 56.8272 45.2425C56.5013 45.8357 56.0981 46.4219 55.6245 46.924C55.4947 47.0679 55.3228 47.2471 55.1544 47.3875C54.9439 47.5632 54.7368 47.7001 54.5297 47.8372C54.2419 48.0058 53.9155 48.171 53.5961 48.259C53.2765 48.347 52.9605 48.3965 52.6445 48.4458C52.4761 48.5863 52.1669 48.5586 51.8227 48.4887ZM60.6306 41.9271C60.2531 43.5272 59.7631 45.0783 59.0063 46.5665C58.6313 47.2721 58.1859 47.8934 57.6633 48.5079C57.3195 48.866 56.9827 49.147 56.5685 49.421C56.2808 49.5896 55.9543 49.7549 55.6313 49.8814C55.3119 49.9694 54.9537 50.054 54.6025 50.0614C54.2513 50.0686 53.865 50.0339 53.5206 49.9641C53.1026 49.8487 52.688 49.6947 52.3155 49.5056C52.586 49.5299 52.8599 49.5157 53.1725 49.5049C53.4885 49.4554 53.8079 49.3674 54.1275 49.2794C54.4469 49.1914 54.7348 49.0228 54.984 48.8506C55.5209 48.5098 56.0262 48.0883 56.4576 47.6214C56.847 47.1895 57.2046 46.6769 57.5237 46.1609C57.8427 45.6449 58.1266 45.0868 58.3752 44.4867C58.9182 43.2127 59.31 41.8862 59.586 40.5493C59.9075 39.1387 60.1131 37.7176 60.2414 36.2897C60.3004 35.6336 60.3593 34.9775 60.3796 34.3179C60.4034 33.6197 60.4238 32.9602 60.4089 32.2586C60.3916 29.4169 60.1426 26.5544 59.6933 23.7517C59.2511 20.8718 58.5701 18.0484 57.6117 15.2777C56.7201 12.6298 55.5511 10.0348 54.0488 7.68212C53.3311 6.56724 52.494 5.48038 51.485 4.57273C51.0174 4.14165 50.5077 3.74569 49.9138 3.41998C49.6151 3.27642 49.3585 3.09774 49.0564 2.99277C48.7191 2.84574 48.3747 2.77589 48.0305 2.70605L47.6442 2.67132C47.1419 2.62618 46.6326 2.65823 46.1516 2.80953C45.5126 2.98554 44.8984 3.31939 44.3966 3.70226C43.9369 4.05001 43.5441 4.52048 43.1513 4.99093C42.7516 5.53859 42.387 6.12833 42.0997 6.72505C41.8648 7.17074 41.6652 7.65862 41.5042 8.14994C41.8574 6.81993 42.2844 5.53554 42.9398 4.31055C43.2658 3.71735 43.6304 3.12763 44.0652 2.62203C44.1073 2.58691 44.146 2.59038 44.1881 2.55526C44.3566 2.41478 44.5284 2.23569 44.6969 2.09521C44.9039 1.9582 45.0724 1.8177 45.2794 1.68069C45.6093 1.47691 45.9357 1.31171 46.2974 1.18858C46.6555 1.10406 46.975 1.01605 47.3262 1.00871C47.6773 1.00137 48.0251 1.03262 48.408 1.10593C48.9033 1.22826 49.3531 1.4243 49.8381 1.66241C50.5058 2.03367 51.1631 2.5207 51.7396 3.03939C52.8155 4.06981 53.7581 5.28275 54.5813 6.52398C55.5031 7.96853 56.2986 9.5184 56.9747 11.0965C57.6895 12.678 58.2849 14.2877 58.7995 15.9291C59.5925 18.3736 60.1467 20.8746 60.6237 23.3684C61.0585 25.8975 61.3705 28.4933 61.4927 31.0332C61.5616 32.868 61.5531 34.6957 61.4287 36.5131C61.2657 38.327 61.0254 40.134 60.6306 41.9271Z" fill="black"/>
<path d="M25.0875 19.6306C25.0875 19.6306 25.049 19.6271 25.0875 19.6306C25.049 19.6271 25.049 19.6271 25.0875 19.6306Z" fill="black" stroke="black" stroke-width="0.673" stroke-miterlimit="10"/>
<path d="M6.06422 55.7755C6.02638 55.7722 6.0298 55.7339 6.06422 55.7755C6.06766 55.7374 6.06766 55.7374 6.07109 55.6992C6.0298 55.7339 6.0298 55.7339 6.06422 55.7755Z" fill="black" stroke="black" stroke-width="0.673" stroke-miterlimit="10"/>
<path d="M16.6845 37.7056C16.6495 37.6633 16.6495 37.6633 16.6845 37.7056C16.6495 37.6633 16.6495 37.6633 16.6845 37.7056C16.6845 37.7056 16.6495 37.6633 16.6845 37.7056Z" fill="black"/>
<path d="M16.6845 37.7056C16.6495 37.6633 16.6495 37.6633 16.6845 37.7056C16.6495 37.6633 16.6495 37.6633 16.6845 37.7056ZM16.6845 37.7056C16.6495 37.6633 16.6845 37.7056 16.6845 37.7056V37.7056Z" stroke="black" stroke-width="0.673" stroke-miterlimit="10"/>
<path d="M16.1474 37.1905C16.1826 37.2326 16.2144 37.3133 16.2495 37.3553C16.2847 37.3974 16.2812 37.436 16.3163 37.4781C16.3515 37.5201 16.3481 37.5587 16.3867 37.5622C16.4536 37.6849 16.5204 37.8077 16.6259 37.9338C16.6576 38.0145 16.7314 38.0601 16.8017 38.1441C16.8404 38.1477 16.8369 38.1862 16.8756 38.1897C16.9108 38.2317 16.9459 38.2738 16.9845 38.2773L17.0232 38.2808C17.0618 38.2842 17.0618 38.2842 17.1039 38.2491C17.1039 38.2491 17.1461 38.214 17.1495 38.1754C17.1529 38.1368 17.1529 38.1368 17.1178 38.0948C17.0826 38.0527 17.044 38.0492 17.0088 38.0072C16.9737 37.9651 16.9737 37.9651 16.9385 37.923C16.8682 37.8389 16.7978 37.7548 16.7275 37.6706C16.6957 37.59 16.6606 37.5479 16.6289 37.4673C16.5938 37.4252 16.5586 37.3831 16.562 37.3445C16.4986 37.1832 16.4317 37.0604 16.3683 36.8992C16.3332 36.8571 16.3332 36.8571 16.2946 36.8536L16.2559 36.8501C16.2139 36.8852 16.1682 36.9589 16.2034 37.001C16.0805 37.0678 16.1157 37.1099 16.1474 37.1905Z" fill="black" stroke="black" stroke-width="0.673" stroke-miterlimit="10"/>
<path d="M65.9793 17.0808C66.0031 16.3826 65.9218 15.9863 66.0585 15.7652C68.8078 12.0439 70.232 7.46428 73.4628 4.01967C73.7645 3.69663 74.14 3.41914 74.772 3.32031C74.7056 3.62559 74.7447 4.05707 74.5694 4.27475C72.0862 7.20294 70.6327 10.8073 68.515 14.0018C68.0627 14.7003 67.614 15.3603 67.1265 16.0168C66.9021 16.3468 66.5687 16.5891 65.9793 17.0808Z" fill="black"/>
<path d="M69.063 21.3268C71.2717 21.0195 73.3611 20.7404 75.4891 20.4648C77.7365 20.161 80.0052 20.0536 82.2322 20.4094C82.7697 20.4966 83.43 20.517 83.1783 21.5838C82.6726 21.5772 82.1178 21.683 81.5804 21.5958C78.9317 21.1633 76.3297 21.513 73.7207 21.9399C72.5339 22.1444 71.3505 22.3105 70.2022 22.5185C69.4508 22.6455 69.0466 22.3758 69.063 21.3268Z" fill="black"/>
<path d="M80.8244 37.8282C80.6664 37.853 80.4276 37.9093 80.3187 37.8217C76.0345 35.219 71.7924 32.5813 67.4766 29.898C67.7109 29.0242 68.3083 29.3113 68.7897 29.5881C70.241 30.3409 71.6923 31.0939 73.0947 31.9591C75.235 33.2797 77.3299 34.6741 79.4246 36.0684C80.0116 36.4713 80.5496 36.9866 81.0909 37.4631C80.9646 37.5685 80.9121 37.7194 80.8244 37.8282Z" fill="black"/>
</svg>
