<svg width="84" height="59" viewBox="0 0 84 59" fill="none" xmlns="http://www.w3.org/2000/svg">
<path d="M22.2983 41.4736C22.5882 42.9648 22.9973 44.4843 23.5893 45.8707C24.1392 47.2218 24.8788 48.517 25.9453 49.5495C26.24 49.7953 26.4961 50.0447 26.826 50.2485C27.1138 50.4171 27.4437 50.6209 27.7666 50.7475C28.0896 50.8741 28.4512 50.9972 28.8445 51.0397C29.2027 51.1242 29.5538 51.1315 29.9016 51.1002C30.6357 51.0343 31.3945 50.8105 32.0658 50.4779C32.3996 50.2922 32.7335 50.1066 33.0639 49.8823C33.3591 49.7002 33.6508 49.4795 33.9391 49.2201C34.7337 48.5263 35.444 47.7621 36.0735 46.9663C36.1156 47.0015 36.119 47.04 36.1612 47.0751C36.2875 47.1805 36.4386 47.128 36.5475 47.0404C36.8324 46.7425 37.1172 46.4446 37.4406 46.1431C38.0524 45.5824 38.7062 45.0567 39.3635 44.5698L39.4021 44.5662C39.9857 44.1247 40.5727 43.7218 41.1631 43.3575C41.7922 42.9898 42.3826 42.6254 43.0152 42.2962C43.8726 41.869 44.73 41.4418 45.633 41.0883C45.6751 41.1234 45.7876 41.0745 45.8228 41.0324L45.8579 40.9903C46.1987 40.8819 46.4974 40.7383 46.7995 40.6334C46.9859 40.5388 47.1369 40.4863 47.3267 40.4304C47.4777 40.3779 47.6288 40.3255 47.7798 40.2729C48.1206 40.1645 48.4614 40.0561 48.8023 39.9476C49.4452 39.7342 50.0916 39.5594 50.7415 39.4231C50.7767 39.3811 50.854 39.3742 50.9313 39.3672C52.1923 39.0983 53.457 38.8679 54.732 38.7533C55.3888 38.6943 56.0456 38.6353 56.7059 38.6148C57.0185 38.6257 57.3662 38.5944 57.6788 38.6052C57.8333 38.5913 57.9913 38.616 58.1459 38.6022C58.3004 38.5882 58.4198 38.6164 58.5744 38.6025C58.6517 38.5956 58.771 38.6238 58.8483 38.6168C59.4348 38.6419 60.0247 38.7056 60.6147 38.7693C60.8921 38.8222 61.1661 38.8365 61.4434 38.8894L61.4821 38.8859C61.4469 38.928 61.4504 38.9665 61.4539 39.0052C61.4677 39.1595 61.5554 39.2684 61.6782 39.3351C61.6886 39.4509 61.7342 39.5246 61.7798 39.5984C61.8709 39.7457 61.9973 39.8511 62.1622 39.953C62.3272 40.055 62.4535 40.1603 62.6149 40.2236C62.7379 40.2904 62.822 40.3606 62.9448 40.4274C63.1132 40.5678 63.3203 40.7049 63.4923 40.8839C63.7062 41.0982 63.843 41.3193 64.0183 41.537C64.106 41.6458 64.1551 41.7581 64.2427 41.867C64.2883 41.9407 64.376 42.0495 64.425 42.1618C64.4706 42.2356 64.5197 42.3479 64.5652 42.4216C64.6108 42.4952 64.6211 42.6111 64.6667 42.6848C64.7227 42.8743 64.7787 43.0637 64.8347 43.2533C64.8451 43.369 64.8942 43.4813 64.9045 43.5971C64.9219 43.7901 64.9813 44.0182 64.9987 44.2112C65.0056 44.2884 65.0512 44.3621 65.0933 44.3972C65.1319 44.3938 65.1354 44.4323 65.174 44.4289L65.2053 44.7762C65.226 45.0078 65.2434 45.2007 65.2256 45.4358C65.2008 45.5936 65.2181 45.7866 65.1547 45.9479C65.1231 46.0286 65.0528 46.1127 65.021 46.1934C64.9541 46.3161 64.8452 46.4037 64.7748 46.4878C64.6659 46.5754 64.599 46.6981 64.5708 46.8174C64.5426 46.9367 64.5564 47.091 64.5668 47.2069L64.6293 47.9015C64.6396 48.0173 64.7239 48.0875 64.8398 48.0771C64.9557 48.0667 65.026 47.9825 65.0156 47.8668C65.1385 47.9336 65.2965 47.9582 65.4159 47.9865C65.5352 48.0146 65.6546 48.0428 65.774 48.071C65.8933 48.0991 66.0514 48.1238 66.1708 48.152C66.2724 48.4152 66.3704 48.6399 66.4333 48.9066C66.5314 49.1311 66.5943 49.3979 66.6537 49.626L66.6919 50.0505C66.7058 50.2048 66.6775 50.3241 66.6914 50.4785C66.6632 50.5977 66.6736 50.7135 66.6454 50.8328C66.6172 50.9521 66.5924 51.1099 66.5642 51.2291C66.536 51.3484 66.5076 51.4677 66.4408 51.5904C66.3705 51.6746 66.3036 51.7973 66.2368 51.92C66.1664 52.0041 66.0609 52.1303 65.994 52.253C65.9271 52.3758 65.8251 52.5406 65.7582 52.6633C65.6245 52.9087 65.4942 53.1928 65.4026 53.4734C65.311 53.7539 65.2229 54.0731 65.1347 54.3923C65.1064 54.5116 65.0817 54.6694 65.0569 54.8272C65.0287 54.9464 65.0425 55.1008 65.0178 55.2587C64.993 55.4165 65.0104 55.6095 65.0242 55.7639C65.0381 55.9183 65.0906 56.0692 65.1045 56.2235C65.1219 56.4165 65.1778 56.606 65.3111 56.7885C65.4022 56.936 65.5285 57.0414 65.6513 57.1082C65.9005 57.2802 66.1884 57.4489 66.4726 57.579C66.7183 57.7125 66.9993 57.804 67.2836 57.9341C67.5679 58.0642 67.8874 58.1521 68.1718 58.2822C68.4947 58.4089 68.8142 58.4969 69.1758 58.62C69.2531 58.613 69.3304 58.6061 69.4041 58.5605C69.4393 58.5185 69.4745 58.4764 69.5062 58.3957C69.5414 58.3537 69.5765 58.3116 69.573 58.273L72.4708 58.0126C72.822 58.0199 73.1312 57.9922 73.4788 57.9609L74.4834 57.8707C74.8346 57.8779 75.1437 57.8502 75.4949 57.8576C75.5722 57.8506 75.6881 57.8402 75.7689 57.8718C75.9234 57.858 76.0428 57.8861 76.1621 57.9143C76.3622 57.9741 76.5624 58.034 76.7625 58.0937C76.8819 58.122 76.9626 58.1536 77.0434 58.1853C77.0855 58.2204 77.1628 58.2134 77.2014 58.21C77.2401 58.2064 77.2401 58.2064 77.2787 58.203C77.3524 58.1575 77.4263 58.1119 77.458 58.0312C77.4897 57.9506 77.5214 57.87 77.4758 57.7962C77.4723 57.7576 77.4337 57.7611 77.4302 57.7225C77.4268 57.6839 77.4654 57.6804 77.4619 57.6419C77.5323 57.5577 77.564 57.4771 77.5957 57.3963C77.6591 57.2351 77.7225 57.0737 77.7859 56.9124C77.8706 56.5547 77.9201 56.239 77.9275 55.8882C77.9419 55.6145 77.9176 55.3443 77.8933 55.0743C77.8656 54.7654 77.8413 54.4953 77.7784 54.2286C77.6877 53.6532 77.5584 53.0813 77.3939 52.5513C77.2924 52.2881 77.2294 52.0214 77.1279 51.7582C77.0263 51.495 76.9248 51.2318 76.7846 50.972C76.6444 50.7123 76.5042 50.4526 76.364 50.1928C76.2239 49.9331 76.0871 49.7119 75.9083 49.4556C75.8137 49.2696 75.6805 49.0871 75.5471 48.9045C75.5437 48.866 75.5437 48.866 75.5437 48.866C75.5403 48.8273 75.4982 48.7922 75.4982 48.7922C75.4946 48.7536 75.456 48.7571 75.4525 48.7185C75.2772 48.5008 75.1791 48.2762 75.0424 48.0551C74.9968 47.9814 74.9934 47.9427 74.9478 47.8691C74.8497 47.6444 74.7095 47.3846 74.608 47.1214C74.5555 46.9706 74.4643 46.8231 74.4118 46.6722C74.447 46.6301 74.447 46.6301 74.4435 46.5916C74.44 46.5529 74.3979 46.5178 74.3979 46.5178C74.3559 46.4827 74.3559 46.4827 74.3172 46.4862C74.3137 46.4476 74.2716 46.4125 74.2682 46.3739C74.2612 46.2967 74.2191 46.2616 74.2121 46.1844C74.2473 46.1423 74.2473 46.1423 74.2439 46.1037C74.2404 46.0651 74.1982 46.03 74.1596 46.0335C74.1071 45.8826 74.0546 45.7316 74.0021 45.5808C73.9427 45.3527 73.8798 45.0859 73.8203 44.8579C73.7678 44.707 73.7539 44.5526 73.7401 44.3983L73.6638 43.5492C73.6533 43.4334 73.6781 43.2755 73.6677 43.1598C73.6538 43.0053 73.6786 42.8475 73.7068 42.7283C73.6964 42.6125 73.7281 42.5318 73.7598 42.4512C73.8232 42.2898 73.8901 42.1671 73.957 42.0444C74.0238 41.9217 74.0941 41.8376 74.2032 41.75C74.3507 41.6589 74.4597 41.5713 74.6073 41.4802C74.6459 41.4767 74.6811 41.4346 74.7197 41.4312C74.7654 41.5048 74.8461 41.5365 74.9268 41.5682C75.0041 41.5613 75.0814 41.5543 75.1551 41.5088L75.2607 41.3825C75.2572 41.344 75.2958 41.3405 75.2924 41.3019C75.324 41.2213 75.3523 41.102 75.3419 40.9862C75.335 40.909 75.3666 40.8284 75.3597 40.7512C75.3459 40.5968 75.3741 40.4776 75.3602 40.3232C75.3428 40.1302 75.3642 39.9337 75.3469 39.7407C75.7753 39.7412 76.2037 39.7416 76.6322 39.742C76.9448 39.7528 77.2926 39.7216 77.6051 39.7324L77.8369 39.7115C77.9177 39.7432 77.9984 39.7748 78.0722 39.7293C78.1074 39.6872 78.1074 39.6872 78.146 39.6837C78.2268 39.7154 78.304 39.7085 78.3778 39.663C78.4903 39.6139 78.5254 39.5718 78.5571 39.4912C78.6696 39.4421 78.7786 39.3545 78.8875 39.2669C79.1441 39.0883 79.3586 38.8745 79.5731 38.6607C79.6399 38.5379 79.7489 38.4503 79.8544 38.3241C80.0828 38.2647 80.3498 38.2018 80.5747 38.1038C80.8382 38.0023 81.0982 37.8622 81.3197 37.7256C81.4321 37.6765 81.5411 37.5889 81.65 37.5013C81.7204 37.4173 81.8328 37.3682 81.9032 37.284C81.9735 37.2 82.0825 37.1124 82.1528 37.0282C82.3286 36.8179 82.5045 36.6076 82.6769 36.3586C82.7437 36.2359 82.8492 36.1097 82.9161 35.987C82.9864 35.9028 83.0216 35.8608 83.0533 35.7801C83.085 35.6995 83.1202 35.6574 83.1519 35.5768C83.2856 35.3313 83.3807 35.0893 83.4723 34.8088C83.6556 34.2475 83.8002 33.6898 83.8676 33.1391C83.8924 32.9813 83.8785 32.827 83.9032 32.6691C83.9349 32.5884 83.9315 32.5498 83.9245 32.4726C83.9176 32.3954 83.9493 32.3148 83.9424 32.2376L83.8661 31.3885C83.8135 31.2377 83.8031 31.1219 83.7927 31.006C83.7789 30.8517 83.7615 30.6588 83.709 30.5078C83.6496 30.2797 83.5866 30.0131 83.4851 29.7499C83.3835 29.4867 83.282 29.2234 83.1418 28.9637C83.0016 28.7039 82.9001 28.4407 82.7212 28.1845C82.6301 28.037 82.5424 27.9281 82.4512 27.7808C82.3636 27.6719 82.318 27.5982 82.2303 27.4893C82.1005 27.3454 82.0129 27.2365 81.8831 27.0926C81.7954 26.9838 81.6691 26.8784 81.571 26.6538C81.5254 26.58 81.4833 26.5449 81.4026 26.5133C81.3466 26.3238 81.2941 26.1729 81.2029 26.0255C81.0137 25.6534 80.7507 25.3269 80.4525 25.0425L80.3261 24.9371L80.3157 24.8213C80.2702 24.7476 80.2281 24.7125 80.1473 24.6808C80.1087 24.6843 80.0279 24.6526 79.9472 24.621L79.8699 24.6279C79.7505 24.5997 79.6312 24.5716 79.5118 24.5434C79.273 24.487 79.0308 24.3921 78.792 24.3357C77.6334 24.0119 76.5135 23.6846 75.3583 23.3993C74.1645 23.1176 73.0093 22.8324 71.8541 22.5471C70.7411 22.297 69.5895 22.0503 68.4764 21.8002C67.9216 21.6945 67.4054 21.5851 66.8507 21.4795C66.6927 21.4548 66.5347 21.43 66.3766 21.4053C66.2186 21.3806 66.0606 21.356 65.9026 21.3312C65.7832 21.3031 65.6286 21.3169 65.4706 21.2922C65.3899 21.2606 65.3477 21.2255 65.267 21.1938C64.9896 21.1409 64.7087 21.0494 64.4314 20.9966L64.3927 21C64.3927 21 64.3506 20.9649 64.3472 20.9263C64.2981 20.814 64.1788 20.7858 64.098 20.7541C64.0594 20.7577 63.9786 20.726 63.9014 20.733C63.8241 20.7399 63.7433 20.7082 63.666 20.7152C63.5888 20.7222 63.4694 20.694 63.0726 20.6129C61.5732 20.3975 60.0599 20.0277 58.6169 19.5738C57.8165 19.3345 57.0477 19.0145 56.2789 18.6946C56.1139 18.5927 55.9139 18.5328 55.7102 18.4344C55.5067 18.336 55.3452 18.2728 55.1416 18.1743C54.938 18.0759 54.773 17.974 54.5695 17.8755C54.4887 17.8439 54.3659 17.7771 54.2851 17.7455C54.2465 17.749 54.2431 17.7103 54.2044 17.7138C53.8358 17.5135 53.4673 17.3132 53.0988 17.1129C52.7302 16.9126 52.3582 16.6736 52.0283 16.4699C51.9897 16.4734 51.9475 16.4383 51.9054 16.4032L51.8634 16.3679L51.8213 16.3328C51.3685 16.0624 50.9544 15.7882 50.5368 15.4757C50.5334 15.437 50.5333 15.437 50.5298 15.3985C50.5264 15.3598 50.5229 15.3213 50.4808 15.2862C50.4422 15.2896 50.4 15.2545 50.3614 15.258C50.3228 15.2614 50.3263 15.3001 50.2876 15.3035C48.7857 14.1935 47.3893 12.9573 46.0984 11.5949C46.095 11.5563 46.0563 11.5598 46.0528 11.5212C46.0493 11.4826 46.0493 11.4826 46.0459 11.444C45.9968 11.3317 45.9126 11.2615 45.8319 11.2298C45.2706 10.6188 44.706 9.9693 44.215 9.27416C43.9064 8.87399 43.5943 8.43517 43.3209 7.99282C43.1841 7.77169 43.0895 7.58567 42.9529 7.36454C42.9004 7.21361 42.8443 7.02415 42.7918 6.87322C42.4139 5.70111 41.9234 4.57803 41.282 3.50742C40.9629 2.99141 40.6508 2.55259 40.2615 2.1207C40.258 2.08211 40.2511 2.00493 40.209 1.96981C40.1178 1.82237 39.9915 1.71701 39.8617 1.57305C39.7319 1.42909 39.6021 1.28513 39.4337 1.14464C39.3074 1.03928 39.1811 0.933909 39.0161 0.832017C38.7249 0.624763 38.3985 0.459571 38.0755 0.332971C37.7138 0.209851 37.3523 0.0867213 36.9589 0.0442557C36.6429 -0.00515145 36.2917 -0.0124961 35.944 0.0187509L35.8281 0.0291732C35.4417 0.0638909 35.0623 0.175802 34.6828 0.287713C34.3421 0.396153 34.0434 0.539714 33.7095 0.725337C33.0417 1.09659 32.4548 1.4995 31.8783 2.01818C30.7603 3.01348 29.7756 4.19134 28.9172 5.47458C28.0201 6.76123 27.2459 8.11474 26.5946 9.53491C25.285 12.2983 24.3017 15.2267 23.5153 18.1764C22.7709 21.1613 22.1845 24.1707 21.8754 27.2332C21.705 28.8048 21.6119 30.3693 21.561 31.969C21.5452 33.5267 21.568 35.0809 21.6716 36.6667C21.7717 38.214 21.9491 39.7542 22.2983 41.4736Z" fill="white"/>
<path d="M25.1511 20.7536C25.1511 20.7536 31.1281 8.81698 35.9032 9.94405C43.1854 11.6629 44.1853 21.9219 42.3056 31.7784C42.3056 31.7784 48.1334 12.1131 39.373 3.91313C39.373 3.91313 34.6305 -1.18526 28.3225 11.4035L25.1511 20.7536Z" fill="#BBBBBA"/>
<path d="M64.2076 41.0536C64.3409 41.2361 64.439 41.4607 64.646 41.5977C64.9407 41.8436 65.3726 41.8826 65.7591 41.8478C66.1455 41.8131 66.5283 41.7398 66.9251 41.8209C67.2833 41.9055 67.6166 42.1478 67.8727 42.3971C68.6796 43.1416 69.3142 44.135 70.3886 44.3886C70.6274 44.445 70.9013 44.4593 71.1787 44.5122C72.1268 44.6604 73.0605 45.0823 73.7446 45.76C73.598 44.9951 73.4865 44.188 73.3398 43.4231C73.2735 43.1179 73.2457 42.809 73.3374 42.5285C73.4325 42.2866 73.647 42.0727 73.8649 41.8975C74.1532 41.6381 74.4801 41.3753 74.7718 41.1546C74.807 41.1125 74.8422 41.0705 74.8774 41.0284C74.9125 40.9863 74.9056 40.9092 74.8986 40.832C74.8744 40.5618 74.8887 40.2881 74.8644 40.0181C74.854 39.9022 74.8401 39.7479 74.8298 39.632C74.7247 39.3303 74.3983 39.1651 74.1175 39.0736C72.6324 38.5846 71.02 38.8461 69.4642 38.8693C68.7231 38.858 67.9786 38.8083 67.2375 38.7971C66.6511 38.7719 66.0681 38.7855 65.485 38.799C65.0179 38.802 64.5122 38.8086 64.0451 38.8116C63.8133 38.8325 63.578 38.8147 63.3461 38.8355C63.1916 38.8494 62.9528 38.7931 62.8052 38.8841C62.5804 38.9821 62.6081 39.291 62.7027 39.477C62.8077 39.7787 63.0604 39.9894 63.313 40.2003C63.5657 40.411 63.9411 40.6884 64.2076 41.0536Z" fill="#BBBBBA"/>
<path d="M60.8745 38.2012C61.7067 38.3598 59.3335 37.5227 58.5013 37.364C54.7233 36.4975 50.8314 36.9639 46.9815 37.4655C46.4407 37.5141 45.9418 37.5979 45.4534 37.7974C44.8525 38.0459 44.3428 38.4419 43.742 38.6903C43.1411 38.9389 42.4036 38.9663 41.937 38.5414C41.7651 38.3622 41.6249 38.1026 41.453 37.9234C41.2811 37.7444 41.0319 37.5722 40.765 37.6351C40.6139 37.6877 40.5084 37.8138 40.4029 37.94C39.3513 39.2407 39.0402 40.9804 38.4414 42.5516C38.0293 43.6001 37.4944 44.5819 36.9208 45.5672C36.9173 45.5286 49.1888 36.0222 60.8745 38.2012Z" fill="#BBBBBA"/>
<path d="M37.8601 22.1788C37.87 22.7226 38.2242 23.1965 38.5012 23.6774C38.7815 24.1968 38.9916 24.8004 39.0857 25.4145C39.1065 25.6461 39.1238 25.839 39.1025 26.0355C39.0813 26.2319 38.9826 26.4354 38.8806 26.6001C38.4512 27.4558 38.0604 28.3079 37.3362 28.9176C37.2272 29.0052 37.1569 29.0894 37.1287 29.2086C37.1355 29.2858 37.2232 29.3947 37.2689 29.4683C37.6126 29.8265 38.0267 30.1005 38.476 30.3325C38.964 30.561 39.445 30.7123 39.9328 30.9408C40.5436 31.2361 41.1331 31.7278 41.8004 31.7845C41.839 31.7811 41.8777 31.7776 41.8777 31.7776C41.9163 31.7741 41.9128 31.7355 41.948 31.6935C42.2154 31.2025 42.4407 30.6765 42.6276 30.1539C42.7157 29.8348 42.8039 29.5156 42.892 29.1965C43.0367 28.6388 43.1391 28.046 43.2838 27.4883C43.4002 27.0499 43.478 26.6149 43.5522 26.1414C43.6017 25.8257 43.6513 25.5099 43.6622 25.1978C43.673 24.8855 43.6839 24.5733 43.6948 24.261C43.7058 23.9489 43.6779 23.6401 43.6468 23.2928C43.619 22.984 43.5912 22.6753 43.56 22.3279C43.5531 22.2507 43.5427 22.1349 43.4233 22.1068C43.3812 22.0716 43.3426 22.0751 43.2653 22.082C43.188 22.089 43.1107 22.096 43.03 22.0643C42.7174 22.0535 42.3698 22.0848 42.0572 22.074C41.706 22.0666 41.3969 22.0943 41.0456 22.087C40.7331 22.0762 40.3854 22.1075 40.0728 22.0967C39.7216 22.0893 39.4125 22.117 39.0613 22.1097C38.7487 22.0989 38.4011 22.1302 38.0885 22.1194C38.0954 22.1966 37.8601 22.1788 37.8601 22.1788Z" fill="#BBBBBA"/>
<path d="M80.6201 35.9998C81.4369 34.2534 81.6498 32.2891 81.2481 30.4188C81.0558 29.5802 80.7477 28.7519 80.2182 28.0603C79.6886 27.3687 78.9763 26.8102 78.1372 26.5743C77.5368 26.3949 76.8765 26.4153 76.2548 26.4323C74.8536 26.4415 73.4557 26.4893 72.0474 26.4214C71.3416 26.3681 70.6357 26.3148 69.9863 26.0229C69.4983 25.7944 69.0773 25.4432 68.6563 25.092C67.7264 24.2808 66.9022 23.3433 66.4082 22.1816C67.1072 22.1577 67.7953 22.4461 68.5046 22.5379C69.098 22.6402 69.6776 22.5881 70.2675 22.6518C71.1349 22.7684 71.9423 23.0849 72.7848 23.3593C74.7861 23.9576 76.8616 24.0823 78.8524 24.5648C79.1298 24.6176 79.372 24.7126 79.6177 24.8461C79.9055 25.0148 80.1651 25.3027 80.3474 25.5976C80.712 26.1873 80.8903 26.8716 81.0687 27.5559C81.2084 28.2437 81.3481 28.9313 81.4878 29.6191C81.6904 30.5735 81.893 31.5279 81.7093 32.5172C81.6068 33.1099 81.3462 33.6781 81.5142 34.2466L80.6201 35.9998Z" fill="#BBBBBA"/>
<path d="M68.9739 49.4182C69.0047 50.1934 68.7616 50.9546 68.4376 51.6839C68.3107 52.0066 68.1454 52.3327 67.9378 52.6237C67.7654 52.8726 67.5931 53.1216 67.3785 53.3353C67.1359 53.6685 66.9283 53.9594 66.6856 54.2924C66.2388 54.9551 65.792 55.6177 65.3452 56.2804C65.2269 55.3962 65.0663 54.4769 65.4219 53.6668C65.5522 53.3827 65.7211 53.0952 65.8935 52.8463C66.372 52.1031 66.847 51.3211 66.8831 50.423C66.9614 49.56 66.6111 48.6968 66.5735 47.8442C66.9247 47.8515 67.2407 47.9009 67.5919 47.9083C67.6692 47.9013 67.7499 47.933 67.7851 47.8909C67.9713 47.7963 67.9084 47.5297 67.9332 47.3719C67.9614 47.2526 68.1373 47.0423 68.2284 47.1897C68.3651 47.4108 68.4632 47.6355 68.5613 47.86C68.6594 48.0847 68.7575 48.3093 68.8204 48.576C68.8833 48.8427 68.9497 49.148 68.9739 49.4182Z" fill="#BBBBBA"/>
<path d="M44.8186 37.66C44.8785 37.4601 44.9385 37.2602 44.9984 37.0603C45.0549 36.8218 45.15 36.5798 45.1678 36.3448C45.1994 36.2641 45.2733 36.2185 45.3506 36.2116L45.3892 36.2082C45.5086 36.2363 45.5542 36.3101 45.526 36.4293C45.5081 36.6643 45.4516 36.9028 45.3986 37.1799C45.3422 37.4184 45.2857 37.657 45.1906 37.8989C45.1906 37.8989 45.1906 37.899 45.1941 37.9375C45.0078 38.0321 44.8216 38.1267 44.6354 38.2212C44.6988 38.0599 44.7587 37.8599 44.8186 37.66ZM73.4126 26.4532C73.5286 26.4428 73.6093 26.4744 73.7252 26.464L73.7287 26.5027C73.7321 26.5412 73.6935 26.5447 73.697 26.5833C73.6618 26.6254 73.6232 26.6288 73.5845 26.6323C73.5459 26.6358 73.5072 26.6392 73.4652 26.6041C73.4231 26.569 73.4195 26.5304 73.4126 26.4532C73.4161 26.4918 73.4161 26.4918 73.4126 26.4532ZM21.6716 36.6667C21.568 35.0809 21.5452 33.5267 21.561 31.969C21.6119 30.3693 21.705 28.8048 21.8754 27.2332C22.1845 24.1707 22.7709 21.1613 23.5153 18.1764C24.3017 15.2267 25.285 12.2983 26.5946 9.53491C27.2459 8.11474 28.0201 6.76123 28.9172 5.47458C29.7756 4.19134 30.7603 3.01348 31.8783 2.01818C32.4548 1.4995 33.0417 1.09659 33.7095 0.725337C34.0434 0.539714 34.3421 0.396153 34.6828 0.287713C35.0623 0.175802 35.4417 0.0638909 35.8281 0.0291732L35.944 0.0187509C36.2917 -0.0124961 36.6429 -0.00515145 36.9589 0.0442557C37.3523 0.0867213 37.7138 0.209851 38.0755 0.332971C38.3985 0.459571 38.7249 0.624763 39.0161 0.832017C39.1811 0.933909 39.3074 1.03928 39.4337 1.14464C39.6021 1.28513 39.7319 1.42909 39.8617 1.57305C39.9915 1.71701 40.1178 1.82237 40.209 1.96981C40.2511 2.00493 40.258 2.08211 40.2615 2.1207C40.6508 2.55259 40.9629 2.99141 41.282 3.50742C41.9234 4.57803 42.4139 5.70111 42.7918 6.87322C42.8443 7.02415 42.9004 7.21361 42.9529 7.36454C43.0895 7.58567 43.1841 7.77169 43.3209 7.99282C43.5943 8.43517 43.9064 8.87399 44.215 9.27416C44.706 9.9693 45.2706 10.6188 45.8319 11.2298C45.9126 11.2615 45.9968 11.3317 46.0459 11.444C46.0493 11.4826 46.0493 11.4826 46.0528 11.5212C46.0563 11.5598 46.095 11.5563 46.0984 11.5949C47.3893 12.9573 48.7857 14.1935 50.2876 15.3035C50.3263 15.3001 50.3228 15.2614 50.3614 15.258C50.4 15.2545 50.4422 15.2896 50.4808 15.2862C50.5229 15.3213 50.5264 15.3598 50.5298 15.3985C50.5333 15.437 50.5334 15.437 50.5368 15.4757C50.9544 15.7882 51.3685 16.0624 51.8213 16.3328L51.8634 16.3679L51.9054 16.4032C51.9475 16.4383 51.9897 16.4734 52.0283 16.4699C52.3582 16.6736 52.7302 16.9126 53.0988 17.1129C53.4673 17.3132 53.8358 17.5135 54.2044 17.7138C54.2431 17.7103 54.2465 17.749 54.2851 17.7455C54.3659 17.7771 54.4887 17.8439 54.5695 17.8755C54.773 17.974 54.938 18.0759 55.1416 18.1743C55.3452 18.2728 55.5067 18.336 55.7102 18.4344C55.9139 18.5328 56.1139 18.5927 56.2789 18.6946C57.0477 19.0145 57.8165 19.3345 58.6169 19.5738C60.0599 20.0277 61.5732 20.3975 63.0726 20.6129C63.4694 20.694 63.5888 20.7222 63.666 20.7152C63.7433 20.7082 63.8241 20.7399 63.9014 20.733C63.9786 20.726 64.0594 20.7577 64.098 20.7541C64.1788 20.7858 64.2981 20.814 64.3472 20.9263C64.3506 20.9649 64.3927 21 64.3927 21L64.4314 20.9966C64.7087 21.0494 64.9896 21.1409 65.267 21.1938C65.3477 21.2255 65.3899 21.2606 65.4706 21.2922C65.6286 21.3169 65.7832 21.3031 65.9026 21.3312C66.0606 21.356 66.2186 21.3806 66.3766 21.4053C66.5347 21.43 66.6927 21.4548 66.8507 21.4795C67.4054 21.5852 67.9216 21.6945 68.4764 21.8002C69.5895 22.0503 70.7411 22.297 71.8541 22.5471C73.0093 22.8324 74.1645 23.1176 75.3583 23.3993C76.5135 23.6846 77.6334 24.0119 78.792 24.3357C79.0308 24.3921 79.273 24.487 79.5118 24.5434C79.6312 24.5716 79.7505 24.5997 79.8699 24.6279L79.9472 24.621C80.0279 24.6526 80.1087 24.6843 80.1473 24.6808C80.2281 24.7125 80.2702 24.7476 80.3157 24.8213L80.3261 24.9371L80.4525 25.0425C80.7507 25.3269 81.0137 25.6534 81.2029 26.0255C81.2941 26.1729 81.3466 26.3238 81.4026 26.5133C81.4833 26.5449 81.5254 26.58 81.571 26.6538C81.6691 26.8784 81.7954 26.9838 81.8831 27.0926C82.0129 27.2365 82.1005 27.3454 82.2303 27.4893C82.318 27.5982 82.3636 27.6719 82.4512 27.7808C82.5424 27.9281 82.6301 28.037 82.7212 28.1845C82.9001 28.4407 83.0016 28.7039 83.1418 28.9637C83.282 29.2234 83.3835 29.4867 83.4851 29.7499C83.5866 30.0131 83.6496 30.2797 83.709 30.5078C83.7615 30.6588 83.7789 30.8517 83.7927 31.006C83.8031 31.1219 83.8135 31.2377 83.8661 31.3885L83.9424 32.2376C83.9493 32.3148 83.9176 32.3954 83.9245 32.4726C83.9315 32.5498 83.9349 32.5884 83.9032 32.6691C83.8785 32.827 83.8924 32.9813 83.8676 33.1391C83.8002 33.6898 83.6556 34.2475 83.4723 34.8088C83.3807 35.0893 83.2856 35.3313 83.1519 35.5768C83.1202 35.6574 83.085 35.6995 83.0533 35.7801C83.0216 35.8608 82.9864 35.9028 82.9161 35.987C82.8492 36.1097 82.7437 36.2359 82.6769 36.3586C82.5045 36.6076 82.3286 36.8179 82.1528 37.0282C82.0825 37.1124 81.9735 37.2 81.9032 37.284C81.8328 37.3682 81.7204 37.4173 81.65 37.5013C81.5411 37.5889 81.4321 37.6765 81.3197 37.7256C81.0982 37.8622 80.8382 38.0023 80.5747 38.1038C80.3498 38.2018 80.0828 38.2647 79.8544 38.3241C79.7489 38.4503 79.64 38.5379 79.5731 38.6607C79.3586 38.8745 79.1441 39.0883 78.8875 39.2669C78.7786 39.3545 78.6696 39.4421 78.5571 39.4912C78.5254 39.5718 78.4903 39.6139 78.3778 39.6629C78.304 39.7085 78.2268 39.7154 78.146 39.6837C78.1074 39.6872 78.1074 39.6872 78.0722 39.7293C77.9984 39.7748 77.9177 39.7432 77.8369 39.7115L77.6051 39.7324C77.2926 39.7216 76.9448 39.7528 76.6322 39.742C76.2037 39.7416 75.7753 39.7412 75.3469 39.7407C75.3642 39.9337 75.3428 40.1302 75.3602 40.3232C75.3741 40.4776 75.3459 40.5968 75.3597 40.7512C75.3666 40.8284 75.335 40.909 75.3419 40.9862C75.3523 41.102 75.324 41.2213 75.2924 41.3019C75.2958 41.3405 75.2572 41.344 75.2607 41.3825L75.1551 41.5088C75.0814 41.5543 75.0041 41.5613 74.9268 41.5682C74.8461 41.5365 74.7654 41.5048 74.7197 41.4312C74.6811 41.4346 74.6459 41.4767 74.6073 41.4802C74.4597 41.5713 74.3507 41.6589 74.2032 41.75C74.0941 41.8376 74.0238 41.9217 73.957 42.0444C73.8901 42.1671 73.8232 42.2898 73.7598 42.4512C73.7281 42.5318 73.6964 42.6125 73.7068 42.7283C73.6786 42.8475 73.6538 43.0053 73.6677 43.1598C73.6781 43.2755 73.6533 43.4334 73.6638 43.5492L73.7401 44.3983C73.7539 44.5526 73.7678 44.707 73.8203 44.8579C73.8798 45.0859 73.9427 45.3527 74.0021 45.5808C74.0546 45.7316 74.1071 45.8826 74.1596 46.0335C74.1982 46.03 74.2404 46.0651 74.2439 46.1037C74.2473 46.1423 74.2473 46.1423 74.2121 46.1844C74.2191 46.2616 74.2612 46.2967 74.2682 46.3739C74.2716 46.4125 74.3137 46.4476 74.3172 46.4862C74.3559 46.4827 74.3559 46.4827 74.3979 46.5178C74.3979 46.5178 74.44 46.5529 74.4435 46.5916C74.447 46.6301 74.447 46.6301 74.4118 46.6722C74.4643 46.8231 74.5555 46.9706 74.608 47.1214C74.7095 47.3846 74.8497 47.6444 74.9478 47.8691C74.9934 47.9427 74.9968 47.9814 75.0424 48.0551C75.1791 48.2762 75.2772 48.5008 75.4525 48.7185C75.456 48.7571 75.4946 48.7536 75.4982 48.7922C75.4982 48.7922 75.5403 48.8273 75.5437 48.866C75.5437 48.866 75.5437 48.866 75.5471 48.9045C75.6805 49.0871 75.8137 49.2696 75.9083 49.4556C76.0871 49.7119 76.2239 49.9331 76.364 50.1928C76.5042 50.4526 76.6444 50.7123 76.7846 50.972C76.9248 51.2318 77.0264 51.495 77.1279 51.7582C77.2294 52.0214 77.2924 52.2881 77.3939 52.5513C77.5584 53.0813 77.6877 53.6532 77.7784 54.2286C77.8413 54.4953 77.8656 54.7654 77.8933 55.0743C77.9176 55.3443 77.9419 55.6145 77.9275 55.8882C77.9201 56.239 77.8706 56.5547 77.7859 56.9124C77.7225 57.0737 77.6591 57.2351 77.5957 57.3963C77.564 57.4771 77.5323 57.5577 77.4619 57.6419C77.4654 57.6804 77.4268 57.6839 77.4302 57.7225C77.4337 57.7611 77.4723 57.7576 77.4758 57.7962C77.5214 57.87 77.4897 57.9506 77.458 58.0312C77.4263 58.1119 77.3524 58.1575 77.2787 58.203C77.2401 58.2064 77.2401 58.2064 77.2014 58.21C77.1628 58.2134 77.0855 58.2204 77.0434 58.1853C76.9626 58.1536 76.8819 58.122 76.7625 58.0937C76.5624 58.034 76.3622 57.9741 76.1621 57.9143C76.0428 57.8861 75.9234 57.858 75.7689 57.8718C75.6881 57.8402 75.5722 57.8506 75.4949 57.8576C75.1437 57.8502 74.8346 57.8779 74.4834 57.8707L73.4788 57.9609C73.1312 57.9922 72.822 58.0199 72.4708 58.0126L69.573 58.273C69.5765 58.3116 69.5414 58.3537 69.5062 58.3957C69.4745 58.4764 69.4393 58.5185 69.4041 58.5605C69.3304 58.6061 69.2531 58.613 69.1758 58.62C68.8142 58.4969 68.4947 58.4089 68.1718 58.2822C67.8874 58.1521 67.5679 58.0642 67.2836 57.9341C66.9993 57.804 66.7183 57.7125 66.4726 57.579C66.1884 57.4489 65.9005 57.2802 65.6513 57.1082C65.5285 57.0414 65.4022 56.936 65.3111 56.7885C65.1778 56.606 65.1219 56.4165 65.1045 56.2235C65.0906 56.0692 65.0381 55.9183 65.0242 55.7639C65.0104 55.6095 64.993 55.4165 65.0178 55.2587C65.0425 55.1008 65.0287 54.9464 65.0569 54.8272C65.0817 54.6694 65.1064 54.5116 65.1347 54.3923C65.2229 54.0731 65.311 53.7539 65.4026 53.4734C65.4942 53.1928 65.6245 52.9087 65.7582 52.6633C65.8251 52.5406 65.9271 52.3758 65.994 52.253C66.0609 52.1303 66.1664 52.0041 66.2368 51.92C66.3036 51.7973 66.3705 51.6746 66.4408 51.5904C66.5076 51.4677 66.536 51.3484 66.5642 51.2291C66.5924 51.1099 66.6172 50.9521 66.6454 50.8328C66.6736 50.7135 66.6632 50.5977 66.6914 50.4785C66.6775 50.3241 66.7058 50.2048 66.6919 50.0505L66.6537 49.626C66.5943 49.3979 66.5314 49.1311 66.4333 48.9066C66.3704 48.6399 66.2724 48.4152 66.1708 48.152C66.0514 48.1238 65.8933 48.0991 65.774 48.071C65.6546 48.0428 65.5352 48.0146 65.4159 47.9865C65.2965 47.9582 65.1385 47.9336 65.0156 47.8668C65.026 47.9825 64.9557 48.0667 64.8398 48.0771C64.7239 48.0875 64.6396 48.0173 64.6293 47.9015L64.5668 47.2069C64.5564 47.091 64.5426 46.9367 64.5708 46.8174C64.599 46.6981 64.6659 46.5754 64.7748 46.4878C64.8452 46.4037 64.9541 46.3161 65.021 46.1934C65.0527 46.1127 65.1231 46.0286 65.1547 45.9479C65.2181 45.7866 65.2008 45.5936 65.2256 45.4358C65.2434 45.2008 65.226 45.0078 65.2053 44.7762L65.174 44.4289C65.1354 44.4323 65.1319 44.3938 65.0933 44.3972C65.0512 44.3621 65.0056 44.2884 64.9987 44.2112C64.9813 44.0183 64.9219 43.7901 64.9045 43.5971C64.8942 43.4813 64.8451 43.369 64.8347 43.2533C64.7787 43.0637 64.7227 42.8743 64.6667 42.6848C64.6211 42.6111 64.6108 42.4952 64.5652 42.4216C64.5197 42.3479 64.4706 42.2356 64.425 42.1618C64.376 42.0495 64.2883 41.9407 64.2427 41.867C64.1551 41.7581 64.106 41.6458 64.0183 41.537C63.843 41.3193 63.7062 41.0982 63.4923 40.8839C63.3203 40.7049 63.1132 40.5678 62.9448 40.4274C62.822 40.3606 62.7379 40.2904 62.6149 40.2236C62.4535 40.1603 62.3272 40.055 62.1622 39.953C61.9973 39.8511 61.8709 39.7457 61.7798 39.5984C61.7342 39.5246 61.6886 39.4509 61.6782 39.3351C61.5554 39.2684 61.4677 39.1595 61.4539 39.0052C61.4504 38.9665 61.4469 38.928 61.4821 38.8859L61.4434 38.8894C61.1661 38.8365 60.8921 38.8222 60.6147 38.7693C60.0247 38.7056 59.4348 38.6419 58.8483 38.6168C58.771 38.6238 58.6517 38.5956 58.5744 38.6025C58.4198 38.6164 58.3004 38.5882 58.1459 38.6022C57.9913 38.616 57.8333 38.5913 57.6788 38.6052C57.3662 38.5944 57.0185 38.6257 56.7059 38.6148C56.0456 38.6353 55.3888 38.6943 54.732 38.7533C53.457 38.8679 52.1923 39.0983 50.9313 39.3672C50.854 39.3742 50.7767 39.3811 50.7415 39.4231C50.0916 39.5594 49.4452 39.7342 48.8023 39.9476C48.4614 40.0561 48.1206 40.1645 47.7798 40.2729C47.6288 40.3255 47.4777 40.3779 47.3267 40.4304C47.1369 40.4863 46.9859 40.5388 46.7995 40.6334C46.4974 40.7383 46.1987 40.8819 45.8579 40.9903L45.8228 41.0324C45.7876 41.0745 45.6751 41.1234 45.633 41.0883C44.73 41.4418 43.8726 41.869 43.0152 42.2962C42.3826 42.6254 41.7922 42.9898 41.1631 43.3575C40.5727 43.7218 39.9857 44.1247 39.4021 44.5662L39.3635 44.5698C38.7062 45.0567 38.0524 45.5824 37.4407 46.1431C37.1172 46.4446 36.8324 46.7425 36.5475 47.0404C36.4386 47.128 36.2875 47.1805 36.1612 47.0751C36.119 47.04 36.1156 47.0015 36.0735 46.9663C35.444 47.7621 34.7337 48.5263 33.9391 49.2201C33.6508 49.4795 33.3591 49.7002 33.0639 49.8823C32.7335 50.1066 32.3996 50.2922 32.0658 50.4779C31.3945 50.8105 30.6357 51.0343 29.9016 51.1002C29.5538 51.1315 29.2027 51.1242 28.8445 51.0397C28.4512 50.9972 28.0896 50.8741 27.7666 50.7475C27.4437 50.6209 27.1138 50.4171 26.826 50.2485C26.4961 50.0447 26.24 49.7953 25.9453 49.5495C24.8788 48.517 24.1391 47.2218 23.5893 45.8707C22.9973 44.4843 22.5881 42.9648 22.2983 41.4736C21.9491 39.7542 21.7717 38.214 21.6716 36.6667ZM37.7863 23.1188C37.6634 23.052 37.5827 23.0204 37.4599 22.9536C37.4599 22.9536 37.4599 22.9536 37.4212 22.957C37.4317 23.0729 37.3226 23.1605 37.2102 23.2094C37.1329 23.2164 37.0977 23.2585 37.024 23.304C36.9502 23.3495 36.8377 23.3986 36.7674 23.4827L36.486 23.8192C36.4509 23.8613 36.4191 23.9419 36.384 23.984C36.3523 24.0647 36.3172 24.1067 36.2854 24.1875C36.2185 24.3102 36.1903 24.4294 36.1621 24.5487C36.1021 24.7486 36.0423 24.9485 35.9857 25.187C35.9575 25.3063 35.9293 25.4255 35.9397 25.5413C35.9115 25.6605 35.9184 25.7377 35.9288 25.8535C35.9392 25.9693 35.9076 26.05 35.918 26.1657L35.9526 26.5516C35.9734 26.7833 36.0329 27.0113 36.0537 27.2429C36.0606 27.3201 36.1062 27.3938 36.1166 27.5096C36.1725 27.6991 36.2251 27.85 36.3197 28.036C36.4109 28.1834 36.502 28.3309 36.6318 28.4748C36.6773 28.5486 36.7581 28.5802 36.8037 28.6539C36.8423 28.6504 36.8457 28.6891 36.8844 28.6855L37.1935 28.6578C37.2322 28.6543 37.306 28.6087 37.3446 28.6053C37.4922 28.5142 37.6398 28.4231 37.7487 28.3355C37.8578 28.2479 37.9633 28.1217 38.0301 27.999C38.1287 27.7956 38.2273 27.5923 38.2837 27.3537C38.3754 27.0731 38.4318 26.8346 38.4848 26.5575C38.5096 26.3997 38.5343 26.2418 38.5591 26.084C38.5839 25.9261 38.6121 25.8069 38.5983 25.6526C38.6195 25.4561 38.6022 25.2631 38.5849 25.0701L38.5536 24.7228C38.5467 24.6456 38.5397 24.5685 38.4942 24.4947C38.4872 24.4175 38.4416 24.3438 38.4313 24.228C38.3753 24.0385 38.3193 23.849 38.2247 23.663C38.1336 23.5155 38.0459 23.4067 37.9547 23.2593C37.9091 23.1855 37.8284 23.1539 37.7863 23.1188ZM80.7862 37.4234C81.0814 37.2413 81.3766 37.0591 81.6297 36.8418C81.809 36.67 81.9849 36.4597 82.1607 36.2494C82.3014 36.0812 82.4 35.8777 82.5406 35.7095C82.611 35.6253 82.6427 35.5447 82.6744 35.464C82.7412 35.3413 82.7729 35.2607 82.8398 35.138C82.9384 34.9345 82.9983 34.7346 83.0582 34.5347C83.1216 34.3734 83.1464 34.2155 83.2098 34.0542C83.2346 33.8963 83.298 33.7351 83.3193 33.5386C83.3688 33.2229 83.4148 32.8686 83.4223 32.5177C83.4084 32.3634 83.4366 32.2441 83.4227 32.0897L83.3811 31.6266C83.3672 31.4723 83.3499 31.2793 83.2974 31.1285C83.2835 30.974 83.231 30.8232 83.2171 30.6688C83.1646 30.5179 83.1156 30.4056 83.0631 30.2547C83.0106 30.1037 82.958 29.9528 82.9055 29.8019C82.8005 29.5001 82.6569 29.2018 82.5167 28.942C82.3799 28.7209 82.2853 28.5349 82.1486 28.3137C82.0609 28.2049 81.9733 28.0961 81.9207 27.9452C81.8786 27.91 81.8331 27.8363 81.8296 27.7977C81.7875 27.7626 81.784 27.724 81.7419 27.6888C81.8539 28.0679 81.9307 28.4889 81.9653 28.8749C82.0595 29.4889 82.115 30.1064 82.1318 30.7274L82.1492 30.9203C82.1561 30.9976 82.163 31.0748 82.1279 31.1167C82.1066 31.3132 82.0853 31.5096 82.0992 31.664C82.0883 31.9763 82.0387 32.292 82.0244 32.5656C81.9749 32.8812 81.9605 33.1549 81.911 33.4706C81.8614 33.7863 81.8085 34.0634 81.7203 34.3826C81.6955 34.5404 81.6321 34.7018 81.5687 34.863C81.5053 35.0244 81.4419 35.1857 81.4172 35.3435C81.3255 35.6242 81.1953 35.9082 81.065 36.1923C80.9347 36.4763 80.801 36.7217 80.6321 37.0092C80.5335 37.2127 80.4315 37.3774 80.2943 37.5843C80.4454 37.5318 80.5964 37.4793 80.7862 37.4234ZM76.9141 38.9775C77.1494 38.9951 77.4233 39.0095 77.6586 39.0272C77.7745 39.0168 77.8552 39.0484 77.9711 39.038L78.0098 39.0346C78.1574 38.9435 78.305 38.8524 78.414 38.7648C78.4878 38.7193 78.5581 38.6352 78.6706 38.5861C78.6319 38.5897 78.5933 38.5931 78.5125 38.5614C78.4704 38.5263 78.4283 38.4912 78.3828 38.4175C78.3337 38.3052 78.3971 38.1439 78.5096 38.0948C78.8083 37.9513 79.1139 37.8849 79.416 37.78C79.5567 37.6116 79.6974 37.4434 79.796 37.24C80.0317 36.8298 80.2675 36.4195 80.4646 36.0127C80.6618 35.606 80.8168 35.1641 80.9718 34.7222C81.0001 34.603 81.0283 34.4837 81.0952 34.361C81.1199 34.2031 81.1482 34.0838 81.2116 33.9226C81.2646 33.6454 81.3175 33.3683 81.3705 33.0913C81.3918 32.8948 81.4131 32.6984 81.4344 32.5019C81.4805 32.1477 81.4879 31.7967 81.534 31.4425C81.5483 31.1689 81.5627 30.8952 81.5384 30.625C81.5141 30.3549 81.525 30.0427 81.4621 29.776C81.4413 29.5445 81.4239 29.3515 81.4066 29.1586C81.3997 29.0814 81.3927 29.0041 81.3437 28.8918C81.2773 28.5865 81.253 28.3164 81.1866 28.0111C81.1762 27.8953 81.1272 27.783 81.1168 27.6672C81.1099 27.59 81.0608 27.4777 81.0539 27.4005C81.0469 27.3234 81.0014 27.2496 80.9944 27.1724C80.991 27.1339 80.9454 27.0601 80.9419 27.0215L80.9384 26.983C80.8156 26.9162 80.7244 26.7687 80.7879 26.6075C80.7879 26.6075 80.7879 26.6075 80.7844 26.5688C80.7353 26.4565 80.6898 26.3828 80.6407 26.2705C80.504 26.0494 80.3707 25.8668 80.1989 25.6878C80.0304 25.5473 79.8972 25.3647 79.6901 25.2277L79.6515 25.2312C79.4935 25.2065 79.3741 25.1783 79.2161 25.1536C78.9 25.1041 78.584 25.0548 78.268 25.0053C78.0713 24.9841 77.8326 24.9277 77.6359 24.9065C77.7375 25.1697 77.8425 25.4715 77.9054 25.7382C78.007 26.0014 78.0664 26.2295 78.1293 26.4962C78.1328 26.5348 78.1328 26.5348 78.1363 26.5734C78.1992 26.8401 78.2621 27.1068 78.325 27.3734C78.3879 27.6402 78.4087 27.8717 78.433 28.1419C78.5237 28.7173 78.5722 29.2577 78.6243 29.8365C78.6485 30.1067 78.6728 30.3769 78.6585 30.6505C78.6827 30.9206 78.6719 31.2329 78.6575 31.5065C78.6679 31.6222 78.6431 31.7801 78.6149 31.8994C78.5867 32.0187 78.6005 32.173 78.5723 32.2923C78.5193 32.5694 78.505 32.843 78.452 33.1201C78.399 33.3971 78.3812 33.6322 78.2895 33.9128C78.2365 34.1899 78.1449 34.4704 78.0533 34.751C77.9616 35.0317 77.8665 35.2736 77.7749 35.5541C77.6798 35.7961 77.5847 36.0382 77.4896 36.2802C77.2608 36.7676 77.0319 37.255 76.761 37.7073C76.659 37.8721 76.5569 38.0369 76.4549 38.2017C76.3528 38.3665 76.2087 38.4962 76.1067 38.6609C76.0363 38.7451 75.966 38.8292 75.8957 38.9133C76.2468 38.9207 76.5594 38.9315 76.9141 38.9775ZM75.1897 38.8601C75.3691 38.6883 75.5098 38.5201 75.6891 38.3483C75.7946 38.2221 75.9001 38.0959 76.0056 37.9697C76.1111 37.8435 76.1814 37.7594 76.2483 37.6366C76.5193 37.1843 76.7867 36.6934 77.019 36.2446C77.1527 35.9992 77.2478 35.7572 77.343 35.5152C77.438 35.2732 77.5332 35.0313 77.6283 34.7893C77.6951 34.6665 77.7199 34.5087 77.7833 34.3473C77.8115 34.2281 77.8432 34.1474 77.8714 34.0282C77.8997 33.9089 77.9244 33.7511 77.9527 33.6318C78.0091 33.3933 78.027 33.1583 78.0834 32.9198C78.1577 32.4463 78.1899 31.9375 78.2642 31.464C78.2538 31.3482 78.2786 31.1904 78.2681 31.0746C78.2577 30.9588 78.2473 30.843 78.2721 30.6852L78.1993 29.8747C78.1472 29.2958 78.06 28.759 78.008 28.18C77.9278 27.7204 77.8475 27.2607 77.7638 26.7625C77.7568 26.6853 77.7078 26.573 77.6974 26.4572C77.6414 26.2677 77.5889 26.1168 77.5364 25.9659C77.4279 25.6255 77.3194 25.2851 77.1688 24.9095L77.1549 24.7552C76.9583 24.7339 76.7582 24.6742 76.5229 24.6564C75.5327 24.4731 74.5811 24.2862 73.5909 24.1029L73.7296 25.6467C73.7539 25.9168 73.7361 26.1518 73.7252 26.464L73.7287 26.5027C73.7321 26.5412 73.6935 26.5447 73.697 26.5833C73.6618 26.6254 73.6232 26.6288 73.5845 26.6323C73.5459 26.6358 73.5072 26.6392 73.4652 26.6041C73.4231 26.569 73.4195 26.5304 73.4161 26.4918L73.4126 26.4532C73.4236 26.141 73.3957 25.8323 73.368 25.5235L73.2363 24.0569C73.1555 24.0253 73.0396 24.0356 72.9588 24.0041C72.6814 23.9512 72.4041 23.8983 72.1653 23.8419L72.1756 23.9577C72.1826 24.0349 72.1896 24.112 72.2351 24.1858L72.3288 25.2278C72.3323 25.2664 72.3392 25.3436 72.3041 25.3857C72.3109 25.4629 72.2372 25.5084 72.1564 25.4768C72.1177 25.4802 72.1143 25.4417 72.0757 25.4451C72.0722 25.4066 72.0688 25.3679 72.0688 25.3679L71.9925 24.5189C71.9716 24.2873 71.9121 24.0592 71.8948 23.8662C71.498 23.7852 71.1013 23.7041 70.6624 23.588L70.6659 23.6265C70.6728 23.7037 70.7149 23.7388 70.7219 23.816L70.7323 23.9318C70.7427 24.0475 70.7882 24.1213 70.7986 24.2371L70.8438 24.7388C70.8472 24.7774 70.812 24.8195 70.7734 24.8229C70.7347 24.8265 70.6926 24.7913 70.6892 24.7527L70.6475 24.2896C70.6372 24.1738 70.5881 24.0615 70.5777 23.9457C70.5707 23.8685 70.5218 23.7562 70.5148 23.679C70.5113 23.6404 70.5079 23.6018 70.4657 23.5667C70.069 23.4856 69.7108 23.4011 69.3141 23.3201C69.3666 23.471 69.3804 23.6253 69.4329 23.7763C69.4399 23.8535 69.489 23.9657 69.4959 24.0429C69.4993 24.0816 69.4993 24.0816 69.4642 24.1235C69.4642 24.1235 69.429 24.1656 69.3904 24.1691C69.3517 24.1726 69.3517 24.1726 69.3096 24.1375C69.2676 24.1023 69.2676 24.1023 69.264 24.0638L69.2606 24.0251C69.1977 23.7585 69.1383 23.5304 69.0753 23.2637C68.2431 23.105 67.4426 22.8657 66.6456 22.665C66.5649 22.6334 66.4841 22.6017 66.4069 22.6087C66.5926 22.9421 66.7784 23.2756 66.9255 23.6126C67.0692 23.9109 67.2163 24.2478 67.3214 24.5496C67.4264 24.8514 67.5348 25.1918 67.6398 25.4936C67.6923 25.6445 67.7484 25.834 67.7622 25.9884C67.8147 26.1393 67.8286 26.2936 67.8846 26.4832C67.9545 26.827 67.9856 27.1744 68.0169 27.5218L68.0585 27.9849C68.0758 28.1778 68.0511 28.3357 68.065 28.4901C68.0575 28.8409 68.0115 29.1951 68.004 29.5459C67.9792 29.7039 67.9546 29.8617 67.9332 30.0581C67.9084 30.216 67.8837 30.3738 67.8589 30.5316C67.8094 30.8473 67.7212 31.1665 67.6717 31.4822C67.4988 32.1592 67.3225 32.7975 67.0303 33.4462C66.9035 33.7689 66.7732 34.053 66.6043 34.3405C66.4389 34.6666 66.27 34.9541 66.1045 35.2802C66.0411 35.4416 65.9356 35.5677 65.8336 35.7325C65.7316 35.8973 65.6261 36.0235 65.5627 36.1848C65.3551 36.4758 65.1862 36.7633 64.9752 37.0157C64.9083 37.1384 64.7994 37.226 64.6903 37.3136C64.5848 37.4399 64.4407 37.5696 64.3318 37.6572C64.1138 37.8324 63.8959 38.0076 63.6779 38.1828C63.5303 38.2739 63.4179 38.3228 63.2703 38.414C63.2316 38.4174 63.2316 38.4174 63.1964 38.4595C63.351 38.4456 63.5056 38.4317 63.6636 38.4564C64.2853 38.4394 64.9104 38.4611 65.5354 38.4827C66.2765 38.4939 67.021 38.5438 67.762 38.555C67.8323 38.4708 67.8641 38.3902 67.9344 38.306C68.0013 38.1833 68.1033 38.0185 68.1702 37.8958C68.2054 37.8537 68.237 37.773 68.2722 37.731C68.3039 37.6503 68.3708 37.5276 68.4025 37.447C68.4377 37.4049 68.4728 37.3628 68.4659 37.2856C68.4976 37.205 68.5294 37.1243 68.5645 37.0822C68.6279 36.9209 68.6913 36.7596 68.7933 36.5948C68.8602 36.4721 68.8884 36.3528 68.9553 36.2301C68.9905 36.188 69.0256 36.146 69.0642 36.1425C69.1029 36.139 69.1029 36.139 69.145 36.1742C69.2258 36.2057 69.2327 36.2829 69.201 36.3636C69.1059 36.6056 69.0073 36.809 68.9088 37.0124C68.8805 37.1316 68.8102 37.2158 68.7819 37.3351C68.7467 37.3771 68.7503 37.4157 68.7151 37.4578C68.6833 37.5384 68.613 37.6226 68.5814 37.7032C68.5496 37.7838 68.5145 37.8259 68.4827 37.9066C68.4159 38.0293 68.3138 38.1941 68.247 38.3168C68.1767 38.401 68.1449 38.4816 68.0746 38.5658C68.3872 38.5766 68.6997 38.5874 69.0123 38.5982C69.308 37.988 69.6003 37.3393 69.8925 36.6906C69.9277 36.6485 69.9628 36.6064 70.0401 36.5994C70.0787 36.596 70.0787 36.596 70.1208 36.6311C70.2016 36.6627 70.2506 36.775 70.2189 36.8557C70.0535 37.1819 69.8915 37.5466 69.726 37.8727C69.5923 38.1181 69.4586 38.3635 69.3283 38.6476C69.367 38.6441 69.4056 38.6407 69.4056 38.6407C70.3047 38.6766 71.2037 38.7125 72.1062 38.787C72.3802 38.8014 72.6541 38.8156 72.928 38.8299L72.9667 38.8264C73.0439 38.8194 73.1212 38.8126 73.2019 38.8441C73.8587 38.7851 74.5225 38.8033 75.1897 38.8601ZM68.5036 56.774C68.5457 56.8091 68.5913 56.8828 68.6334 56.9179C68.8052 57.097 68.9771 57.2761 69.1455 57.4166L71.5797 57.1978C71.9274 57.1666 72.2752 57.1353 72.6264 57.1427C72.974 57.1114 73.2866 57.1222 73.6344 57.091C73.9821 57.0598 74.3298 57.0285 74.681 57.0358C74.8356 57.0219 75.0322 57.0432 75.1868 57.0293C75.3834 57.0505 75.5766 57.0331 75.8119 57.0509C75.9699 57.0756 76.1279 57.1003 76.2859 57.1251C76.4439 57.1497 76.6055 57.2131 76.7635 57.2377C76.8021 57.2343 76.8442 57.2694 76.8829 57.266C77.02 57.0591 77.1186 56.8557 77.1786 56.6558C77.2667 56.3366 77.3128 55.9823 77.3236 55.6701C77.3063 55.4771 77.3311 55.3193 77.3137 55.1263L77.2617 54.5473C77.2305 54.2001 77.1606 53.8561 77.0908 53.5123C77.0279 53.2457 76.9684 53.0175 76.8669 52.7543C76.8074 52.5262 76.7059 52.263 76.6465 52.0349C76.5484 51.8102 76.4854 51.5436 76.3488 51.3225C76.2506 51.0978 76.1139 50.8767 76.0124 50.6134C75.8722 50.3537 75.7354 50.1326 75.5988 49.9114C75.4585 49.6517 75.2831 49.434 75.1465 49.2128C75.1008 49.1392 75.0132 49.0304 74.9676 48.9566C74.6234 49.0264 74.2791 49.0963 73.9348 49.1661C73.8962 49.1696 73.8576 49.1731 73.8541 49.1345C73.812 49.0994 73.812 49.0994 73.8085 49.0607C73.8051 49.0222 73.8016 48.9836 73.8403 48.9801C73.8754 48.938 73.8754 48.938 73.914 48.9346C74.181 48.8717 74.448 48.8087 74.6764 48.7494C74.715 48.7459 74.7923 48.7389 74.8274 48.6968C74.7819 48.6231 74.7328 48.5108 74.6872 48.4371C74.6417 48.3634 74.5996 48.3282 74.5926 48.2511C74.2028 48.2472 73.8165 48.2819 73.388 48.2815C73.272 48.292 73.1948 48.2989 73.0754 48.2707C73.0368 48.2742 73.0333 48.2356 73.0333 48.2356C73.0298 48.197 73.0684 48.1935 73.0684 48.1935C73.4548 48.1588 73.8447 48.1627 74.2345 48.1666L74.5049 48.1422C74.4138 47.9948 74.3613 47.8439 74.2667 47.6579C74.2211 47.5842 74.1755 47.5105 74.1686 47.4333C73.6207 47.4047 73.0728 47.3761 72.5602 47.3055C72.5215 47.3089 72.4795 47.2738 72.476 47.2353C72.4338 47.2001 72.4304 47.1615 72.4656 47.1195C72.4622 47.0808 72.4973 47.0388 72.5359 47.0353C72.5745 47.0318 72.5711 46.9932 72.6097 46.9898L72.6484 46.9863C73.119 47.0218 73.5861 47.0188 74.0567 47.0543C74.0042 46.9033 73.913 46.756 73.857 46.5665C73.5127 46.6363 73.1685 46.7061 72.8242 46.776C72.4027 46.8528 71.9812 46.9296 71.5596 47.0064C71.4823 47.0133 71.4051 47.0202 71.3313 47.0658C71.2926 47.0692 71.2505 47.0341 71.247 46.9956C71.2436 46.9569 71.2436 46.9569 71.2788 46.9148C71.2788 46.9148 71.314 46.8728 71.3525 46.8693C71.5809 46.8099 71.7741 46.7925 72.0024 46.7331C72.2308 46.6737 72.424 46.6564 72.6523 46.5969C73.0352 46.5236 73.4182 46.4503 73.801 46.3769C73.7554 46.3033 73.7064 46.1909 73.6995 46.1137C73.696 46.0752 73.696 46.0752 73.6539 46.0401C73.2675 46.0748 72.9163 46.0674 72.5299 46.1021C72.1436 46.1368 71.7537 46.133 71.3287 46.1711L71.097 46.192C71.0583 46.1955 71.0162 46.1603 71.0127 46.1218C71.0092 46.0831 71.0444 46.041 71.0831 46.0376C71.5467 45.9959 71.9752 45.9963 72.4388 45.9547C72.8252 45.92 73.1764 45.9273 73.5628 45.8926C73.5103 45.7417 73.4999 45.6259 73.4474 45.475C73.4438 45.4364 73.4404 45.3978 73.3983 45.3627C73.2933 45.0609 73.269 44.7907 73.2026 44.4855L73.1055 43.4048C73.0951 43.289 73.1233 43.1697 73.1129 43.054C73.099 42.8996 73.1238 42.7417 73.1486 42.5839C73.1802 42.5033 73.1733 42.4261 73.205 42.3454C73.2932 42.0262 73.4235 41.7422 73.6379 41.5284C73.7434 41.4022 73.8875 41.2725 73.9966 41.1849C74.1407 41.0552 74.2883 40.9642 74.478 40.9082C74.5518 40.8627 74.6291 40.8557 74.6643 40.8136C74.6469 40.6207 74.6717 40.4628 74.6544 40.2699C74.6335 40.0384 74.6549 39.8419 74.634 39.6104C73.4258 39.6022 72.2177 39.594 71.0095 39.5859C69.7242 39.5847 68.4739 39.5414 67.185 39.5016C66.7951 39.4978 66.4053 39.4939 66.012 39.4515C66.0541 39.4866 66.0611 39.5637 66.1031 39.5989C66.2468 39.8972 66.3904 40.1956 66.5342 40.4939C66.6813 40.8308 66.7863 41.1326 66.9334 41.4695C66.9859 41.6205 67.0349 41.7327 67.1261 41.8801C67.2208 42.0662 67.2767 42.2557 67.3713 42.4417C67.515 42.7401 67.62 43.0418 67.7285 43.3823C67.837 43.7227 67.9842 44.0596 68.0926 44.4C68.3062 45.0422 68.5583 45.6809 68.7718 46.3231C68.8803 46.6635 69.0274 47.0005 69.1359 47.3409C69.1884 47.4918 69.2409 47.6427 69.2969 47.8322C69.3494 47.9831 69.3984 48.0954 69.4123 48.2498C69.4648 48.4007 69.4787 48.5551 69.4925 48.7094C69.5099 48.9024 69.4886 49.0989 69.506 49.2918C69.4812 49.4497 69.4564 49.6075 69.4317 49.7653C69.4069 49.9232 69.3856 50.1197 69.3222 50.2809C69.2622 50.4809 69.2024 50.6808 69.139 50.8422C69.0439 51.0841 68.9487 51.3261 68.8536 51.5681C68.7199 51.8135 68.6283 52.0941 68.4945 52.3395C68.2622 52.7883 68.0721 53.2724 67.9204 53.7528C67.8888 53.8335 67.8922 53.8721 67.8606 53.9528C67.8358 54.1106 67.8076 54.2299 67.8214 54.3842C67.8353 54.5386 67.8071 54.6579 67.8209 54.8122L67.8625 55.2753C67.8695 55.3525 67.8729 55.3911 67.9186 55.4649C67.9711 55.6157 68.0236 55.7666 68.0726 55.879C68.1182 55.9527 68.1216 55.9913 68.1672 56.0651C68.2163 56.1773 68.2618 56.2511 68.3074 56.3247L68.2653 56.2896C68.2827 56.4826 68.3738 56.63 68.5036 56.774ZM66.5755 47.4542C66.9722 47.5354 67.3655 47.5778 67.7623 47.6589C67.7519 47.543 67.7449 47.4658 67.6959 47.3536C67.6329 47.0869 67.5736 46.8588 67.472 46.5956C67.465 46.5184 67.4195 46.4447 67.4125 46.3675C67.4091 46.3289 67.367 46.2937 67.3635 46.2552C67.3145 46.1429 67.2654 46.0305 67.2199 45.9569C67.2164 45.9182 67.1708 45.8445 67.1287 45.8094C67.1252 45.7709 67.0831 45.7357 67.0797 45.6971C66.985 45.5111 66.8518 45.3285 66.7537 45.1039L66.7641 45.2197C66.778 45.374 66.7497 45.4933 66.725 45.6512C66.6967 45.7705 66.672 45.9283 66.6437 46.0475C66.6155 46.1668 66.5521 46.3281 66.5239 46.4473C66.4956 46.5666 66.4288 46.6893 66.3619 46.8121C66.2951 46.9348 66.2282 47.0575 66.1613 47.1802C66.1296 47.2609 66.0558 47.3065 66.0241 47.3871C66.2173 47.3698 66.3787 47.433 66.5755 47.4542ZM65.0661 46.6951C65.0309 46.7372 64.9923 46.7406 64.9957 46.7793C64.9957 46.7793 64.9993 46.8178 64.9606 46.8212C64.9641 46.8599 64.9675 46.8984 64.9289 46.902L64.9532 47.1721L65.0691 47.1617C65.1077 47.1582 65.1077 47.1582 65.1464 47.1548C65.2271 47.1864 65.343 47.176 65.4237 47.2077C65.4941 47.1235 65.5644 47.0393 65.6347 46.9553C65.7051 46.8711 65.7368 46.7905 65.8071 46.7063C65.874 46.5836 65.9409 46.4609 66.0078 46.3381C66.0746 46.2154 66.1028 46.0961 66.1697 45.9734C66.2261 45.7349 66.2827 45.4964 66.3005 45.2614C66.3148 44.9877 66.2905 44.7175 66.2663 44.4474C66.2628 44.4088 66.2628 44.4088 66.2593 44.3703C66.1681 44.2228 66.0805 44.1139 66.028 43.9631C65.9858 43.9279 65.979 43.8507 65.9755 43.8122L65.9369 43.8156C65.8561 43.784 65.7789 43.7909 65.6981 43.7593C65.7016 43.7978 65.705 43.8365 65.6698 43.8785C65.6659 44.2679 65.7041 44.6925 65.7036 45.1205C65.6858 45.3555 65.6714 45.6292 65.6535 45.8642C65.6219 45.9448 65.5902 46.0255 65.5584 46.1061C65.5302 46.2254 65.4213 46.313 65.3544 46.4357C65.284 46.5199 65.1751 46.6075 65.0661 46.6951ZM62.7071 39.515C62.8721 39.6169 62.9949 39.6837 63.1178 39.7505C63.4056 39.9191 63.6547 40.0913 63.8687 40.3055C64.0827 40.5196 64.3001 40.7724 64.4824 41.0673C64.5701 41.1761 64.6192 41.2884 64.7069 41.3973C64.798 41.5448 64.8857 41.6536 64.9382 41.8044L64.9417 41.8431C65.0887 42.18 65.2359 42.5169 65.3057 42.8608C65.3582 43.0117 65.3721 43.1661 65.4246 43.317C65.4633 43.3135 65.4985 43.2714 65.5757 43.2645C65.6144 43.261 65.6917 43.2541 65.7337 43.2892C65.8531 43.3174 65.9338 43.349 66.0498 43.3387C66.1691 43.3668 66.2885 43.395 66.4466 43.4197C66.5273 43.4513 66.5694 43.4864 66.6115 43.5215C66.6571 43.5953 66.6605 43.6338 66.6675 43.7111C66.671 43.7496 66.6358 43.7917 66.6007 43.8338L66.6318 44.1811C66.6774 44.2548 66.7195 44.2899 66.765 44.3637C66.8984 44.5462 66.993 44.7323 67.091 44.9568C67.2243 45.1394 67.3223 45.364 67.4205 45.5887C67.4695 45.701 67.5151 45.7747 67.5641 45.887C67.6132 45.9994 67.6621 46.1116 67.7078 46.1854C67.7673 46.4134 67.8653 46.6381 67.9248 46.8662C67.9773 47.017 67.9877 47.1328 68.0367 47.2451C68.0436 47.3223 68.0927 47.4347 68.0996 47.5119L68.1239 47.782C68.1625 47.7785 68.1625 47.7785 68.2012 47.7751C68.3592 47.7998 68.4503 47.9471 68.4255 48.105C68.4008 48.2629 68.2532 48.3539 68.0952 48.3292C68.0565 48.3328 68.0179 48.3362 68.0144 48.2976L67.9758 48.3011C67.9372 48.3045 67.8985 48.308 67.8564 48.2729L66.9083 48.1247C66.9608 48.2755 67.0133 48.4265 67.0658 48.5774C67.1709 48.8791 67.2373 49.1844 67.3071 49.5284L67.3453 49.9528C67.3627 50.1458 67.3379 50.3036 67.3517 50.4581C67.3408 50.7703 67.2913 51.086 67.161 51.37C67.1328 51.4893 67.0659 51.612 66.9991 51.7347C66.9322 51.8574 66.8653 51.9802 66.7598 52.1064C66.6226 52.3133 66.4854 52.5201 66.3096 52.7304C66.2392 52.8146 66.2076 52.8952 66.1793 53.0145C66.1089 53.0987 66.0807 53.2179 66.0525 53.3371C65.954 53.5405 65.8975 53.7791 65.7989 53.9824C65.7989 53.9824 65.7637 54.0245 65.7672 54.0631C65.7321 54.1052 65.7321 54.1051 65.7355 54.1437C65.7355 54.1437 65.7355 54.1437 65.7321 54.1051C65.6687 54.2664 65.6052 54.4278 65.6225 54.6208C65.6013 54.8171 65.5413 55.0171 65.5201 55.2136C65.5305 55.3293 65.5057 55.4872 65.5162 55.6029C65.53 55.7573 65.5369 55.8345 65.5894 55.9854L65.5929 56.0241C65.5998 56.1012 65.6454 56.1749 65.6489 56.2135C65.6489 56.2135 65.6489 56.2135 65.6523 56.2521C65.7366 56.3224 65.8208 56.3926 65.9015 56.4242C66.3156 56.6982 66.8001 56.8882 67.2494 57.1202C67.4916 57.2151 67.7373 57.3487 67.9795 57.4435C68.0989 57.4718 68.1831 57.542 68.3025 57.5702C68.2603 57.5351 68.2183 57.5 68.2148 57.4613C68.0008 57.2471 67.8255 57.0295 67.6887 56.8083C67.5555 56.6258 67.4573 56.4011 67.3628 56.2151C67.2225 55.9553 67.1948 55.6466 67.1285 55.3413L67.0799 54.801C67.0452 54.4151 67.0878 54.0222 67.1725 53.6644C67.2007 53.5451 67.2255 53.3873 67.2924 53.2646C67.4791 52.742 67.708 52.2547 67.9368 51.7672C68.0318 51.5252 68.1691 51.3183 68.2642 51.0764C68.3593 50.8344 68.4543 50.5924 68.5495 50.3504C68.6094 50.1505 68.6658 49.912 68.7258 49.7121C68.7857 49.5121 68.8036 49.2771 68.8248 49.0807C68.8179 49.0035 68.8075 48.8877 68.8392 48.8071L68.8046 48.4212C68.6926 48.0421 68.5841 47.7017 68.4721 47.3227C68.3636 46.9823 68.2165 46.6454 68.108 46.305C67.8558 45.6662 67.6458 45.0626 67.3936 44.4239C67.2852 44.0835 67.1381 43.7466 67.0295 43.4062C66.8859 43.1078 66.7774 42.7674 66.6338 42.4691C66.5357 42.2445 66.4411 42.0585 66.343 41.8338C66.2939 41.7215 66.2449 41.6093 66.1959 41.4969C66.0522 41.1986 65.9472 40.8968 65.8 40.5599C65.6984 40.2966 65.5583 40.0369 65.4602 39.8123C65.4147 39.7386 65.3691 39.6648 65.32 39.5525C65.2779 39.5174 65.2745 39.4788 65.2323 39.4437C64.6073 39.4221 64.0208 39.397 63.3921 39.3367C63.1182 39.3225 62.8829 39.3047 62.6441 39.2483C62.4966 39.3394 62.4579 39.3429 62.4193 39.3464C62.5 39.378 62.5843 39.4482 62.7071 39.515ZM37.2485 45.3045C37.2871 45.301 37.2871 45.301 37.2485 45.3045C37.825 44.7858 38.4085 44.3443 38.95 43.8677C39.7514 43.2509 40.5949 42.6694 41.4419 42.1264C41.92 41.8111 42.4014 41.5344 42.925 41.2929C42.8794 41.2191 42.869 41.1033 42.9394 41.0192C43.0063 40.8964 43.1152 40.8088 43.1821 40.6861C43.2524 40.602 43.3579 40.4758 43.4248 40.3531C43.562 40.1462 43.7378 39.9359 43.875 39.729C43.9805 39.6028 44.044 39.4415 44.146 39.2767C44.248 39.112 44.3114 38.9506 44.3714 38.7507C44.4347 38.5894 44.5333 38.3859 44.5967 38.2247C44.6601 38.0633 44.72 37.8635 44.78 37.6635C44.8399 37.4636 44.8998 37.2637 44.9597 37.0638C45.0163 36.8253 45.1113 36.5833 45.1291 36.3482C45.1609 36.2676 45.2346 36.2221 45.3119 36.2151L45.3506 36.2116C45.4699 36.2398 45.5155 36.3135 45.4873 36.4328C45.4694 36.6679 45.413 36.9063 45.36 37.1835C45.3036 37.4219 45.2471 37.6604 45.152 37.9024C45.152 37.9024 45.152 37.9024 45.1555 37.941C45.0921 38.1023 45.0673 38.2602 45.0004 38.3829C44.937 38.5442 44.9088 38.6635 44.8454 38.8248C44.7151 39.1088 44.5883 39.4315 44.4159 39.6805C44.247 39.968 44.0746 40.2168 43.8672 40.5078C43.7616 40.6341 43.6947 40.7568 43.5892 40.8829C43.5928 40.9216 43.5541 40.925 43.5575 40.9637L44.1163 40.68C44.7136 40.3929 45.3145 40.1443 45.9153 39.8958C45.9822 39.7731 46.0456 39.6117 46.1125 39.489C46.1759 39.3277 46.2359 39.1278 46.3344 38.9245C46.3661 38.8437 46.3944 38.7245 46.426 38.6438C46.4578 38.5632 46.4894 38.4825 46.5177 38.3632C46.5776 38.1633 46.6341 37.9248 46.6939 37.7249C46.7257 37.6443 46.7608 37.6022 46.8381 37.5952L46.8767 37.5918C46.9576 37.6235 47.0417 37.6937 47.0101 37.7744C46.9887 37.9708 46.9288 38.1707 46.8654 38.3321C46.8337 38.4127 46.8054 38.532 46.8124 38.6091C46.7807 38.6898 46.7524 38.809 46.7208 38.8896C46.6257 39.1317 46.5727 39.4088 46.4389 39.6542C46.8149 39.5037 47.1909 39.3532 47.5703 39.2413L47.866 38.6312C47.9646 38.4277 48.0244 38.2278 48.1231 38.0245L48.1583 37.9824C48.1583 37.9824 48.1583 37.9824 48.1969 37.9789L48.2355 37.9754L48.2776 38.0105C48.2811 38.0492 48.2811 38.0492 48.2845 38.0877C48.1612 38.449 47.9993 38.8137 47.8372 39.1784C48.403 38.9719 48.9721 38.8041 49.5447 38.6748C51.1783 38.2167 52.8645 37.9096 54.5646 37.7568L55.4146 37.6804C55.9168 37.6352 56.3839 37.6322 56.8897 37.6257C57.125 37.6434 57.3954 37.6191 57.6307 37.6369C57.7466 37.6265 57.9046 37.6512 58.0205 37.6408C58.1364 37.6303 58.2945 37.655 58.4139 37.6832C58.4525 37.6798 58.5297 37.6728 58.6106 37.7045C58.6492 37.7009 58.7264 37.694 58.7686 37.7291C58.8845 37.7187 59.0038 37.7469 59.1232 37.7751C59.3199 37.7963 59.5551 37.8141 59.7518 37.8353C59.9484 37.8566 60.1451 37.8778 60.3066 37.941C60.5419 37.9588 60.8193 38.0117 61.0966 38.0646C61.2968 38.1244 61.5321 38.1422 61.7322 38.202C61.7708 38.1985 61.7674 38.16 61.806 38.1565C62.0309 38.0584 62.2592 37.999 62.4841 37.901C62.6704 37.8064 62.8566 37.7119 63.0077 37.6594C63.194 37.5648 63.3416 37.4738 63.5243 37.3407C63.7071 37.2075 63.8513 37.0779 63.9954 36.9482C64.0306 36.9061 64.1043 36.8606 64.1395 36.8185C64.2098 36.7343 64.2802 36.6502 64.3505 36.5661C64.456 36.4399 64.5967 36.2716 64.7022 36.1455C64.9098 35.8544 65.1174 35.5635 65.3248 35.2725C65.4586 35.027 65.631 34.7781 65.7647 34.5327C65.8984 34.2872 66.0287 34.0031 66.2011 33.7542C66.3313 33.4702 66.4616 33.1861 66.5919 32.9021C66.687 32.6601 66.7786 32.3795 66.8703 32.0989C66.9619 31.8184 67.0183 31.5798 67.11 31.2992C67.1982 30.9801 67.2512 30.703 67.3007 30.3873C67.3502 30.0716 67.4032 29.7945 67.4527 29.4788C67.4775 29.321 67.5023 29.1631 67.5271 29.0053C67.5517 28.8475 67.5414 28.7316 67.5661 28.5738C67.5874 28.3774 67.5736 28.223 67.5563 28.03L67.5007 27.4125C67.466 27.0265 67.3927 26.644 67.3194 26.2616C67.2565 25.9949 67.1935 25.7283 67.092 25.4651C66.987 25.1632 66.8854 24.9 66.7804 24.5982C66.6754 24.2964 66.5738 24.0332 66.4336 23.7734C66.2935 23.5137 66.1884 23.2119 66.0483 22.9521C65.9536 22.7661 65.8624 22.6187 65.7679 22.4327C65.6871 22.401 65.6451 22.3659 65.5678 22.3728C65.487 22.3412 65.4062 22.3096 65.2869 22.2814L65.0937 22.2988C64.8549 22.2423 64.5776 22.1895 64.3387 22.1331C64.0614 22.0803 63.784 22.0274 63.5031 21.9359C63.3837 21.9077 63.2644 21.8795 63.145 21.8514C62.987 21.8266 62.8255 21.7634 62.6675 21.7386C62.5481 21.7105 62.4287 21.6823 62.3445 21.6121C62.2251 21.5839 62.0637 21.5205 61.9407 21.4538C61.8987 21.4187 61.86 21.4221 61.8179 21.387C61.4599 21.3025 61.1017 21.218 60.7822 21.13C60.3819 21.0104 59.9851 20.9292 59.5814 20.771C59.1812 20.6514 58.7775 20.4931 58.3738 20.3349C57.6085 20.0535 56.8783 19.7301 56.1482 19.4066C55.7831 19.2449 55.4567 19.0797 55.0881 18.8794C54.8845 18.781 54.7195 18.6791 54.516 18.5807C54.4317 18.5104 54.3124 18.4823 54.2282 18.412C54.186 18.3769 54.1474 18.3803 54.144 18.3418C53.8982 18.2083 53.6912 18.0712 53.4456 17.9377C53.4456 17.9377 53.4069 17.9411 53.4034 17.9026L53.4554 18.4814C53.4658 18.5972 53.4728 18.6744 53.4446 18.7937C53.448 18.8323 53.4515 18.8709 53.4164 18.9129C53.3812 18.955 53.3425 18.9585 53.3039 18.9619C53.2266 18.9689 53.1424 18.8987 53.1355 18.8215C53.125 18.7057 53.1146 18.5898 53.1394 18.432L53.1221 18.239C53.1082 18.0847 53.0944 17.9303 53.0419 17.7794C53.0383 17.7408 53.0349 17.7022 52.9928 17.6671C52.8699 17.6003 52.7857 17.5301 52.6628 17.4634C52.54 17.3965 52.4137 17.2912 52.2909 17.2244C52.2066 17.1541 52.1259 17.1225 52.0031 17.0557C51.961 17.0206 51.8802 16.989 51.8381 16.9539C51.796 16.9188 51.7574 16.9222 51.7153 16.8871C51.424 16.6798 51.1327 16.4726 50.8415 16.2653C50.8554 16.4197 50.9113 16.6091 50.9286 16.8021C50.9633 17.1881 51.0015 17.6126 51.0748 17.9951L51.1198 18.4968C51.1268 18.574 51.0565 18.6582 50.9792 18.6651C50.902 18.672 50.8177 18.6017 50.8108 18.5246C50.7727 18.1001 50.7345 17.6755 50.6612 17.2931C50.6439 17.1001 50.6265 16.9072 50.5705 16.7176C50.5635 16.6404 50.5532 16.5247 50.5076 16.4509L50.4867 16.2194C50.4799 16.1422 50.4694 16.0264 50.4238 15.9526C49.9221 15.5698 49.4202 15.187 48.9571 14.8006C49.0027 14.8743 49.0131 14.9902 49.0587 15.0638C49.1706 15.4428 49.2826 15.8218 49.3594 16.2429C49.4223 16.5095 49.45 16.8183 49.4357 17.0919C49.453 17.2849 49.4283 17.4427 49.4035 17.6006C49.3787 17.7584 49.2312 17.8496 49.1117 17.8214C49.0344 17.8283 48.9889 17.7546 48.9468 17.7195C48.9012 17.6458 48.8978 17.6071 48.8908 17.5299C48.8873 17.4914 48.8873 17.4914 48.8839 17.4527L48.8492 17.0668C48.818 16.7195 48.7515 16.4143 48.6817 16.0703C48.6154 15.765 48.5104 15.4633 48.4474 15.1965C48.3389 14.8561 48.2339 14.5544 48.0902 14.256C48.0447 14.1823 48.0798 14.1403 48.0729 14.0631C47.522 13.5679 47.0099 13.0692 46.5363 12.5671C46.5923 12.7567 46.6482 12.9461 46.7043 13.1356C46.83 13.669 46.9208 14.2444 46.8955 14.8303C46.8564 15.2617 46.8559 15.6897 46.7395 16.1281C46.7147 16.286 46.5671 16.3771 46.4091 16.3524C46.2511 16.3277 46.16 16.1803 46.1847 16.0224C46.2094 15.8645 46.2342 15.7067 46.2203 15.5524C46.2417 15.3559 46.2243 15.1629 46.2456 14.9665C46.2317 14.8121 46.253 14.6156 46.2391 14.4613C46.2114 14.1525 46.1837 13.8438 46.1173 13.5385C46.0509 13.2332 45.9493 12.97 45.8478 12.7068C45.7428 12.405 45.6412 12.1417 45.5362 11.84C45.4906 11.7662 45.5188 11.647 45.5506 11.5664C45.028 10.9519 44.5018 10.2989 44.0145 9.64238C43.79 9.31241 43.5691 9.02098 43.3833 8.68757C43.3903 8.76475 43.4393 8.87704 43.4462 8.95422C43.5126 9.25951 43.579 9.56481 43.6454 9.8701C43.7048 10.0982 43.7221 10.2911 43.7816 10.5192L43.8025 10.7508C43.9664 11.7087 44.0917 12.67 44.182 13.6735C44.3485 15.526 44.3638 17.431 44.302 19.343C44.1861 22.3881 43.8771 25.4504 43.2907 28.46C42.7077 31.5081 41.9281 34.535 40.8643 37.4318C40.8325 37.5124 40.7973 37.5545 40.8043 37.6317C39.8989 40.1253 38.7933 42.559 37.3545 44.7503C37.1856 45.0378 36.978 45.3288 36.7704 45.6197C36.7352 45.6618 36.7036 45.7425 36.6684 45.7845C36.8898 45.648 37.0691 45.4762 37.2485 45.3045ZM32.1207 48.4887C32.5387 48.3734 32.9533 48.2194 33.3645 48.0268C33.4383 47.9813 33.5121 47.9357 33.6246 47.8867C33.6983 47.8411 33.7722 47.7956 33.8495 47.7886C33.8881 47.7852 33.8881 47.7852 33.9267 47.7818C34.9639 46.7548 35.8362 45.6259 36.6208 44.3882C37.5075 42.9858 38.2678 41.4779 38.9508 39.977C39.6339 38.4761 40.194 36.9084 40.7121 35.3057C41.0786 34.1833 41.4031 33.026 41.6888 31.872C41.2851 31.7138 40.92 31.552 40.5163 31.3938C40.1934 31.2672 39.8704 31.1406 39.544 30.9755C39.221 30.8488 38.9332 30.6802 38.6102 30.5536C38.2873 30.4269 37.9643 30.3004 37.6765 30.1317C37.3922 30.0017 37.1043 29.8329 36.8165 29.6643C36.6517 29.5624 36.5992 29.4115 36.659 29.2115L36.7645 29.0854C36.6417 29.0186 36.5188 28.9519 36.4312 28.843C36.2628 28.7025 36.1681 28.5165 36.0383 28.3726C35.9437 28.1865 35.8491 28.0005 35.7966 27.8496C35.7897 27.7724 35.7441 27.6987 35.7372 27.6215C35.7303 27.5443 35.6847 27.4705 35.6742 27.3548C35.6638 27.239 35.6183 27.1653 35.6079 27.0495L35.587 26.818C35.5207 26.5127 35.5316 26.2004 35.5003 25.8531C35.4934 25.776 35.5216 25.6567 35.5147 25.5795C35.5078 25.5023 35.5394 25.4216 35.5326 25.3444C35.5573 25.1866 35.582 25.0287 35.6068 24.8709C35.6563 24.5552 35.7832 24.2326 35.8713 23.9134C35.9347 23.7521 36.0015 23.6294 36.0684 23.5066C36.1002 23.4259 36.1353 23.3839 36.2057 23.2998C36.276 23.2156 36.3428 23.0929 36.4132 23.0088C36.4835 22.9246 36.5925 22.837 36.7049 22.788C36.7436 22.7846 36.7788 22.7425 36.8174 22.739C36.8139 22.7004 36.7718 22.6653 36.7684 22.6267C36.7614 22.5495 36.7966 22.5074 36.8282 22.4268C36.8634 22.3847 36.9373 22.3392 36.9759 22.3357C37.0918 22.3253 37.2112 22.3534 37.2885 22.3466C37.285 22.3079 37.3236 22.3045 37.3202 22.2658C37.3905 22.1818 37.4291 22.1782 37.545 22.1678C37.7348 22.1119 37.9279 22.0946 38.1211 22.0772L39.7053 21.9348C40.0529 21.9035 40.4007 21.8723 40.7519 21.8796C40.9451 21.8623 41.1804 21.88 41.3735 21.8627C41.5667 21.8453 41.7634 21.8665 41.9214 21.8912C42.2339 21.902 42.5851 21.9094 42.8977 21.9202C42.9363 21.9168 42.975 21.9133 42.975 21.9133C43.0136 21.9098 43.0523 21.9064 43.0944 21.9415L43.1365 21.9766C43.1786 22.0117 43.2207 22.0469 43.2241 22.0854C43.2663 22.1205 43.2698 22.1592 43.2732 22.1977C43.2802 22.2749 43.252 22.3941 43.1781 22.4397C43.1429 22.4818 43.1429 22.4818 43.1043 22.4853C43.0692 22.5273 42.9953 22.5729 42.9567 22.5763C42.1349 22.5335 41.2779 22.5327 40.4631 22.567L38.2994 22.7615C38.3415 22.7966 38.3837 22.8317 38.4258 22.8668C38.51 22.9371 38.5556 23.0107 38.6433 23.1196C38.7765 23.3022 38.8711 23.4882 38.9692 23.7128C39.1163 24.0497 39.1861 24.3936 39.256 24.7375L39.2942 25.162C39.308 25.3164 39.3253 25.5093 39.3007 25.6672C39.3075 25.7444 39.2793 25.8637 39.2863 25.9408C39.2932 26.018 39.2615 26.0987 39.2684 26.1758C39.2436 26.3337 39.2154 26.453 39.1906 26.6108C39.1025 26.93 39.0178 27.2878 38.9297 27.6069C38.9015 27.7262 38.8381 27.8875 38.7712 28.0102C38.6726 28.2136 38.5354 28.4204 38.3561 28.5922C38.2506 28.7184 38.1064 28.8481 37.9589 28.9392C37.8464 28.9882 37.7374 29.0758 37.5863 29.1283C37.5126 29.1738 37.3966 29.1842 37.3194 29.1912C37.4001 29.2228 37.4843 29.2931 37.6037 29.3212C37.7652 29.3845 37.9301 29.4865 38.053 29.5532C38.3759 29.6798 38.7024 29.8449 39.0254 29.9716C39.3483 30.0981 39.6747 30.2634 39.9626 30.432C40.289 30.5972 40.6119 30.7239 40.9349 30.8504C41.2579 30.977 41.5809 31.1036 41.9073 31.2688C41.939 31.1881 41.9321 31.1109 41.9637 31.0303C41.511 30.7597 41.0547 30.4506 40.6021 30.18C40.395 30.043 40.1914 29.9445 40.0229 29.8041C39.7772 29.6705 39.5667 29.4949 39.3245 29.4C39.163 29.3367 39.1071 29.1472 39.1705 28.9859C39.2022 28.9053 39.276 28.8597 39.3497 28.8141C39.3884 28.8107 39.3884 28.8107 39.427 28.8072C39.4657 28.8037 39.5429 28.7968 39.585 28.8319C39.8273 28.9269 40.073 29.0604 40.3187 29.194C40.5222 29.2924 40.7293 29.4293 40.9329 29.5278C41.3435 29.7632 41.7577 30.0373 42.1684 30.2726C42.2213 29.9956 42.313 29.7151 42.3624 29.3993C41.885 29.2866 41.3653 29.1388 40.8878 29.0261C40.4489 28.9099 39.9714 28.7972 39.5256 28.6038C39.3641 28.5405 39.3047 28.3124 39.368 28.1511C39.3998 28.0704 39.4735 28.0249 39.5474 27.9794C39.586 27.9759 39.6246 27.9724 39.6246 27.9724C39.7019 27.9655 39.7406 27.962 39.7826 27.9972C39.7826 27.9972 39.7826 27.9972 39.8213 27.9936C40.2216 28.1133 40.5797 28.1978 40.9765 28.2789C41.4926 28.3881 41.9701 28.5009 42.4511 28.6522C42.5041 28.375 42.5571 28.0979 42.6136 27.8594C42.2589 27.8135 41.9043 27.7676 41.5461 27.683C41.1914 27.6371 40.872 27.5491 40.5172 27.5032C40.3206 27.482 40.1839 27.2607 40.2087 27.1029C40.2334 26.9451 40.3775 26.8154 40.5321 26.8015C40.5707 26.798 40.6093 26.7946 40.6093 26.7946C41.3187 26.8864 41.9928 27.0204 42.7022 27.1123C42.7235 26.9158 42.78 26.6773 42.8013 26.4808C42.4045 26.3998 41.969 26.3222 41.5723 26.2411C41.1334 26.125 40.6559 26.0122 40.2205 25.9347C40.0625 25.91 39.9713 25.7626 39.9961 25.6047C40.0278 25.5241 40.0595 25.4433 40.1333 25.3978C40.1685 25.3557 40.2071 25.3523 40.2844 25.3454C40.323 25.3419 40.323 25.3419 40.3617 25.3384C40.597 25.3562 40.8322 25.3739 41.0289 25.3952C41.1483 25.4234 41.2642 25.413 41.3835 25.4411C41.5029 25.4693 41.6223 25.4974 41.7417 25.5256C42.1385 25.6066 42.5738 25.6843 42.9707 25.7653C43.0202 25.4496 43.0662 25.0954 43.1158 24.7797C43.1336 24.5447 43.19 24.3061 43.2079 24.071L42.6283 24.1232C42.4737 24.137 42.3193 24.151 42.1225 24.1297C41.9294 24.147 41.7328 24.1258 41.5396 24.1432C41.1884 24.1358 40.8337 24.0899 40.479 24.044C40.321 24.0192 40.163 23.9945 40.005 23.9699C39.8469 23.9452 39.6503 23.924 39.4889 23.8606C39.408 23.829 39.3273 23.7973 39.2818 23.7236C39.2362 23.6499 39.2293 23.5727 39.2223 23.4956C39.254 23.4148 39.2857 23.3342 39.3596 23.2887C39.3947 23.2466 39.4719 23.2396 39.5106 23.2362C39.5492 23.2327 39.5879 23.2292 39.5879 23.2292L39.6265 23.2258C39.7811 23.2119 39.9391 23.2366 40.0936 23.2227C40.2516 23.2474 40.4062 23.2335 40.5642 23.2582C40.8381 23.2725 41.1155 23.3254 41.4281 23.3362C41.5826 23.3223 41.7406 23.347 41.8952 23.3331C42.0884 23.3157 42.2851 23.337 42.4396 23.3231L43.251 23.2501C43.2936 22.8573 43.3361 22.4644 43.3787 22.0716C43.4639 21.2858 43.507 20.4649 43.5501 19.644C43.6763 16.7147 43.5672 13.7677 43.1139 10.8905C43.1035 10.7747 43.058 10.701 43.0476 10.5852C43.044 10.5467 43.044 10.5467 43.0406 10.508L43.0301 10.3922C43.0301 10.3922 43.0301 10.3922 43.0267 10.3536L43.0059 10.1221C42.9886 9.92909 42.9361 9.77816 42.9222 9.6238L42.9187 9.58526C42.8523 9.27996 42.7825 8.93613 42.7161 8.63084C42.6602 8.44127 42.6462 8.2869 42.5903 8.09744C42.5972 8.17462 42.5268 8.25878 42.4531 8.30431L42.4144 8.30775C42.2985 8.31817 42.2143 8.24797 42.1687 8.17423C41.9622 7.60917 41.7169 7.04764 41.3945 6.49301C41.2508 6.19469 41.0719 5.93847 40.8897 5.6436C40.6618 5.27498 40.3953 4.90991 40.0936 4.58685C39.9639 4.44289 39.7954 4.30241 39.6656 4.15845C39.5779 4.04961 39.4551 3.98284 39.3709 3.9126L39.3288 3.87747C39.2024 3.77211 39.0796 3.70534 38.9567 3.63857C38.6655 3.43131 38.3425 3.30472 38.0195 3.17812C37.8581 3.11481 37.7001 3.09011 37.5034 3.06888C37.3454 3.04417 37.1874 3.01947 37.0329 3.03335C36.6816 3.02601 36.3339 3.05727 36.0283 3.12363C35.8385 3.17959 35.6102 3.23902 35.4205 3.29497C35.1956 3.393 34.9707 3.49102 34.7459 3.58905C34.1519 3.91476 33.6071 4.35278 33.0656 4.8294C32.0601 5.77564 31.2231 6.8625 30.5088 8.01603C29.7593 9.21163 29.1293 10.4355 28.5835 11.7295C27.999 13.0269 27.5339 14.3526 27.0723 15.717C26.7374 16.7586 26.4412 17.7968 26.1872 18.8701C25.8731 20.1432 25.5977 21.413 25.3645 22.7178C24.951 25.0504 24.6989 27.4464 24.6013 29.8283C24.5652 30.7264 24.5325 31.6631 24.5771 32.5929C24.5762 33.4489 24.6138 34.3013 24.6937 35.1891C24.7347 36.0802 24.8531 36.9644 24.9716 37.8485C25.09 38.7327 25.2505 39.652 25.4462 40.5293C25.6384 41.368 25.8693 42.2031 26.1774 43.0314C26.44 43.7859 26.7411 44.5369 27.1161 45.2425C27.4421 45.8357 27.8453 46.4219 28.3189 46.924C28.4487 47.0679 28.6206 47.2471 28.789 47.3875C28.9995 47.5632 29.2066 47.7001 29.4136 47.8372C29.7014 48.0058 30.0279 48.171 30.3473 48.259C30.6669 48.347 30.9829 48.3965 31.2989 48.4458C31.4673 48.5863 31.7764 48.5586 32.1207 48.4887ZM23.3128 41.9271C23.6903 43.5272 24.1802 45.0783 24.9371 46.5665C25.3121 47.2721 25.7575 47.8934 26.2801 48.5079C26.6238 48.866 26.9607 49.147 27.3748 49.421C27.6626 49.5896 27.989 49.7549 28.312 49.8814C28.6315 49.9694 28.9897 50.054 29.3409 50.0614C29.6921 50.0686 30.0784 50.0339 30.4227 49.9641C30.8408 49.8487 31.2553 49.6947 31.6279 49.5056C31.3574 49.5299 31.0834 49.5157 30.7709 49.5049C30.4549 49.4554 30.1354 49.3674 29.8159 49.2794C29.4964 49.1914 29.2085 49.0228 28.9594 48.8506C28.4224 48.5098 27.9172 48.0883 27.4857 47.6214C27.0964 47.1895 26.7388 46.6769 26.4197 46.1609C26.1007 45.6449 25.8168 45.0868 25.5681 44.4867C25.0252 43.2127 24.6334 41.8862 24.3574 40.5493C24.0359 39.1387 23.8303 37.7176 23.702 36.2897C23.643 35.6336 23.5841 34.9775 23.5637 34.3179C23.5399 33.6197 23.5196 32.9602 23.5344 32.2586C23.5517 29.4169 23.8008 26.5544 24.25 23.7517C24.6923 20.8718 25.3733 18.0484 26.3317 15.2777C27.2233 12.6298 28.3923 10.0348 29.8945 7.68212C30.6123 6.56724 31.4494 5.48038 32.4584 4.57273C32.9259 4.14165 33.4356 3.74569 34.0296 3.41998C34.3283 3.27642 34.5848 3.09774 34.887 2.99277C35.2243 2.84574 35.5686 2.77589 35.9129 2.70605L36.2992 2.67132C36.8015 2.62618 37.3107 2.65823 37.7917 2.80953C38.4307 2.98554 39.0449 3.31939 39.5468 3.70226C40.0064 4.05001 40.3992 4.52048 40.792 4.99093C41.1918 5.53859 41.5564 6.12833 41.8437 6.72505C42.0786 7.17074 42.2782 7.65862 42.4391 8.14994C42.086 6.81993 41.6589 5.53554 41.0035 4.31055C40.6776 3.71735 40.313 3.12763 39.8781 2.62203C39.836 2.58691 39.7974 2.59038 39.7552 2.55526C39.5868 2.41478 39.4149 2.23569 39.2465 2.09521C39.0394 1.9582 38.871 1.8177 38.6639 1.68069C38.3341 1.47691 38.0076 1.31171 37.646 1.18858C37.2879 1.10406 36.9684 1.01605 36.6171 1.00871C36.266 1.00137 35.9183 1.03262 35.5354 1.10593C35.0401 1.22826 34.5902 1.4243 34.1053 1.66241C33.4376 2.03367 32.7803 2.5207 32.2037 3.03939C31.1279 4.06981 30.1853 5.28275 29.362 6.52398C28.4402 7.96853 27.6447 9.5184 26.9686 11.0965C26.2538 12.678 25.6585 14.2877 25.1439 15.9291C24.3509 18.3736 23.7966 20.8746 23.3197 23.3684C22.8849 25.8975 22.5728 28.4933 22.4506 31.0332C22.3818 32.868 22.3902 34.6957 22.5146 36.5131C22.6776 38.327 22.9179 40.134 23.3128 41.9271Z" fill="black"/>
<path d="M58.8559 19.6306C58.8559 19.6306 58.8944 19.6271 58.8559 19.6306C58.8944 19.6271 58.8944 19.6271 58.8559 19.6306Z" fill="black" stroke="black" stroke-width="0.673" stroke-miterlimit="10"/>
<path d="M77.8791 55.7755C77.917 55.7722 77.9136 55.7339 77.8791 55.7755C77.8757 55.7374 77.8757 55.7374 77.8723 55.6992C77.9136 55.7339 77.9136 55.7339 77.8791 55.7755Z" fill="black" stroke="black" stroke-width="0.673" stroke-miterlimit="10"/>
<path d="M67.2589 37.7056C67.2939 37.6633 67.2939 37.6633 67.2589 37.7056C67.2939 37.6633 67.2939 37.6633 67.2589 37.7056C67.2589 37.7056 67.2939 37.6633 67.2589 37.7056Z" fill="black"/>
<path d="M67.2589 37.7056C67.2939 37.6633 67.2939 37.6633 67.2589 37.7056C67.2939 37.6633 67.2939 37.6633 67.2589 37.7056ZM67.2589 37.7056C67.2939 37.6633 67.2589 37.7056 67.2589 37.7056V37.7056Z" stroke="black" stroke-width="0.673" stroke-miterlimit="10"/>
<path d="M67.796 37.1905C67.7608 37.2326 67.729 37.3133 67.6939 37.3553C67.6587 37.3974 67.6621 37.436 67.627 37.4781C67.5918 37.5201 67.5953 37.5587 67.5566 37.5622C67.4898 37.6849 67.4229 37.8077 67.3174 37.9338C67.2858 38.0145 67.2119 38.0601 67.1416 38.1441C67.103 38.1477 67.1064 38.1862 67.0678 38.1897C67.0326 38.2317 66.9975 38.2738 66.9588 38.2773L66.9202 38.2808C66.8816 38.2842 66.8816 38.2842 66.8395 38.2491C66.8395 38.2491 66.7973 38.214 66.7939 38.1754C66.7904 38.1368 66.7904 38.1368 66.8255 38.0948C66.8607 38.0527 66.8994 38.0492 66.9346 38.0072C66.9697 37.9651 66.9697 37.9651 67.0049 37.923C67.0752 37.8389 67.1456 37.7548 67.2159 37.6706C67.2476 37.59 67.2827 37.5479 67.3145 37.4673C67.3496 37.4252 67.3848 37.3831 67.3813 37.3445C67.4448 37.1832 67.5116 37.0604 67.575 36.8992C67.6101 36.8571 67.6101 36.8571 67.6488 36.8536L67.6874 36.8501C67.7295 36.8852 67.7751 36.9589 67.7399 37.001C67.8628 37.0678 67.8276 37.1099 67.796 37.1905Z" fill="black" stroke="black" stroke-width="0.673" stroke-miterlimit="10"/>
<path d="M17.9641 17.0808C17.9403 16.3826 18.0215 15.9863 17.8848 15.7652C15.1355 12.0439 13.7113 7.46428 10.4806 4.01967C10.1789 3.69663 9.8034 3.41914 9.17138 3.32031C9.23775 3.62559 9.19862 4.05707 9.37393 4.27475C11.8572 7.20294 13.3107 10.8073 15.4283 14.0018C15.8806 14.7003 16.3294 15.3603 16.8169 16.0168C17.0412 16.3468 17.3746 16.5891 17.9641 17.0808Z" fill="black"/>
<path d="M14.8804 21.3268C12.6717 21.0195 10.5823 20.7404 8.45429 20.4648C6.20683 20.161 3.93814 20.0536 1.71113 20.4094C1.1737 20.4966 0.513363 20.517 0.765069 21.5838C1.27074 21.5772 1.82558 21.683 2.36301 21.5958C5.01163 21.1633 7.61364 21.513 10.2226 21.9399C11.4095 22.1444 12.5929 22.3105 13.7411 22.5185C14.4926 22.6455 14.8968 22.3758 14.8804 21.3268Z" fill="black"/>
<path d="M3.119 37.8282C3.277 37.853 3.51573 37.9093 3.62467 37.8217C7.90888 35.219 12.1509 32.5813 16.4668 29.898C16.2325 29.0242 15.6351 29.3113 15.1537 29.5881C13.7024 30.3409 12.251 31.0939 10.8486 31.9591C8.70834 33.2797 6.61348 34.6741 4.51872 36.0684C3.93173 36.4713 3.39381 36.9866 2.85244 37.4631C2.97879 37.5685 3.03129 37.7194 3.119 37.8282Z" fill="black"/>
</svg>
