<svg width="146" height="277" viewBox="0 0 146 277" fill="none" xmlns="http://www.w3.org/2000/svg">
<path d="M139.353 34.3924C136.78 38.9364 132.426 43.4804 127.675 46.4438C126.883 47.0365 125.894 47.4316 125.102 48.0243C123.915 48.617 123.123 48.8146 122.331 49.0121C121.144 49.4073 120.352 49.6048 119.164 50.5926C118.768 50.7902 118.57 51.1853 118.175 51.5805C116.987 52.7659 115.997 54.1488 115.206 55.7293C112.039 61.4586 110.851 69.1636 110.06 75.0906C109.268 80.2272 108.872 84.376 108.278 89.1176C108.278 89.3151 108.278 89.7103 108.278 89.9078C108.08 91.0932 107.882 92.4762 107.684 93.8591C107.289 96.0323 107.882 98.2055 108.674 100.181C109.07 100.971 109.466 101.959 109.664 102.749C110.653 105.12 111.841 107.491 112.237 110.059C113.226 116.776 116.987 122.703 118.768 129.025C121.341 137.916 123.717 144.633 125.102 154.314C126.29 162.611 123.123 172.489 123.321 181.38C123.123 183.553 122.925 185.529 122.925 187.702V190.665C122.925 191.06 123.123 191.258 123.321 191.851C124.508 191.851 125.696 192.048 126.883 192.048C128.071 192.048 128.863 192.641 129.655 193.629C132.821 197.58 133.019 201.926 132.03 206.668C131.04 211.607 129.852 216.744 128.665 221.683C125.696 226.622 123.123 231.363 122.727 235.907C122.727 237.29 123.123 239.068 124.112 241.439C124.112 241.834 123.915 242.229 123.915 242.427C123.321 244.798 123.915 246.773 125.102 248.749C125.894 249.934 126.488 251.12 127.279 252.108C129.852 255.071 131.04 258.627 131.436 262.183C132.03 268.703 128.467 272.654 121.737 272.259C121.341 272.259 121.144 271.469 120.748 271.074C120.748 271.074 120.748 271.271 120.748 271.469C118.373 272.654 116.195 273.84 113.82 274.827C111.445 275.815 109.07 275.815 106.497 275.42C103.924 275.025 101.351 274.63 98.9755 274.037C96.2045 273.445 94.0273 272.062 92.8397 269.691H87.4956C87.0998 269.888 86.9018 269.888 86.506 269.888C81.3598 270.679 76.0157 270.876 70.8696 270.086C68.8903 269.888 66.911 269.493 64.9317 269.098C63.3483 268.901 61.7649 268.703 60.3793 268.505C59.5876 270.086 58.9938 271.666 58.2021 273.049C58.0042 273.445 57.6083 274.037 57.2125 274.235C55.6291 274.235 54.0456 274.432 52.6601 274.432C49.8891 274.432 47.1181 274.63 44.9409 276.013C44.3471 276.408 43.9512 276.606 43.5554 277.001C42.1699 277.001 40.7844 276.803 39.3989 276.606C36.8258 276.21 34.8465 274.827 33.0651 273.247C32.2734 273.445 31.4817 273.445 30.69 273.642C27.7211 274.63 25.3459 273.642 22.9708 271.864C21.7832 271.074 21.3873 270.086 21.5853 268.703C21.7832 267.32 21.9811 265.937 21.9811 264.159C20.3977 263.961 19.0122 263.566 17.6267 263.566C14.2619 263.369 10.8971 263.369 7.5323 263.566C5.75094 263.566 3.96958 263.171 2.38614 262.381C1.00064 261.591 0.80271 260.603 1.79236 259.417C2.782 258.43 3.77165 257.244 4.95922 256.652C8.32401 254.676 11.8867 253.095 15.4495 251.317C17.6267 250.132 19.8039 248.749 22.179 247.564C23.3666 246.773 24.7521 246.181 25.9397 245.193C26.5335 243.217 25.7418 241.242 24.9501 239.464C23.5645 236.5 22.7728 233.339 22.179 230.178C21.3873 225.041 20.0018 220.102 18.6163 215.361C17.2308 210.224 16.835 205.087 19.0122 199.951C20.1998 196.987 21.7832 194.617 25.3459 193.826C24.7521 191.456 24.5542 189.085 23.9604 186.912C22.179 180.59 21.7832 174.268 21.3873 167.946C21.1894 167.55 21.3873 167.353 21.3873 166.958C21.3873 166.563 20.9915 165.97 20.7935 165.575V165.377H20.9915C20.9915 164.587 20.7935 163.797 20.7935 163.006C20.7935 162.809 20.7935 162.611 20.7935 162.216V156.882C20.7935 155.499 21.1894 154.314 19.8039 153.128C19.408 152.931 19.606 151.943 19.8039 151.35C22.377 144.633 24.7521 137.916 27.919 131.594C32.2734 122.901 34.4506 113.615 37.4196 104.528C37.8154 103.54 37.8154 102.552 39.2009 102.157C39.9927 101.959 40.5864 100.971 40.3885 99.786C40.1906 96.2299 39.9927 92.6737 41.972 89.5127C42.1699 89.1176 42.1699 88.5249 42.1699 87.9322V78.6467C42.1699 73.7076 41.1802 66.2002 39.9927 61.0635C40.9823 59.8781 41.5761 58.8903 41.3782 57.9025C39.7947 53.5561 36.232 54.5439 33.0651 51.3829C30.0962 48.2219 27.5231 42.8877 23.9604 38.3437C23.1687 37.1583 22.179 35.9729 21.1894 34.9851C19.8039 33.6022 18.2205 32.0217 17.2308 30.4411C16.637 29.6509 16.2412 28.6631 16.0432 27.8728C15.4495 25.6996 15.4495 23.1313 16.0432 20.9581V20.7605C16.0432 20.7605 16.0432 20.563 16.2412 20.563C17.8246 18.9825 19.408 17.4019 21.3873 16.2166C26.9293 12.858 32.6693 9.89452 38.2113 6.53594C41.9719 4.36274 45.9305 3.57248 49.8891 3.17736C50.8788 2.97979 52.0663 3.37492 53.056 3.77005C53.056 3.77005 53.2539 3.77005 53.2539 3.96761C53.6498 4.16517 54.4415 4.5603 54.6394 4.75786C55.2332 5.15299 55.827 5.54812 56.6187 6.14081C59.3897 5.35056 62.1607 4.5603 65.1296 3.37492C66.911 3.77005 68.6924 3.96761 70.4737 3.96761C77.0054 3.57248 83.1412 3.96761 89.4749 2.78223C91.2563 3.17735 92.6418 3.57248 94.0273 3.77005C95.4128 3.96761 96.7983 4.16517 98.1838 4.36274C99.1734 4.36274 99.9651 4.5603 100.955 4.5603C101.747 4.5603 102.538 4.75786 103.33 4.75786H103.528C107.882 5.15299 113.424 3.57248 120.154 4.5603C127.675 5.74569 136.384 9.69696 140.343 12.4629C147.864 17.9946 143.905 26.4899 139.353 34.3924Z" fill="white"/>
<path d="M73.2487 118.357C65.7274 121.123 57.8103 123.098 51.4765 128.037C39.4029 137.323 36.8298 154.313 27.923 166.76C26.7354 168.538 24.3603 170.118 22.7768 169.723C22.183 169.526 22.9748 170.909 22.5789 170.316C22.381 169.921 21.5893 168.143 21.5893 167.748C21.3913 167.353 21.1934 166.957 21.1934 166.562C21.1934 165.97 21.1934 165.575 21.1934 164.982H20.5996C20.9955 160.24 23.3706 155.696 22.9748 150.757C22.381 143.843 24.7561 137.718 28.3188 131.198C28.7147 130.408 30.1002 128.828 30.2981 127.84C32.0795 121.913 33.8609 113.023 37.4236 107.491C37.6215 107.096 37.8194 106.898 38.0174 106.503L38.2153 106.305V106.108C38.8091 105.318 39.4029 104.725 39.9967 104.132C40.1946 103.935 40.3925 103.737 40.5904 103.737C40.9863 103.54 41.1842 103.342 41.5801 103.144C41.778 102.947 41.9759 102.947 42.1739 102.947C44.3511 101.761 46.5283 102.157 48.5076 103.144H48.7055C50.091 103.737 51.4765 104.725 53.06 105.515C54.6434 106.503 56.4248 107.491 58.2061 107.688C59.9875 107.886 61.9668 108.083 63.9461 108.281C65.9254 108.479 68.1026 108.676 70.0819 109.071C71.2694 109.269 72.2591 109.664 73.2487 110.059C73.6446 110.257 74.0404 110.454 74.4363 110.454C79.3845 113.023 78.3949 116.381 73.2487 118.357Z" fill="#BCBCBB"/>
<path d="M46.5287 47.6291C50.2893 44.468 50.0914 38.7387 51.6748 33.9972C54.05 26.6873 60.5816 21.5507 65.3319 15.6237C73.6449 5.15287 56.6231 1.79429 51.8728 10.6847C49.2997 15.8213 47.9142 21.9458 47.1225 27.4776C46.5287 30.8362 46.3307 34.1947 46.1328 37.7509C46.1328 38.9363 47.1225 47.0364 46.5287 47.6291Z" fill="#BCBCBB"/>
<path d="M108.678 24.5136C108.678 25.1063 108.678 25.699 108.678 26.0942C108.678 26.4893 108.678 26.6868 108.48 26.8844C108.084 27.2795 107.688 27.082 107.292 26.8844C105.511 26.2917 104.324 24.5136 103.532 22.9331C102.74 21.1551 102.344 19.377 101.553 17.5989C99.7712 13.4501 95.4167 9.69636 94.2292 5.34996C94.2292 5.1524 94.2292 4.95483 94.0312 4.95483C94.0312 4.16458 94.0312 3.57189 94.0312 3.17676C94.625 3.17676 95.0209 3.37432 95.6147 3.37432C96.4064 3.57189 97.396 3.76945 98.1878 4.16458C98.7815 4.5597 99.3753 4.75727 99.9691 5.1524C100.365 5.34996 100.959 5.54752 100.959 5.94265C101.75 8.90611 104.917 10.2891 105.907 13.2525C106.501 14.6355 107.095 16.0184 107.886 17.4014C108.48 19.7721 108.678 22.1429 108.678 24.5136Z" fill="#BCBCBB"/>
<path d="M59.5908 264.356C59.7887 264.949 59.7887 265.739 60.3825 266.134C60.7784 266.529 61.3722 266.925 61.966 267.122C65.9245 268.505 70.279 268.9 74.4355 268.703C75.0293 268.703 75.821 268.505 76.4148 268.11C77.0086 267.715 77.2065 267.122 77.4044 266.332C78.1961 262.578 76.6127 258.824 74.2376 255.861C71.8624 252.897 68.6955 250.527 66.1225 247.958C57.0177 238.475 56.6219 227.214 53.455 215.36C49.2985 218.126 54.0488 233.141 54.8405 237.488C56.226 246.378 58.0074 255.466 59.5908 264.356Z" fill="#BCBCBB"/>
<path d="M35.2454 224.448C36.8288 232.944 37.0268 242.032 40.7874 249.934C41.5791 251.317 42.3708 252.898 42.3708 254.478C42.3708 256.849 40.9853 258.825 39.4019 260.603C37.4226 263.171 35.2454 265.739 33.2661 268.308C32.0785 269.888 30.4951 271.666 28.3179 271.469C25.9427 271.271 24.5572 268.505 24.7552 266.134C24.9531 263.764 26.3386 261.59 27.3282 259.417C31.0889 250.132 26.9324 239.661 24.9531 229.783C24.1614 225.239 21.3904 201.531 26.9324 200.346C31.4847 207.063 33.8599 216.743 35.2454 224.448Z" fill="#BCBCBB"/>
<path d="M96.8008 232.943C96.4049 235.314 96.0091 237.685 95.6132 240.056C94.6236 246.575 93.8318 253.095 93.6339 259.812C93.6339 261.392 93.436 263.171 92.2484 264.356C92.0505 264.554 91.8526 264.554 91.6546 264.554C91.4567 264.554 91.2588 264.356 91.0608 264.356C88.8836 262.578 88.4878 259.614 88.0919 256.651C87.696 252.107 87.3002 247.563 86.9043 243.019C86.7064 239.858 86.5085 236.697 86.9043 233.734C87.3002 230.573 88.0919 227.412 88.8836 224.25C90.665 216.941 92.4463 209.433 96.0091 202.518C96.6028 201.136 97.1966 200.543 98.1863 201.926C99.1759 203.309 98.7801 205.284 98.5821 206.865C98.5821 211.014 98.3842 214.965 97.9883 219.114C97.9883 223.658 97.3946 228.399 96.8008 232.943Z" fill="#BCBCBB"/>
<path d="M119.564 209.828C119.168 214.372 118.772 218.916 118.772 223.46C118.574 235.314 120.553 247.168 122.335 259.021C122.335 259.417 122.335 259.812 122.137 260.009C121.741 260.404 120.949 260.009 120.553 259.614C119.168 258.231 117.782 256.848 116.199 255.465C115.209 254.675 114.418 253.687 113.824 252.502C112.834 250.526 113.032 248.155 113.23 245.785C113.428 244.007 113.626 242.031 113.824 240.253C114.418 234.128 115.209 228.004 116.397 221.879C116.991 219.311 117.584 216.743 117.584 214.175L119.564 209.828Z" fill="#BCBCBB"/>
<path d="M23.3707 260.405C24.1624 259.615 25.3499 258.825 26.3396 258.232C27.1313 257.837 28.121 257.442 28.9127 256.849C29.7044 256.257 30.2982 255.269 30.1002 254.478C29.9023 253.491 29.3085 252.898 28.3189 252.503C27.5272 252.108 26.5375 252.305 25.5479 252.305C23.5686 252.503 21.7872 253.293 19.8079 254.083C18.0266 254.874 16.4431 255.466 14.6618 256.257C12.4846 257.047 9.91148 258.43 9.51562 260.998C11.4949 261.591 13.6721 261.788 15.6514 261.788C18.4224 261.591 21.1934 262.579 23.3707 260.405Z" fill="#BCBCBB"/>
<path d="M100.365 85.5609C100.958 83.9803 101.354 82.3998 102.542 81.2145C102.74 81.0169 102.938 80.8193 103.136 80.8193C103.334 80.8193 103.334 81.0169 103.531 81.2145C105.313 83.3877 106.698 85.956 107.292 88.5243C107.292 88.7219 107.292 88.9194 107.292 89.117L107.094 89.3146C105.907 90.1048 104.521 90.1048 103.136 90.3024C102.146 90.3024 99.5729 91.0926 98.9791 89.9073C98.7812 88.7219 99.9687 86.5487 100.365 85.5609Z" fill="#BCBCBB"/>
<path d="M49.8942 89.3147C50.0921 90.3025 50.2901 91.0927 50.2901 92.0805C50.2901 92.2781 50.2901 92.4757 50.0921 92.6732C49.8942 92.6732 49.6963 92.6732 49.4983 92.4757C48.9046 92.0805 48.5087 91.6854 47.9149 91.4879C46.9253 91.0927 45.7377 91.0927 45.1439 90.5C44.748 90.1049 44.748 89.5122 44.748 88.9195C44.946 88.3268 45.1439 87.9317 45.5398 87.339C46.1336 86.3512 46.7273 85.1658 47.5191 84.178C47.9149 83.3877 48.5087 82.0048 49.3004 81.4121C49.3004 83.9804 49.3004 86.7463 49.8942 89.3147Z" fill="#BCBCBB"/>
<path d="M21.9815 17.9947C22.7732 18.1922 23.7628 18.3898 24.5545 18.3898C24.3566 23.9216 24.3566 29.4534 25.7421 34.59C25.94 35.5778 26.3359 36.5656 26.5338 37.5535C26.7318 37.9486 26.7318 38.5413 26.5338 38.7388C26.3359 38.9364 26.138 38.9364 25.94 38.9364C23.7628 39.134 22.3773 36.5656 20.398 36.1705C20.2001 36.1705 19.8042 36.1705 19.6063 35.973C19.4084 36.1705 19.4084 35.973 19.2105 35.7754C17.4291 32.6144 16.4395 28.8607 16.4395 25.1069C16.4395 24.5143 16.4395 23.724 16.6374 23.1313C16.8353 22.3411 17.2312 21.5508 17.627 20.7606C18.4187 19.3776 19.2105 17.9947 20.596 17.0068L21.9815 17.9947Z" fill="#BCBCBB"/>
<path d="M109.469 88.9199L111.053 102.354L92.6451 107.491L67.904 109.467L41.1836 102.552L43.1629 90.5004L47.7153 91.4882L51.08 92.2785L59.1951 101.959L64.7372 104.923L73.0502 105.318C73.0502 105.318 80.9673 104.132 81.3632 103.935C81.759 103.737 89.6762 99.7859 90.27 99.9835C90.8638 100.181 93.4369 98.0079 93.4369 98.0079L96.4058 92.2785L109.469 88.9199Z" fill="#F15748"/>
<path d="M53.0586 3.76959C53.4545 3.96716 54.0482 4.36229 54.4441 4.55985C54.2462 4.36229 53.4545 3.76959 53.0586 3.76959ZM30.6926 31.6261C29.3071 32.8115 27.9216 34.1944 26.5361 35.3798C26.3382 35.5774 26.1402 35.7749 26.1402 35.7749C26.3382 36.17 26.3382 36.7627 26.5361 37.1579C28.3175 35.3798 30.2968 33.4042 32.276 31.4285C31.4843 31.4285 30.8905 31.4285 30.6926 31.6261ZM20.9941 18.7844C21.192 18.7844 21.192 18.5869 20.9941 18.7844V18.7844ZM138.762 10.8819C137.97 10.4868 136.981 10.2892 136.387 9.6965C133.418 7.32574 129.855 6.33792 126.292 5.35011C124.709 4.75741 123.125 4.36228 121.542 3.96716C115.802 2.38665 110.26 2.97934 104.52 3.76959C104.124 3.76959 103.728 4.36228 103.333 4.75741C104.52 5.3501 105.51 5.15254 106.499 5.15254C109.864 4.95498 113.229 4.55985 116.594 4.75741C124.709 5.3501 132.428 8.11599 139.356 12.66C142.523 14.6356 144.502 17.2039 143.512 20.9576C142.918 23.9211 141.929 27.0821 140.741 29.848C137.97 35.7749 133.616 40.714 129.063 45.258C128.667 45.6531 128.074 46.0482 127.678 46.4434C126.094 47.6287 124.313 48.6166 122.334 49.0117C121.542 49.2093 120.948 49.2093 120.157 49.4068C117.386 49.6044 115.802 48.6166 115.01 45.8507C114.417 44.2702 114.219 42.4921 113.823 40.714C113.229 37.7506 113.427 37.7506 115.802 36.17C117.386 35.1822 119.167 34.5895 120.157 32.8115C117.781 33.9968 115.406 34.9847 113.031 36.17C113.031 35.9725 112.833 35.7749 112.635 35.5774C114.021 33.009 116.99 31.8236 119.563 29.4529C116.594 30.0456 115.01 32.6139 112.437 33.009C112.239 32.0212 112.041 31.0334 111.844 30.2431C111.052 27.2797 110.656 24.3162 109.666 21.5503C109.27 20.1674 108.479 18.7844 107.885 17.4015C107.093 16.0185 106.499 14.6356 105.906 13.2527C104.916 10.2892 101.749 8.90625 100.957 5.94279C100.957 5.54767 100.364 5.3501 99.9678 5.15254C99.374 4.75741 98.7802 4.55985 98.1864 4.16472C97.3947 3.76959 96.603 3.57203 95.6133 3.37447C95.2175 3.1769 94.6237 3.1769 94.0299 3.1769C89.8734 2.38665 85.7169 1.79396 81.7583 1.20127C76.2163 0.411011 70.6743 1.20127 65.3302 3.1769H65.1323C62.1633 4.36229 59.3923 5.15254 56.6213 5.94279C55.8296 5.54767 55.2358 4.95498 54.642 4.55985C54.84 4.75741 55.0379 4.95498 55.0379 5.15254C54.84 5.74523 54.642 6.73305 54.2462 6.93061C52.6627 7.32574 52.4648 8.70869 52.069 9.6965C51.4752 11.0795 50.8814 12.2648 50.4855 13.6478C49.2979 17.2039 48.7042 20.9576 48.1104 24.5138C47.3187 27.8724 46.7249 31.231 46.329 34.5895C46.1311 36.3676 45.9332 38.1457 45.5373 39.7262C45.1414 42.4921 44.7456 45.4555 44.1518 48.2214C43.9539 49.0117 43.9539 49.6044 43.558 50.1971C41.7766 53.1605 39.7974 54.3459 37.0263 52.1727C34.6512 50.3946 32.474 48.8141 30.8905 46.4434C29.505 44.4677 27.9216 42.6897 26.3382 40.714C25.5465 39.7262 25.1506 39.1335 25.3485 38.7384C25.3485 38.3433 25.7444 37.9481 26.1402 37.3554C26.1402 37.1579 26.3382 37.1579 26.5361 36.9603C28.3175 35.1822 30.2968 33.2066 32.276 31.231C31.4843 31.231 30.8905 31.231 30.6926 31.4285C29.3071 32.6139 27.9216 33.9968 26.5361 35.1822C26.3382 35.3798 26.1402 35.5774 26.1402 35.5774C25.5465 36.1701 24.7547 36.9603 23.963 37.7506C21.9837 35.5774 20.0044 33.4042 18.8169 30.8358C18.2231 29.6504 18.421 28.2675 18.421 26.8846C18.421 25.6992 18.421 24.5138 17.0355 23.9211C18.0252 22.3406 18.8169 20.9576 19.8065 19.5747C20.4003 19.1796 20.5982 19.1796 20.5982 18.982C20.5982 18.982 20.5982 18.982 20.9941 18.5869C21.192 18.5869 21.192 18.3893 20.9941 18.5869C21.192 18.3893 21.5879 17.9942 21.7858 17.7966C27.5258 12.4624 34.2553 8.90625 41.1829 5.35011C44.5476 4.55985 47.9124 3.7696 51.2772 3.37447C51.871 3.37447 52.4648 3.37447 53.0586 3.57203C53.0586 3.57203 52.8607 3.57203 52.8607 3.37447C51.871 2.97934 50.6834 2.58421 49.6938 2.78177C45.7352 3.1769 41.7766 3.96716 38.016 6.14036C32.474 9.49894 26.734 12.4624 21.192 15.821C19.2127 17.0064 17.6293 18.5869 16.0459 20.1674C16.0459 20.1674 16.0459 20.1674 15.8479 20.3649C15.4521 20.9576 15.2541 21.3528 15.0562 21.9455C14.6604 24.7113 14.2645 27.4772 13.8686 30.2431C13.6707 32.0212 14.0666 33.6017 15.2542 34.9847V32.6139C16.6397 34.5895 17.6293 36.3676 19.0148 37.9481C21.7858 41.3067 24.7547 44.6653 27.5258 48.2214C30.6926 52.1727 34.4533 55.5313 39.0056 57.7045C39.4015 58.6923 39.5994 59.6801 39.7973 60.8655C40.9849 66.0022 41.9746 73.5096 41.9746 78.4487V87.7342C41.9746 88.3269 41.9746 88.9196 41.7766 89.3147C39.7973 92.4757 39.9953 96.0319 40.1932 99.588C40.3911 100.773 39.7974 101.761 39.0056 101.959C37.6201 102.354 37.6201 103.342 37.2243 104.33C34.2553 113.417 32.0781 122.703 27.7237 131.396C24.5568 137.718 22.1817 144.435 19.6086 151.152C19.4107 151.745 19.2127 152.733 19.6086 152.93C20.9941 154.116 20.5982 155.301 20.5982 156.684V162.018C20.5982 162.216 20.5982 162.413 20.5982 162.808C20.5982 163.599 20.5982 164.389 20.5982 165.179V165.377C20.5982 166.167 20.5982 166.957 20.7962 167.747C21.192 173.279 21.9837 178.613 23.1713 184.145C23.3692 184.936 23.5672 185.923 23.7651 186.714C24.3589 188.887 24.5568 191.258 25.1506 193.628C21.5879 194.419 20.0044 196.789 18.8169 199.753C16.6397 204.889 17.0355 210.026 18.421 215.163C19.8065 219.904 21.192 224.843 21.9837 229.98C22.5775 233.141 23.3692 236.302 24.7547 239.266C25.5465 241.044 26.3382 243.019 25.7444 244.995C24.5568 245.983 23.1713 246.575 21.9837 247.366C19.6086 248.551 17.4314 249.934 15.2542 251.119C11.6914 252.897 8.1287 254.478 4.76391 256.454C3.57633 257.046 2.58669 258.232 1.59704 259.22C0.607398 260.405 0.805329 261.393 2.19083 262.183C3.77426 262.973 5.55563 263.368 7.33699 263.368C10.7018 263.171 14.0666 263.171 17.4314 263.368C18.8169 263.368 20.2024 263.763 21.7858 263.961C21.7858 265.739 21.5879 267.122 21.3899 268.505C21.192 269.888 21.5879 270.876 22.7755 271.666C25.1506 273.444 27.5258 274.432 30.4947 273.444C31.2864 273.247 32.0781 273.247 32.8698 273.049C34.6512 274.629 36.6305 276.012 39.2036 276.408C40.5891 276.605 41.9746 276.803 43.3601 276.803C46.7249 277 49.8917 277 53.2565 276.21C54.84 275.815 56.2255 275.222 57.0172 274.037C57.413 273.642 57.611 273.247 58.0068 272.851C58.7985 271.468 59.3923 269.888 60.184 268.307C61.5695 268.505 63.153 268.703 64.7364 268.9C66.7157 269.295 68.695 269.69 70.6743 269.888C75.8204 270.678 81.1645 270.481 86.3107 269.69C86.7065 269.69 86.9045 269.69 87.3003 269.493H87.4983C87.8941 269.098 88.29 268.505 88.29 268.11C88.29 267.912 88.092 267.517 87.8941 267.32C87.6962 267.122 87.4983 266.924 87.3003 266.924C86.5086 266.727 85.519 266.727 84.7272 266.924C81.9562 267.517 79.1852 267.715 76.4142 267.715C73.6432 267.715 70.8722 267.517 68.1012 267.122C65.5281 266.727 62.7571 266.134 59.9861 265.542C59.7882 265.542 59.5903 265.542 59.5903 265.542C58.9965 262.183 58.4027 259.219 57.8089 256.454C58.0068 256.454 58.0068 256.256 58.2048 256.256C59.9861 254.676 61.7675 253.095 63.3509 251.91C64.7364 250.922 65.924 249.934 67.3095 248.946C67.7053 248.551 68.2991 248.156 68.695 247.958C68.4971 247.761 68.4971 247.563 68.2991 247.366C67.7053 247.761 67.1116 248.156 66.7157 248.354C65.5281 249.144 64.3406 250.132 63.153 251.119C61.5695 252.502 60.382 254.28 58.0068 255.071C58.0068 255.071 57.8089 255.071 57.8089 255.268C56.2255 250.724 54.84 241.834 53.6524 231.956C53.0586 227.214 52.6627 222.275 52.2669 217.336C51.2772 204.889 51.0793 193.431 52.069 189.282C52.8607 188.097 54.642 188.492 55.6317 186.714C53.0586 186.911 50.4855 186.911 48.5062 188.492C50.4855 190.27 50.4855 190.27 50.4855 192.641C50.6834 206.47 50.4855 220.102 52.4648 233.734C53.4545 240.253 54.2462 246.773 55.4337 253.293C56.2255 257.441 57.2151 261.788 58.2048 265.937C58.4027 267.517 58.6006 269.295 58.0068 270.876C57.0172 270.876 56.2255 270.678 55.4337 271.073C54.642 271.271 54.0482 272.061 53.0586 272.654C51.871 267.912 51.4752 267.122 49.1 266.134C51.2772 271.271 51.2772 271.271 50.6834 273.642C48.3083 274.432 45.7352 274.827 43.1621 274.629C41.3808 274.629 40.5891 273.642 40.5891 271.864C40.5891 270.085 41.1829 268.505 42.1725 267.122C42.7663 266.332 43.7559 265.542 43.7559 264.159C39.5994 265.937 39.2036 269.493 38.8077 273.049C36.0367 272.851 35.245 272.259 35.6408 270.283C35.8388 268.9 36.4326 267.32 37.0263 265.937C38.4118 262.776 39.9953 259.615 42.7663 257.837C44.7456 256.454 45.1414 255.268 44.5476 253.293C42.9642 247.563 41.3808 242.031 39.9953 236.5C38.6098 230.77 37.0263 224.843 35.6408 219.114C35.245 217.731 35.6408 216.546 36.8284 215.558C39.0056 213.977 40.9849 212.199 43.1621 210.619C44.1518 209.829 45.1414 209.236 45.3394 207.853C41.9746 210.026 38.6098 212.397 35.245 214.768C34.2553 213.582 34.0574 212.594 35.0471 211.409C36.6305 209.631 38.2139 208.051 39.7973 206.272C37.8181 207.458 35.8388 208.841 32.0781 210.224C30.6926 206.075 29.3071 202.124 28.3175 198.172C26.932 192.641 25.7444 187.109 24.5568 181.577C23.7651 177.626 23.1713 173.872 22.7755 169.921C22.1817 164.586 22.1817 159.252 23.1713 153.72C23.3692 153.325 23.1713 152.733 23.1713 152.14C23.1713 151.942 23.1713 151.547 23.1713 151.35C23.1713 149.572 22.9734 147.991 23.3692 146.213C23.963 143.25 24.9527 140.484 26.1402 137.915C27.5258 134.754 29.1092 131.593 30.4947 128.235C32.0781 124.876 33.6615 121.518 35.245 118.159C36.8284 114.208 39.0056 110.256 39.5994 105.91C39.7974 105.317 39.9953 104.922 40.3911 104.527C40.5891 104.33 40.5891 104.132 40.5891 103.934C40.787 103.934 40.787 103.934 40.787 103.934C49.6938 106.305 58.0068 109.664 67.1116 110.059C69.2888 110.256 71.466 110.256 73.4453 110.454C78.5914 110.652 83.7376 110.652 88.8838 109.664C92.8423 108.874 96.603 107.688 100.562 106.7C102.937 106.108 105.51 105.712 107.291 103.539L107.489 103.342V103.539C109.073 107.293 110.458 110.849 111.844 114.405C112.239 115.196 112.437 116.183 112.635 116.974C113.031 118.159 113.229 119.542 113.823 120.727C116.594 126.062 117.188 132.186 118.969 137.718C119.563 139.101 119.167 140.089 117.781 141.076C116.99 141.669 115.802 142.064 115.406 143.842C116.99 142.854 118.375 142.262 119.761 141.274C119.959 142.459 120.157 143.052 120.157 143.645C119.365 144.83 117.583 144.83 117.188 146.608C118.573 146.015 119.761 145.818 120.948 145.423C121.938 148.979 122.928 152.14 123.719 155.301C124.115 156.289 123.719 157.277 123.521 158.264C123.125 160.635 122.532 162.808 122.136 165.179C121.344 171.304 120.552 177.231 119.761 183.157V184.145C120.157 184.343 120.552 184.54 120.948 184.738C121.542 188.097 120.948 191.258 120.552 194.616C119.959 199.16 119.563 203.507 118.573 207.853C117.979 211.212 116.792 214.57 116.396 218.126C115.406 226.226 113.823 234.129 112.437 242.229C112.041 245.192 111.448 247.958 111.052 250.724C110.458 251.119 109.864 251.317 109.27 251.712C109.864 253.688 111.052 255.071 112.437 256.454C115.01 258.824 117.188 261.59 118.177 264.949C118.573 266.529 118.573 268.11 117.386 269.295C115.802 270.876 113.625 272.061 111.052 272.061C110.458 268.505 109.073 265.739 106.302 263.566C106.302 264.159 106.302 264.751 106.499 265.344C107.093 266.529 108.083 267.517 108.677 268.703C109.468 269.888 109.864 271.271 108.875 272.654C107.093 272.456 105.312 272.259 103.531 272.061C100.76 271.666 100.166 271.073 100.957 268.307C101.353 266.727 101.947 265.344 102.739 263.566C99.374 265.344 100.166 268.703 98.9781 271.073C98.3844 270.876 98.1864 270.876 97.9885 270.876C95.6133 269.493 94.6237 267.32 94.6237 264.751C94.6237 259.417 94.8216 254.083 95.2175 248.749C95.6133 244.205 96.0092 239.661 96.4051 235.117C96.4051 235.117 96.4051 235.117 96.4051 234.919C96.8009 231.363 97.1968 228.004 97.5926 224.448C97.7906 223.065 97.7906 221.88 97.9885 220.695V220.497C98.3844 215.36 98.7802 210.224 98.7802 205.087C98.7802 204.692 98.7802 204.297 98.7802 203.902C98.7802 203.309 98.7802 202.716 98.7802 202.124C98.5823 198.172 99.1761 194.023 97.9885 190.072C99.7699 189.48 101.353 188.887 102.937 188.294C100.166 187.504 97.7906 188.492 95.6133 189.282C95.8113 191.06 96.2071 192.245 96.4051 193.628C96.603 195.604 96.603 197.382 96.603 199.358C96.603 200.148 96.603 200.938 96.603 201.531C96.8009 209.631 95.6133 217.336 95.0196 225.436C94.6237 230.178 93.634 234.919 93.2382 239.661C92.6444 246.575 92.0506 253.688 91.6548 260.602C91.4568 261.985 91.4568 263.368 91.6548 264.751C91.8527 265.739 91.8527 266.529 92.0506 267.517C92.0506 267.517 92.0506 267.517 92.0506 267.715C92.2486 268.505 92.4465 269.295 92.8423 270.086C94.0299 272.456 96.2071 273.839 98.9781 274.432C101.353 275.025 103.926 275.42 106.499 275.815C109.073 276.21 111.448 276.21 113.823 275.222C116.198 274.234 118.375 273.049 120.75 271.864C120.75 271.864 120.75 271.666 120.75 271.468C121.146 271.864 121.344 272.654 121.74 272.654C128.47 273.049 132.032 269.098 131.438 262.578C131.043 259.022 129.855 255.466 127.282 252.502C126.49 251.515 125.896 250.329 125.105 249.144C123.917 247.168 123.323 245.192 123.917 242.822C123.917 242.427 124.115 242.031 124.115 241.834C124.907 238.08 125.699 234.129 126.688 230.375C127.282 227.609 127.876 225.041 128.667 222.275C129.855 217.336 131.043 212.199 132.032 207.26C133.022 202.519 132.824 198.172 129.657 194.221C128.865 193.233 128.074 192.641 126.886 192.641C125.699 192.641 124.511 192.443 123.323 192.443C123.125 191.85 122.928 191.653 122.928 191.258V188.294C122.928 186.121 123.125 184.145 123.323 181.972C123.719 176.44 124.907 170.711 125.501 165.377C125.699 164.586 125.896 163.796 126.292 163.204C128.074 161.425 127.678 159.252 127.282 157.079C126.49 152.93 125.303 148.979 124.313 144.633C124.511 144.237 124.709 143.842 125.105 143.447C123.323 141.669 123.125 140.879 122.136 136.928C120.948 132.581 119.959 128.235 118.573 124.086C117.386 120.53 116.198 116.776 114.615 113.22C113.031 109.466 112.239 105.712 111.448 101.959C110.656 98.7978 110.26 95.6367 110.458 92.2781C110.656 91.0928 110.062 89.9074 109.864 88.722C109.666 87.9318 109.468 86.9439 109.468 86.1537C109.666 83.1902 109.864 80.4243 110.26 77.4609C111.052 70.7437 112.635 64.2241 114.812 57.7045C115.01 57.3094 115.208 56.7167 115.208 56.3216C115.208 55.7289 115.208 54.9386 114.812 53.9508C114.417 54.9386 114.219 55.5313 114.021 56.124C113.031 59.285 112.437 62.6436 111.448 65.8046C109.666 72.3242 108.479 79.0414 107.885 85.7586C107.885 86.9439 107.489 87.9317 107.291 89.1171C104.322 89.3147 102.145 91.2903 99.1761 90.5001C99.7699 87.5366 101.155 85.1658 102.145 82.5975C102.343 82.4 102.343 82.2024 102.541 81.8073C103.728 79.4365 104.916 77.0657 105.708 74.695C106.697 72.1266 108.677 69.9534 108.875 67.1876C108.281 67.5827 107.687 67.7802 107.489 68.3729C105.708 71.7315 103.926 75.0901 102.343 78.4487C100.957 81.2146 99.9678 83.9805 98.3843 86.5488C96.0092 90.3025 93.4361 93.6611 90.8631 97.2172C90.0713 98.4026 88.8838 99.588 87.4983 100.181C80.3728 103.342 73.0494 104.725 65.3302 102.749C59.9861 101.366 56.0275 98.4026 53.8503 93.266C51.2772 87.1415 49.6938 81.017 48.1104 74.695C47.1207 70.5461 46.5269 66.3973 44.9435 62.446C44.5476 61.6558 44.3497 60.8655 43.9539 60.2728C43.558 60.0753 42.9642 60.0753 42.1725 59.8777C43.558 65.4095 44.9435 70.3486 45.9332 75.4852C46.5269 78.0536 47.5166 80.6219 48.3083 83.1902C49.1 85.561 49.6938 88.1293 49.8917 91.0928C47.9124 90.6976 46.329 90.1049 44.7456 89.5123C44.3497 89.3147 43.9539 89.3147 43.558 89.1171C43.3601 83.7829 43.3601 78.4487 42.9642 73.1145C42.5684 67.7803 41.7766 62.446 41.1829 57.1118C44.1518 54.741 45.9331 51.58 46.7249 48.2214C46.7249 48.0239 46.7249 47.8263 46.7249 47.8263C47.3187 43.875 47.9124 40.1213 48.3083 36.17C49.298 27.8724 51.2772 19.7723 54.0482 11.8697C54.84 9.69651 56.0275 8.51112 58.2048 7.91843C60.184 7.32574 61.9654 7.12818 63.9447 6.73305C65.924 6.53549 68.1012 6.14036 70.0805 5.74523C75.0287 4.55985 80.1749 4.16472 85.1231 4.55985C88.092 4.16472 91.061 4.16472 94.0299 4.75741C95.2175 4.95498 96.2071 5.3501 97.3947 5.74523C98.1864 6.14036 99.1761 6.33792 99.7699 6.93061C101.353 8.70869 102.739 10.4868 103.926 12.4624C106.302 16.2161 107.885 20.1674 108.677 24.5138C108.875 25.6992 109.073 26.8845 109.27 28.0699C109.864 33.7993 111.844 38.9359 112.833 44.4677C112.833 45.4555 113.229 46.2458 113.625 47.0361C114.615 49.2093 116.396 50.5922 118.573 50.5922C118.771 50.5922 118.969 50.5922 119.167 50.5922C121.74 50.7898 124.313 50.1971 126.292 48.8141C128.272 47.4312 130.053 45.6531 131.043 45.6531C134.209 42.2945 136.98 38.7384 139.752 34.7871C142.127 31.231 143.314 27.4772 144.7 23.526C146.679 17.7966 143.908 13.4502 138.762 10.8819ZM21.7858 261.393C20.9941 261.393 20.2024 261.195 19.2127 260.8C20.0044 259.417 20.7962 258.034 21.5879 256.849C19.4107 257.639 18.421 259.812 16.4417 260.8L15.8479 260.207C17.2334 258.232 18.8169 256.454 20.9941 254.478C20.7962 254.28 20.7962 254.28 20.5982 254.083C20.2024 254.28 19.8065 254.478 19.4107 254.873C18.421 255.861 17.2334 256.849 16.4417 258.034C14.6604 260.602 12.2852 260.602 9.71213 260.405C9.51421 260.405 9.11835 260.405 8.92042 260.207C8.52456 260.207 7.73284 259.812 7.73284 259.417C7.73284 259.022 7.93078 258.232 8.32663 257.837C8.92042 257.441 9.71214 257.046 10.3059 256.651C12.879 255.466 15.4521 254.28 18.0252 252.897C19.8065 251.91 21.5879 250.724 23.3692 249.539C24.5568 248.551 25.9423 247.563 27.9216 247.168C28.3175 248.354 28.5154 249.539 28.9113 250.724C29.1092 251.515 29.3071 252.305 29.505 253.095C29.505 253.293 29.703 253.688 29.703 253.885C29.505 254.676 28.9113 255.466 28.1195 256.454C27.7237 256.849 27.1299 257.441 26.5361 257.837C25.9423 258.232 25.3485 258.627 24.9527 259.22C24.3589 260.998 23.1713 261.393 21.7858 261.393ZM35.6408 230.573C36.0367 232.548 36.6305 234.326 37.0263 236.105C37.6201 238.475 38.2139 240.846 38.8077 243.217C39.0056 244.205 39.4015 245.39 39.7973 246.378C40.1932 247.761 40.5891 249.144 40.9849 250.329C41.1829 250.922 41.3808 251.515 41.5787 252.107C41.7766 253.293 41.7766 254.478 40.787 255.466C37.0263 259.417 34.4533 263.763 32.8698 268.703C32.6719 269.295 32.474 269.888 32.474 270.481C32.474 270.481 32.474 270.481 32.0781 270.876C31.6823 270.876 31.2864 270.678 30.8905 270.678C30.0988 270.678 29.3071 270.481 28.3175 270.481C27.9216 268.9 28.9113 267.912 29.505 266.727C30.0988 265.542 30.6926 264.554 31.0885 263.171C30.6926 263.368 29.9009 263.566 29.703 263.961C28.7133 265.937 27.9216 267.912 26.932 269.888C26.1402 269.69 25.7444 269.295 25.3485 269.098C24.3589 268.307 24.3589 267.517 24.7547 266.332C24.9527 265.937 25.1506 265.739 25.3485 265.344C27.1299 262.776 29.1092 260.405 30.8905 257.837C32.8698 254.676 33.6615 250.922 33.8595 247.168C33.8595 247.168 33.6615 246.971 33.2657 246.575C32.6719 247.168 32.0781 247.761 31.2864 248.354C29.505 243.019 27.9216 238.08 26.1402 232.746C29.1092 230.573 31.6823 228.597 34.2553 226.226C34.8491 227.807 35.245 229.19 35.6408 230.573ZM27.5258 201.333C27.7237 202.321 27.9216 203.309 28.3175 204.297C29.3071 207.063 30.2968 209.829 31.0885 212.792C32.0781 215.558 32.6719 218.521 33.4636 221.287C31.2864 224.053 27.5258 224.448 25.1506 227.807C28.5154 226.819 30.0988 224.053 33.0678 223.46C34.0574 224.251 34.0574 225.041 33.0678 225.634C30.8905 227.214 28.5154 228.992 25.7444 230.77C25.3485 229.387 24.9527 228.4 24.7547 227.214C24.5568 226.819 24.5568 226.226 24.3589 225.831C23.3692 222.275 22.3796 218.719 21.7858 214.965C21.192 211.804 20.9941 208.446 20.7962 205.285C20.7962 204.692 20.9941 203.704 21.3899 203.111C22.5775 200.741 23.963 198.37 25.5465 195.406C26.734 197.382 27.1299 199.358 27.5258 201.333ZM38.4118 106.305C38.4118 106.305 38.4118 106.503 38.4118 106.305C38.4118 108.083 38.2139 109.466 36.8284 110.454C36.8284 111.244 37.2243 112.232 36.0367 113.22C35.6408 112.035 36.0367 111.244 36.8284 110.454C36.8284 109.466 37.0263 108.478 37.4222 107.688C37.6201 107.293 37.8181 107.095 38.016 106.7C38.2139 106.7 38.4118 106.503 38.4118 106.305C38.6098 105.91 38.6098 106.108 38.4118 106.305ZM125.105 259.615C125.303 260.405 125.699 260.998 126.886 260.602V256.651C128.272 258.034 129.657 261.393 129.855 263.763C130.053 265.542 129.063 267.122 128.074 268.703C126.292 266.924 126.292 263.961 123.125 262.38C124.313 265.146 125.105 267.122 126.094 269.295C124.511 270.678 122.532 270.876 120.948 271.073C122.532 264.949 120.552 260.01 116 255.663C115.01 254.676 114.417 253.885 114.021 252.897C113.427 251.514 113.229 250.132 113.229 248.551C113.229 244.007 114.417 239.661 114.812 235.117C115.01 233.141 115.802 231.363 117.583 229.98C117.979 229.783 118.375 229.387 118.771 228.992C120.552 227.609 122.334 226.226 124.115 224.843C124.907 226.226 124.115 227.214 123.917 228.202C122.928 233.536 121.74 238.87 120.552 244.205C120.552 244.6 120.354 244.995 120.354 245.192C120.157 246.971 120.354 248.749 121.146 250.527C121.344 251.119 121.542 251.515 121.74 252.107C122.928 254.676 124.115 257.244 125.105 259.615ZM123.323 194.221C127.876 194.616 130.251 196.592 130.251 200.741C130.053 204.099 129.459 207.655 128.865 211.212C128.272 214.373 127.48 217.534 126.688 220.695C126.49 221.682 126.292 222.67 124.907 223.065C124.709 222.67 124.313 222.275 123.719 221.682C121.938 222.868 120.354 224.053 118.771 225.239C118.573 225.436 118.177 225.634 117.979 225.831C117.781 225.239 117.781 225.041 117.781 224.646C118.177 222.275 118.573 219.904 118.969 217.534C120.157 210.026 121.542 202.716 122.73 195.406C122.73 195.011 123.125 194.616 123.323 194.221ZM43.1621 97.2172C43.558 95.2416 44.3497 93.4635 45.1414 91.4879C46.329 91.6854 47.5166 91.883 48.9021 92.0806C49.2979 92.0806 49.8917 92.2781 50.2876 92.2781C50.4855 92.2781 50.6835 92.2781 50.8814 92.2781C50.8814 92.2781 51.0793 92.2781 51.2772 92.2781C51.4752 92.4757 51.4752 92.6733 51.6731 93.0684C52.2669 93.8587 52.8607 95.044 53.4545 96.0319C55.0379 99.3904 57.611 101.959 60.9758 103.342C61.7675 103.737 62.7571 103.934 63.5488 104.33C64.1426 104.527 64.9343 104.725 65.5281 104.922C68.8929 105.91 72.4557 106.305 76.0184 105.712C79.1852 105.12 82.1542 104.725 85.321 104.33C88.8838 103.737 91.8527 102.156 93.832 98.9953C95.2175 96.8221 96.603 94.6489 98.1864 92.0806C99.5719 91.6855 101.551 91.4879 103.333 91.0928C104.718 90.6976 106.302 90.3025 108.083 90.1049C108.281 90.1049 108.479 90.1049 108.479 90.1049C108.677 93.0684 109.073 95.8343 109.27 98.6002C109.468 99.588 109.073 100.181 108.479 100.378C108.083 100.576 107.489 100.773 106.895 100.773C106.499 98.2051 106.302 95.8343 106.104 93.0684C104.718 93.8587 105.51 95.044 105.312 95.8343C105.114 96.8221 105.312 97.8099 105.312 98.7978V101.959C104.52 102.156 103.728 102.354 103.135 102.551C102.541 102.947 102.145 103.539 102.145 103.539C96.0092 105.515 89.6755 107.293 83.1438 107.491C74.237 107.886 65.5281 106.898 56.8193 105.515C54.0482 105.12 51.2772 104.132 48.7042 103.342C48.7042 103.342 48.7042 103.342 48.5062 103.342C47.1207 100.181 49.6938 97.4148 48.7042 94.0562C46.9228 96.8221 48.1104 99.9831 46.7249 102.354C45.3394 102.156 45.7352 101.366 45.7352 100.576C45.9331 98.4026 46.1311 96.2294 46.329 93.8587C44.9435 94.4514 45.3394 95.4392 45.3394 96.2294C45.3394 97.2172 45.3394 98.2051 45.1414 99.1929C44.9435 99.9831 44.5477 100.773 44.3497 101.959C42.5684 100.378 42.7663 98.7977 43.1621 97.2172Z" fill="black"/>
<path d="M76.8113 95.6364C78.1968 96.4266 79.1864 97.0193 80.1761 97.8096C80.374 98.0071 80.374 98.7974 80.1761 99.1925C80.1761 99.3901 79.3843 99.5876 78.9885 99.3901C78.5926 99.3901 78.1968 98.7974 77.8009 98.7974C76.0195 98.0071 74.2382 97.612 72.4568 99.1925C71.4672 99.9828 70.4775 100.18 69.8838 98.5998C70.8734 97.8096 71.6651 96.8218 72.6548 96.2291C74.0403 95.4388 74.4361 94.451 74.4361 93.0681C74.4361 90.8948 74.4361 88.9192 74.4361 86.9436C74.0403 86.5485 73.8423 86.3509 73.6444 86.1533C71.2693 85.7582 69.8838 84.3752 68.8941 82.3996C67.1127 79.2386 65.5293 76.0776 66.1231 72.3239C66.519 69.558 67.7065 68.3726 70.2796 67.9775C73.8423 67.1872 77.603 67.1872 81.1657 67.9775C82.5512 68.3726 83.9367 68.9653 85.1243 69.7555C87.3015 71.336 87.6974 73.9044 86.7077 76.2751C85.7181 78.2508 84.7284 80.2264 83.7388 82.202C83.145 83.3874 82.1553 84.3753 80.7698 84.7704C79.9781 84.9679 79.3843 85.3631 78.5926 85.5606C77.4051 85.9558 76.8113 86.746 76.8113 87.9314C76.8113 90.6973 76.8113 93.0681 76.8113 95.6364Z" fill="black"/>
<path d="M77.2039 10.0918C76.6101 8.70887 76.0163 7.32592 75.4225 5.94298C75.6205 5.74541 75.6205 5.74542 75.8184 5.54785C76.2143 5.94298 77.006 5.94298 77.2039 6.53567C79.5791 9.49913 81.3604 12.4626 82.1521 16.2163C83.5376 22.3408 84.5273 28.6628 84.3293 34.9848C84.3293 37.7507 83.9335 40.3191 82.3501 42.4923C81.7563 43.2825 81.1625 44.0728 80.5687 44.2703C78.9853 44.6655 78.7873 46.0484 78.1935 47.2338C76.6101 50.7899 75.6205 54.5437 72.6515 57.3096C71.0681 58.6925 69.4847 60.0754 67.5054 60.8657C63.5468 62.4462 59.5882 63.8292 55.6296 65.4097C53.4524 66.3975 50.8793 66.7926 49.6918 69.5585C48.7021 68.7682 48.3063 67.978 49.2959 67.1877C50.6814 66.1999 52.0669 65.2121 53.4524 64.6194C56.8172 63.2365 60.182 61.8535 63.7447 60.6681C70.4743 58.4949 74.4329 53.951 76.808 47.4314C77.4018 45.6533 77.9956 43.8752 78.7873 42.0971C81.3604 41.8996 82.3501 40.3191 82.7459 38.3434C83.1418 36.3678 83.3397 34.1946 83.1418 32.0214C82.7459 26.292 81.9542 20.7603 80.3708 15.2285C80.1728 14.6358 79.777 14.0431 79.3811 13.2528C77.006 15.2285 74.8288 17.0065 72.2557 19.1797C72.4536 18.3895 72.4536 17.7968 72.6515 17.5992C73.6412 16.4139 74.8288 15.426 76.0163 14.4382C76.808 13.648 77.7977 13.0553 78.7873 12.265C77.9956 11.4748 77.5998 10.6845 77.2039 10.0918Z" fill="black"/>
<path d="M97.3948 52.9629C96.801 54.741 96.2072 56.5191 95.6134 58.0996C94.8217 60.0752 91.8528 60.2728 90.6652 58.4947C90.0714 57.7044 89.4776 56.5191 89.6755 55.7288C90.0714 53.5556 90.8631 51.3824 91.8528 49.6043C92.8424 48.0238 94.8217 48.0238 96.0093 49.6043C96.6031 50.5921 96.801 51.7775 97.3948 52.9629Z" fill="black"/>
<path d="M62.3614 47.0361C63.1531 48.4191 63.9448 49.4069 64.3407 50.3947C65.5283 53.1606 64.1428 56.3216 61.3718 57.7046C60.3821 58.0997 59.7883 57.9021 58.9966 57.3094C57.809 56.3216 57.4132 54.7411 57.6111 53.3582C57.809 51.7777 58.4028 50.1971 59.1945 48.8142C59.5904 47.8264 60.9759 47.6288 62.3614 47.0361Z" fill="black"/>
<path d="M67.9026 41.5039C67.7047 42.6893 67.9026 43.6771 67.5068 44.0722C64.9337 48.4186 58.0062 51.1845 53.058 50.1967C53.058 50.1967 52.86 49.9991 52.6621 49.604C55.4331 48.8138 58.2041 48.2211 60.5793 47.0357C62.9544 45.8503 65.1316 43.8747 67.9026 41.5039Z" fill="black"/>
<path d="M91.6555 42.4922C93.2389 44.6654 94.8223 46.8386 96.4058 48.8142C98.1871 50.7899 100.562 51.7777 103.135 52.3704C103.135 52.9631 102.937 53.3582 102.937 53.7533C97.1975 53.5558 91.2596 47.6288 91.6555 42.4922Z" fill="black"/>
<path d="M59.7871 258.034C59.7871 257.441 59.7871 257.046 59.7871 257.046C63.3498 254.082 67.1105 251.317 71.267 247.958C71.0691 248.946 71.0691 249.539 70.8711 249.736C67.9022 252.107 64.9333 254.478 61.9643 256.651C61.5685 257.244 60.7768 257.441 59.7871 258.034Z" fill="black"/>
<path d="M71.6641 70.7434C75.4247 69.7556 78.5916 69.1629 81.9564 71.5336C80.5709 73.1141 79.5812 71.7312 78.3936 71.7312C77.2061 71.7312 76.2164 71.5336 75.0289 71.5336C74.0392 71.3361 72.8516 72.1263 71.6641 70.7434Z" fill="white"/>
<path d="M69.4843 255.07C66.7133 257.244 63.9423 259.219 60.7754 261.787C62.1609 258.231 65.3278 255.861 69.4843 255.07Z" fill="black"/>
<path d="M77.2073 9.89453C77.0094 10.2897 77.0094 10.8824 76.8115 11.0799C75.426 11.8702 74.0405 12.6604 72.655 13.4507L72.457 13.2531C73.6446 11.475 75.426 10.6848 77.2073 9.89453Z" fill="black"/>
<path d="M72.6533 13.4502C71.8616 14.2404 71.0698 15.2283 70.0802 16.0185C69.6843 16.4136 69.0905 16.8088 68.2988 17.2039C69.4864 15.2283 69.6843 14.8331 72.6533 13.4502Z" fill="black"/>
<path d="M60.3848 91.4878C60.7806 90.8951 61.1765 90.5 61.3744 90.5C61.5723 90.5 62.1661 90.8951 62.1661 91.2903C62.1661 91.6854 61.7703 92.0805 61.5723 92.2781C61.3744 92.2781 60.9786 91.8829 60.3848 91.4878Z" fill="black"/>
<path d="M62.7578 85.1659C63.1537 84.9684 63.5495 84.7708 63.9454 84.5732L64.3412 85.1659C64.1433 85.5611 63.7475 85.7586 63.5495 85.9562C63.1537 85.9562 62.9557 85.7586 62.7578 85.1659Z" fill="black"/>
<path d="M87.8925 89.5117C88.0905 89.9068 88.4863 90.302 88.4863 90.6971C88.4863 90.8947 88.0905 91.0922 87.8925 91.2898C87.6946 91.0922 87.2987 90.6971 87.2987 90.4995C87.1008 90.302 87.4967 90.1044 87.8925 89.5117Z" fill="black"/>
<path d="M39.7988 206.075C40.1947 204.692 41.3823 204.494 42.7678 204.692C41.7781 205.087 40.7885 205.68 39.7988 206.075Z" fill="black"/>
<path d="M92.6466 83.783C92.0528 84.1781 91.8549 84.5732 91.459 84.7708C91.2611 84.5732 90.8652 84.1781 90.8652 83.9805C90.8652 83.783 91.2611 83.3878 91.459 83.3878C91.8549 83.1903 92.0528 83.5854 92.6466 83.783Z" fill="black"/>
<path d="M85.5176 85.3633C85.9135 85.5608 86.3093 85.7584 86.5072 85.956C86.3093 86.3511 86.1114 86.5487 85.7155 86.7462C85.5176 86.7462 85.1218 86.5487 84.9238 86.3511C85.1218 86.1535 85.3197 85.7584 85.5176 85.3633Z" fill="black"/>
<path d="M56.4238 85.1662C56.6218 84.7711 56.8197 84.5735 57.0176 84.376C57.2155 84.5735 57.6114 84.7711 57.8093 84.9687C57.6114 85.1662 57.4135 85.5614 57.2156 85.5614C57.0176 85.7589 56.6218 85.3638 56.4238 85.1662Z" fill="black"/>
<path d="M120.949 31.4282C121.345 31.0331 121.543 30.638 121.939 30.4404C121.939 30.638 122.137 30.638 122.137 30.8356C121.741 31.0331 121.345 31.2307 120.949 31.4282Z" fill="black"/>
<path d="M26.3359 40.7142C27.9194 37.9484 31.0862 35.1825 34.451 33.9971C32.0759 36.1703 29.7007 38.3435 27.3256 40.7142C27.1277 40.9118 26.7318 40.7142 26.3359 40.7142Z" fill="black"/>
<path d="M103.335 102.354C102.543 99.1933 102.345 94.8469 102.939 92.0811C103.137 93.0689 103.335 93.464 103.533 94.0567C103.731 95.6372 103.731 97.4153 103.929 98.9958C104.127 100.181 104.127 101.367 103.335 102.354Z" fill="black"/>
<path d="M61.7658 55.1366C61.7658 55.7292 61.172 56.3219 60.5782 56.3219C59.9844 56.3219 59.3906 55.7292 59.3906 55.1366C59.3906 54.5439 59.9844 53.9512 60.5782 53.9512C61.172 53.9512 61.7658 54.5439 61.7658 55.1366Z" fill="white"/>
<path d="M92.6446 57.7047C93.3005 57.7047 93.8322 57.174 93.8322 56.5194C93.8322 55.8647 93.3005 55.334 92.6446 55.334C91.9887 55.334 91.457 55.8647 91.457 56.5194C91.457 57.174 91.9887 57.7047 92.6446 57.7047Z" fill="white"/>
<path d="M90.0723 63.6309V66.5943C90.0723 66.7919 90.2702 67.187 90.2702 67.3846C90.4681 68.1748 90.6661 68.9651 90.864 69.7553C91.6557 72.1261 93.2391 74.2993 95.6143 75.0896C96.0101 75.2871 96.6039 75.2871 96.9998 75.0896C97.3956 74.892 97.5936 74.2993 97.5936 73.9042C97.5936 73.509 97.3956 72.9164 97.1977 72.5212C95.6143 69.3602 92.8433 66.3968 90.0723 63.6309Z" fill="white"/>
<path d="M90.4688 67.3848C90.2708 67.3848 90.2708 67.3848 90.4688 67.3848C90.4688 68.175 90.6667 68.9653 90.8646 69.7555C91.6563 72.1263 93.2398 74.2995 95.6149 75.0898C96.0108 75.2873 96.6046 75.2873 97.0004 75.0898C96.2087 74.4971 95.2191 73.9044 94.4273 73.1141C92.646 71.7312 91.2605 69.7555 90.4688 67.3848Z" fill="#BCBCBB"/>
<path d="M92.4473 71.1385C92.6452 71.3361 92.8432 71.5336 92.8432 71.7312C93.0411 71.7312 93.239 71.7312 93.239 71.7312V71.5336C93.0411 71.3361 92.8432 71.3361 92.4473 71.1385ZM92.0515 70.1507C91.8535 69.9531 91.6556 69.7556 91.4577 69.7556C91.6556 70.1507 91.8535 70.5458 92.0515 70.7434H92.8432C92.8432 70.3482 92.4473 70.3482 92.0515 70.1507ZM92.4473 71.1385C92.6452 71.3361 92.8432 71.5336 92.8432 71.7312C93.0411 71.7312 93.239 71.7312 93.239 71.7312V71.5336C93.0411 71.3361 92.8432 71.3361 92.4473 71.1385ZM92.0515 70.1507C91.8535 69.9531 91.6556 69.7556 91.4577 69.7556C91.6556 70.1507 91.8535 70.5458 92.0515 70.7434H92.8432C92.8432 70.3482 92.4473 70.3482 92.0515 70.1507ZM96.01 69.9531C95.2183 68.9653 94.4266 67.9775 93.6349 66.9897C92.6452 65.6067 91.2597 64.4213 89.8742 62.8408C89.4784 66.5945 89.4784 69.7556 90.8639 72.719C91.4577 74.102 92.4473 75.2873 94.0307 75.6825C94.4266 75.88 94.6245 75.88 95.0204 76.0776C96.6038 76.6703 97.7914 75.6825 97.7914 74.102C97.7914 72.5214 96.9997 71.1385 96.01 69.9531ZM96.9997 75.0898C96.8018 75.2873 96.8017 75.4849 96.4059 75.6825C95.8121 75.2873 95.0204 75.0898 94.4266 74.8922C93.437 74.6946 92.6452 73.7068 92.4473 72.719C92.4473 72.3239 92.2494 71.9287 92.2494 71.5336C92.4473 71.7312 92.6452 71.7312 92.8432 71.7312C93.0411 71.7312 93.239 71.7312 93.239 71.7312V71.5336C92.8432 71.3361 92.6452 71.3361 92.2494 71.1385C92.0514 70.9409 91.8535 70.9409 91.4577 70.7434H92.8432C92.6452 70.3482 92.2494 70.3482 91.8535 70.1507C91.6556 69.9531 91.4577 69.7556 91.2597 69.7556V69.558C90.6659 67.9775 90.468 66.397 90.468 64.6189C91.4577 65.4091 92.2494 66.0018 92.8432 66.9897C93.437 67.9775 94.2287 68.9653 95.0204 69.9531C96.01 71.1385 96.8018 72.3239 96.9997 73.9044C97.1976 74.2995 97.1976 74.6946 96.9997 75.0898ZM92.0515 70.1507C91.8535 69.9531 91.6556 69.7556 91.4577 69.7556C91.6556 70.1507 91.8535 70.5458 92.0515 70.7434H92.8432C92.8432 70.3482 92.4473 70.3482 92.0515 70.1507ZM92.4473 71.1385C92.6452 71.3361 92.8432 71.5336 92.8432 71.7312C93.0411 71.7312 93.239 71.7312 93.239 71.7312V71.5336C93.0411 71.3361 92.8432 71.3361 92.4473 71.1385Z" fill="black"/>
</svg>
