<svg width="309" height="89" viewBox="0 0 309 89" fill="none" xmlns="http://www.w3.org/2000/svg">
<path d="M31.3269 23.6032C36.8127 23.6032 39.1947 21.7265 39.1947 17.179C39.1947 12.776 36.8127 10.7549 31.3269 10.7549H9.31145V23.531H31.3269V23.6032ZM0 3.17578H33.0593C42.6594 3.17578 48.5062 9.59996 48.5062 17.3234C48.5062 26.6349 41.9376 31.3267 33.0593 31.3267H9.31145V49.2999H0V3.17578Z" fill="#444444"/>
<path d="M53.1564 47.8557V40.2766C58.7866 42.442 63.5506 43.0917 69.3252 43.0917C77.4817 43.0917 80.9464 42.1533 80.9464 39.4826C80.9464 32.4088 51.6406 40.5653 51.6406 26.1289C51.6406 18.7664 59.5084 15.2295 70.9854 15.2295C74.9554 15.2295 81.8126 16.0235 87.515 17.1062V24.3244C82.8232 23.386 76.9764 22.592 72.0681 22.592C64.2003 22.6642 60.7355 23.7469 60.7355 25.9846C60.7355 32.4088 90.0414 25.0462 90.0414 39.4826C90.0414 47.206 82.1735 50.382 70.6966 50.382C65.8604 50.382 58.6423 49.3715 53.1564 47.8557Z" fill="#444444"/>
<path d="M95.2466 16.3853H104.558V49.4445H95.2466V16.3853ZM94.0195 5.34145C94.0195 1.73236 96.2572 0 99.7219 0C103.331 0 105.569 1.73236 105.569 5.34145C105.569 8.95054 103.331 10.6829 99.7219 10.6829C96.3294 10.6829 94.0195 8.95054 94.0195 5.34145Z" fill="#444444"/>
<path d="M148.391 41.3599C153.299 41.3599 156.259 39.4832 156.259 35.0801C156.259 30.9658 153.444 29.089 148.391 29.089H124.282L124.426 41.2156L148.391 41.3599ZM114.898 3.17578H149.185C158.785 3.17578 164.126 8.37287 164.126 15.3023C164.126 22.0874 159.074 25.3356 151.35 25.8409C160.012 26.1296 165.642 29.8109 165.642 37.029C165.642 44.3916 159.651 49.2999 150.701 49.2999H114.971L114.898 3.17578ZM146.947 22.6649C151.856 22.6649 154.815 21.0769 154.815 16.9625C154.815 12.8481 152 10.9714 146.947 10.9714H124.282L124.426 22.5927H146.947V22.6649Z" fill="#444444"/>
<path d="M210.661 49.3728H200.411L201.711 35.8026H201.205C199.906 44.6088 194.926 50.4556 184.965 50.4556C175.653 50.3112 171.25 45.1141 171.25 30.7499V16.3857H180.561V29.595C180.561 39.6283 183.232 43.3096 189.656 43.3096C196.73 43.3096 201.422 36.2357 201.422 25.4085V16.3857H210.733L210.661 49.3728Z" fill="#444444"/>
<path d="M221.618 23.1704H217.359V16.3853H221.618V15.086C221.618 6.56855 224.289 2.52637 232.301 2.52637C234.539 2.52637 236.704 2.95946 240.024 3.60909V8.80619C239.23 8.80619 238.436 8.66182 237.787 8.66182C231.507 8.66182 231.146 10.1055 231.146 16.3853H240.097V22.5207H231.146V49.3002H221.835L221.618 23.1704Z" fill="#444444"/>
<path d="M273.062 30.6775C272.773 24.6864 269.164 22.5209 262.163 22.5209C255.233 22.5209 251.624 24.9029 251.119 31.1827L273.062 30.6775ZM242.312 32.9151C242.312 22.3766 250.325 15.3027 262.163 15.3027C273.928 15.3027 281.796 21.2938 282.013 30.3887V35.7302H251.191C252.274 41.216 256.677 43.3093 265.338 43.3093C273.495 43.3093 276.671 41.2882 280.569 39.7002V47.2793C274.145 49.6613 270.463 50.4553 262.163 50.4553C250.18 50.3831 242.312 43.4536 242.312 32.9151Z" fill="#444444"/>
<path d="M289.922 37.4628V23.1708H285.23V16.3857H291.366V8.37349L299.522 7.07422V16.2413H308.978V23.0986H299.522V35.3695C299.522 42.0102 299.522 43.7426 305.514 43.7426C306.452 43.7426 307.679 43.5982 308.978 43.5982V48.651C306.163 49.5893 303.492 49.9502 300.028 49.9502C291.294 50.0224 289.922 46.9186 289.922 37.4628Z" fill="#444444"/>
<path d="M308.998 57.4561H215.09V88.9995H308.998V57.4561Z" fill="#F15748"/>
<path d="M240.767 76.656C240.767 79.3989 238.457 80.9147 234.703 80.9147H223.227V65.4678H233.837C237.519 65.4678 239.901 66.9114 239.901 69.4378C239.901 71.1701 238.746 72.686 236.436 72.8303C238.89 72.9747 240.767 74.2018 240.767 76.656ZM226.763 71.7476H233.332C235.281 71.7476 236.436 71.4589 236.436 70.0152C236.436 68.5716 235.209 68.2829 233.332 68.2829H226.763V71.7476ZM237.158 76.295C237.158 74.707 236.003 74.4183 233.982 74.4183H226.691V78.0996H233.982C236.003 78.0996 237.158 77.8109 237.158 76.295Z" fill="white"/>
<path d="M258.694 77.8831V80.9147H244.258V65.4678H247.795V77.8831H258.694Z" fill="white"/>
<path d="M259.902 73.1916C259.902 67.9945 263.728 64.9629 269.719 64.9629C275.782 64.9629 279.536 67.9945 279.536 73.1916C279.536 78.3887 275.71 81.4203 269.719 81.4203C263.728 81.4203 259.902 78.3165 259.902 73.1916ZM275.999 73.1916C275.999 69.8713 273.617 67.9945 269.791 67.9945C265.966 67.9945 263.584 69.8713 263.584 73.1916C263.584 76.512 265.966 78.3887 269.791 78.3887C273.545 78.3165 275.999 76.512 275.999 73.1916Z" fill="white"/>
<path d="M300.92 77.7391C299.404 79.8323 296.3 81.3482 292.113 81.3482C285.906 81.3482 282.152 78.3165 282.152 73.1194C282.152 67.9223 285.906 64.9629 292.113 64.9629C295.939 64.9629 298.61 66.4065 300.126 67.9223L297.383 69.9434C296.011 68.6442 294.495 67.9945 292.113 67.9945C288.071 67.9945 285.689 69.7269 285.689 73.1916C285.689 76.6563 288.143 78.3887 292.258 78.3887C294.568 78.3887 296.444 77.8834 297.599 76.5842V75.0683H291.753V72.1811H300.92V77.7391Z" fill="white"/>
</svg>
