<svg width="17" height="17" viewBox="0 0 17 17" fill="none" xmlns="http://www.w3.org/2000/svg">
<path d="M17 8.5C17 6.81886 16.5015 5.17547 15.5675 3.77766C14.6335 2.37984 13.306 1.29037 11.7528 0.647028C10.1996 0.00368293 8.49057 -0.164645 6.84173 0.163329C5.1929 0.491303 3.67834 1.30085 2.4896 2.4896C1.30085 3.67834 0.491303 5.1929 0.163329 6.84173C-0.164645 8.49057 0.00368293 10.1996 0.647028 11.7528C1.29037 13.306 2.37984 14.6335 3.77766 15.5675C5.17547 16.5015 6.81886 17 8.5 17C10.7543 17 12.9164 16.1045 14.5104 14.5104C16.1045 12.9164 17 10.7543 17 8.5ZM8.5 15.4889C7.11773 15.4889 5.7665 15.079 4.61718 14.311C3.46787 13.5431 2.57208 12.4516 2.04311 11.1745C1.51414 9.89748 1.37574 8.49225 1.6454 7.13654C1.91507 5.78083 2.5807 4.53553 3.55811 3.55811C4.53553 2.5807 5.78083 1.91507 7.13654 1.6454C8.49225 1.37574 9.89748 1.51414 11.1745 2.04311C12.4516 2.57208 13.5431 3.46787 14.311 4.61718C15.079 5.7665 15.4889 7.11773 15.4889 8.5C15.4868 10.3529 14.7498 12.1294 13.4396 13.4396C12.1294 14.7498 10.3529 15.4868 8.5 15.4889Z" fill="black"/>
<path d="M8.50009 5.25016C8.64882 5.25016 8.79422 5.20605 8.91789 5.12342C9.04156 5.04078 9.13795 4.92333 9.19487 4.78591C9.25179 4.6485 9.26668 4.49729 9.23766 4.35141C9.20864 4.20553 9.13702 4.07153 9.03185 3.96636C8.92667 3.86119 8.79267 3.78956 8.64679 3.76054C8.50091 3.73153 8.34971 3.74642 8.21229 3.80334C8.07488 3.86026 7.95742 3.95665 7.87479 4.08032C7.79215 4.20399 7.74805 4.34938 7.74805 4.49812C7.74805 4.59688 7.7675 4.69467 7.80529 4.78591C7.84308 4.87716 7.89848 4.96006 7.96831 5.02989C8.03815 5.09973 8.12105 5.15512 8.21229 5.19292C8.30354 5.23071 8.40133 5.25016 8.50009 5.25016Z" fill="black"/>
<path d="M9.8317 12.1364C9.57144 12.053 9.25341 11.8084 9.25341 11.1106V6.53014C9.25341 6.51387 9.2502 6.49776 9.24398 6.48273C9.23775 6.4677 9.22863 6.45404 9.21712 6.44254C9.20562 6.43103 9.19196 6.42191 9.17693 6.41568C9.1619 6.40945 9.14579 6.40625 9.12952 6.40625H7.30379C7.24267 6.40625 7.18215 6.41829 7.12568 6.44167C7.06922 6.46506 7.01791 6.49934 6.9747 6.54256C6.93148 6.58577 6.8972 6.63708 6.87381 6.69355C6.85042 6.75001 6.83838 6.81053 6.83838 6.87165C6.83923 6.97167 6.87194 7.06881 6.93177 7.14896C6.9916 7.22912 7.07543 7.28811 7.17108 7.31737C7.43132 7.40078 7.74933 7.64544 7.74933 8.34314V11.1107C7.74933 11.8084 7.43132 12.053 7.17108 12.1364C7.07543 12.1657 6.9916 12.2247 6.93177 12.3048C6.87194 12.385 6.83923 12.4821 6.83838 12.5822C6.83838 12.6433 6.85042 12.7038 6.87381 12.7603C6.8972 12.8167 6.93148 12.868 6.9747 12.9112C7.01791 12.9545 7.06922 12.9887 7.12568 13.0121C7.18215 13.0355 7.24267 13.0475 7.30379 13.0475H9.699C9.76012 13.0475 9.82064 13.0355 9.8771 13.0121C9.93357 12.9887 9.98487 12.9545 10.0281 12.9112C10.0713 12.868 10.1056 12.8167 10.129 12.7603C10.1524 12.7038 10.1644 12.6433 10.1644 12.5822C10.1635 12.4821 10.1308 12.385 10.071 12.3048C10.0112 12.2247 9.92735 12.1657 9.8317 12.1364Z" fill="black"/>
</svg>
