<svg width="50" height="50" viewBox="0 0 50 50" fill="none" xmlns="http://www.w3.org/2000/svg">
<g clip-path="url(#clip0_15733_642)">
<path d="M32.5008 23.8991C32.4008 24.2991 32.2008 24.4991 31.9008 24.7991C31.8008 24.8991 31.8008 24.9991 31.9008 25.0991C32.2008 25.3991 32.4008 25.6991 32.4008 26.0991C32.4008 26.9991 31.9008 27.5991 31.1008 27.5991C31.1008 27.5991 28.1008 27.5991 26.8008 27.5991V27.6991C26.9008 28.2991 26.9008 28.9991 26.9008 29.5991C26.9008 30.1991 26.7008 30.7991 26.5008 31.2991C26.0008 32.0991 25.4008 32.5991 24.4008 32.3991C24.1008 32.3991 24.0008 32.2991 24.0008 31.9991C24.0008 31.2991 24.0008 30.5991 24.1008 29.9991C24.1008 29.5991 24.0008 29.1991 23.8008 28.8991C23.2008 27.7991 22.5008 26.7991 21.9008 25.6991C21.9008 25.5991 21.8008 25.5991 21.8008 25.4991C21.8008 22.8991 21.8008 20.2991 21.8008 17.7991C21.8008 17.5991 21.8008 17.5991 22.0008 17.5991C24.5008 17.5991 29.5008 17.4991 29.6008 17.5991H29.7008C30.5008 17.7991 31.2008 19.0991 30.7008 19.7991C30.6008 19.8991 30.7008 19.9991 30.8008 19.9991C31.1008 20.0991 31.3008 20.1991 31.5008 20.3991C32.0008 20.8991 32.1008 21.3991 31.7008 21.9991C31.6008 22.0991 31.6008 22.1991 31.5008 22.2991C31.6008 22.2991 31.6008 22.3991 31.7008 22.3991C32.0008 22.4991 32.2008 22.6991 32.4008 22.9991C32.5008 23.1991 32.6008 23.4991 32.5008 23.8991Z" fill="#F15748"/>
<path d="M20.7004 25.5977C19.7004 25.5977 18.7004 25.5977 17.6004 25.5977C17.4004 25.5977 17.4004 25.5977 17.4004 25.3977C17.4004 22.7977 17.4004 20.2977 17.4004 17.6977V17.5977C18.5004 17.5977 19.5004 17.5977 20.6004 17.5977H20.7004C20.8004 17.5977 20.7004 17.6977 20.7004 17.6977C20.7004 20.2977 20.7004 22.8977 20.7004 25.4977C20.8004 25.4977 20.8004 25.5977 20.7004 25.5977Z" fill="#F15748"/>
<path d="M25 50C11.2 50 0 38.8 0 25C0 11.2 11.2 0 25 0C38.8 0 50 11.2 50 25C50 38.8 38.8 50 25 50ZM25 1.5C12 1.5 1.5 12 1.5 25C1.5 38 12 48.5 25 48.5C38 48.5 48.5 38 48.5 25C48.5 12 38 1.5 25 1.5Z" fill="#F15748"/>
</g>
<defs>
<clipPath id="clip0_15733_642">
<rect width="50" height="50" fill="white"/>
</clipPath>
</defs>
</svg>
