<svg width="32" height="32" viewBox="0 0 32 32" fill="none" xmlns="http://www.w3.org/2000/svg">
<path d="M28.6562 4H22.8438V1.46875C22.8438 1.1875 22.5625 1 22.375 1C22.0938 1 21.9062 1.1875 21.9062 1.46875V4H10.0938V1.46875C10.0938 1.1875 9.90625 1 9.625 1C9.4375 1 9.15625 1.1875 9.15625 1.46875V4H3.34375C2.03125 4 1 5.125 1 6.34375V28.6562C1 29.9688 2.03125 31 3.34375 31H28.6562C29.9688 31 31 29.9688 31 28.6562V6.34375C31 5.125 29.9688 4 28.6562 4ZM3.34375 4.9375H9.15625V7.5625C9.15625 7.84375 9.34375 8.03125 9.625 8.03125C9.90625 8.03125 10.0938 7.84375 10.0938 7.5625V4.9375H21.8125V7.5625C21.8125 7.84375 22 8.03125 22.2812 8.03125C22.5625 8.03125 22.75 7.84375 22.75 7.5625V4.9375H28.5625C29.3125 4.9375 29.9688 5.59375 29.9688 6.34375V11.5938H1.9375V6.34375C1.9375 5.59375 2.59375 4.9375 3.34375 4.9375ZM28.6562 30.0625H3.34375C2.59375 30.0625 1.9375 29.4062 1.9375 28.6562V12.5312H30.0625V28.6562C30.0625 29.4062 29.4062 30.0625 28.6562 30.0625Z" fill="black" fill-opacity="0.2"/>
<path d="M6.71875 15.25H4.1875C3.90625 15.25 3.71875 15.4375 3.71875 15.7188C3.71875 16 3.90625 16.1875 4.1875 16.1875H6.8125C7.09375 16.1875 7.28125 16 7.28125 15.7188C7.1875 15.5312 7 15.25 6.71875 15.25Z" fill="black" fill-opacity="0.2"/>
<path d="M12.0625 15.25H9.4375C9.15625 15.25 8.96875 15.4375 8.96875 15.7188C8.96875 16 9.15625 16.1875 9.4375 16.1875H12.0625C12.3438 16.1875 12.5313 16 12.5313 15.7188C12.5313 15.5312 12.25 15.25 12.0625 15.25Z" fill="black" fill-opacity="0.2"/>
<path d="M17.3125 15.25H14.6875C14.4062 15.25 14.2188 15.4375 14.2188 15.7188C14.2188 16 14.4062 16.1875 14.6875 16.1875H17.3125C17.5937 16.1875 17.7812 16 17.7812 15.7188C17.7812 15.5312 17.5937 15.25 17.3125 15.25Z" fill="black" fill-opacity="0.2"/>
<path d="M22.5625 15.25H19.9375C19.6562 15.25 19.4688 15.4375 19.4688 15.7188C19.4688 16 19.6562 16.1875 19.9375 16.1875H22.5625C22.8437 16.1875 23.0312 16 23.0312 15.7188C23.0312 15.5312 22.8437 15.25 22.5625 15.25Z" fill="black" fill-opacity="0.2"/>
<path d="M27.8125 15.25H25.1875C24.9062 15.25 24.7188 15.4375 24.7188 15.7188C24.7188 16 24.9062 16.1875 25.1875 16.1875H27.8125C28.0938 16.1875 28.2813 16 28.2813 15.7188C28.2813 15.5312 28.0938 15.25 27.8125 15.25Z" fill="black" fill-opacity="0.2"/>
<path d="M6.71875 19H4.1875C3.90625 19 3.71875 19.1875 3.71875 19.4688C3.71875 19.75 3.90625 19.9375 4.1875 19.9375H6.8125C7.09375 19.9375 7.28125 19.75 7.28125 19.4688C7.1875 19.1875 7 19 6.71875 19Z" fill="black" fill-opacity="0.2"/>
<path d="M12.0625 19H9.4375C9.15625 19 8.96875 19.1875 8.96875 19.4688C8.96875 19.75 9.15625 19.9375 9.4375 19.9375H12.0625C12.3438 19.9375 12.5313 19.75 12.5313 19.4688C12.5313 19.1875 12.25 19 12.0625 19Z" fill="black" fill-opacity="0.2"/>
<path d="M17.3125 19H14.6875C14.4062 19 14.2188 19.1875 14.2188 19.4688C14.2188 19.75 14.4062 19.9375 14.6875 19.9375H17.3125C17.5937 19.9375 17.7812 19.75 17.7812 19.4688C17.7812 19.1875 17.5937 19 17.3125 19Z" fill="black" fill-opacity="0.2"/>
<path d="M22.5625 19H19.9375C19.6562 19 19.4688 19.1875 19.4688 19.4688C19.4688 19.75 19.6562 19.9375 19.9375 19.9375H22.5625C22.8437 19.9375 23.0312 19.75 23.0312 19.4688C23.0312 19.1875 22.8437 19 22.5625 19Z" fill="black" fill-opacity="0.2"/>
<path d="M27.8125 19H25.1875C24.9062 19 24.7188 19.1875 24.7188 19.4688C24.7188 19.75 24.9062 19.9375 25.1875 19.9375H27.8125C28.0938 19.9375 28.2813 19.75 28.2813 19.4688C28.2813 19.1875 28.0938 19 27.8125 19Z" fill="black" fill-opacity="0.2"/>
<path d="M6.71875 22.6562H4.1875C3.90625 22.6562 3.71875 22.8437 3.71875 23.125C3.71875 23.4062 3.90625 23.5938 4.1875 23.5938H6.8125C7.09375 23.5938 7.28125 23.4062 7.28125 23.125C7.1875 22.8437 7 22.6562 6.71875 22.6562Z" fill="black" fill-opacity="0.2"/>
<path d="M12.0625 22.6562H9.4375C9.15625 22.6562 8.96875 22.8437 8.96875 23.125C8.96875 23.4062 9.15625 23.5938 9.4375 23.5938H12.0625C12.3438 23.5938 12.5313 23.4062 12.5313 23.125C12.5313 22.8437 12.25 22.6562 12.0625 22.6562Z" fill="black" fill-opacity="0.2"/>
<path d="M17.3125 22.6562H14.6875C14.4062 22.6562 14.2188 22.8437 14.2188 23.125C14.2188 23.4062 14.4062 23.5938 14.6875 23.5938H17.3125C17.5937 23.5938 17.7812 23.4062 17.7812 23.125C17.7812 22.8437 17.5937 22.6562 17.3125 22.6562Z" fill="black" fill-opacity="0.2"/>
<path d="M22.5625 22.6562H19.9375C19.6562 22.6562 19.4688 22.8437 19.4688 23.125C19.4688 23.4062 19.6562 23.5938 19.9375 23.5938H22.5625C22.8437 23.5938 23.0312 23.4062 23.0312 23.125C23.0312 22.8437 22.8437 22.6562 22.5625 22.6562Z" fill="black" fill-opacity="0.2"/>
<path d="M27.8125 22.6562H25.1875C24.9062 22.6562 24.7188 22.8437 24.7188 23.125C24.7188 23.4062 24.9062 23.5938 25.1875 23.5938H27.8125C28.0938 23.5938 28.2813 23.4062 28.2813 23.125C28.2813 22.8437 28.0938 22.6562 27.8125 22.6562Z" fill="black" fill-opacity="0.2"/>
<path d="M6.71875 26.3125H4.1875C3.90625 26.3125 3.71875 26.5 3.71875 26.7812C3.71875 27.0625 3.90625 27.25 4.1875 27.25H6.8125C7.09375 27.25 7.28125 27.0625 7.28125 26.7812C7.28125 26.5 7 26.3125 6.71875 26.3125Z" fill="black" fill-opacity="0.2"/>
<path d="M12.0625 26.3125H9.4375C9.15625 26.3125 8.96875 26.5 8.96875 26.7812C8.96875 27.0625 9.15625 27.25 9.4375 27.25H12.0625C12.3438 27.25 12.5313 27.0625 12.5313 26.7812C12.5313 26.5 12.25 26.3125 12.0625 26.3125Z" fill="black" fill-opacity="0.2"/>
<path d="M17.3125 26.3125H14.6875C14.4062 26.3125 14.2188 26.5 14.2188 26.7812C14.2188 27.0625 14.4062 27.25 14.6875 27.25H17.3125C17.5937 27.25 17.7812 27.0625 17.7812 26.7812C17.7812 26.5 17.5937 26.3125 17.3125 26.3125Z" fill="black" fill-opacity="0.2"/>
<path d="M22.5625 26.3125H19.9375C19.6562 26.3125 19.4688 26.5 19.4688 26.7812C19.4688 27.0625 19.75 27.25 19.9375 27.25H22.5625C22.8437 27.25 23.0312 27.0625 23.0312 26.7812C23.0312 26.5 22.8437 26.3125 22.5625 26.3125Z" fill="black" fill-opacity="0.2"/>
<path d="M27.8125 26.3125H25.1875C24.9062 26.3125 24.7188 26.5 24.7188 26.7812C24.7188 27.0625 24.9062 27.25 25.1875 27.25H27.8125C28.0938 27.25 28.2813 27.0625 28.2813 26.7812C28.2813 26.5 28.0938 26.3125 27.8125 26.3125Z" fill="black" fill-opacity="0.2"/>
</svg>
