<svg width="50" height="50" viewBox="0 0 50 50" fill="none" xmlns="http://www.w3.org/2000/svg">
<g clip-path="url(#clip0_15693_1098)">
<circle cx="25" cy="25" r="25" fill="#129D67"/>
<path d="M32.5008 26.0988C32.4008 25.6988 32.2008 25.4988 31.9008 25.1988C31.8008 25.0988 31.8008 24.9988 31.9008 24.8988C32.2008 24.5988 32.4008 24.2988 32.4008 23.8988C32.4008 22.9988 31.9008 22.3988 31.1008 22.3988C31.1008 22.3988 28.1008 22.3988 26.8008 22.3988V22.2988C26.9008 21.6988 26.9008 20.9988 26.9008 20.3988C26.9008 19.7988 26.7008 19.1988 26.5008 18.6988C26.0008 17.8988 25.4008 17.3988 24.4008 17.5988C24.1008 17.5988 24.0008 17.6988 24.0008 17.9988C24.0008 18.6988 24.0008 19.3988 24.1008 19.9988C24.1008 20.3988 24.0008 20.7988 23.8008 21.0988C23.2008 22.1988 22.5008 23.1988 21.9008 24.2988C21.9008 24.3988 21.8008 24.3988 21.8008 24.4988C21.8008 27.0988 21.8008 29.6988 21.8008 32.1988C21.8008 32.3988 21.8008 32.3988 22.0008 32.3988C24.5008 32.3988 29.5008 32.4988 29.6008 32.3988H29.7008C30.5008 32.1988 31.2008 30.8988 30.7008 30.1988C30.6008 30.0988 30.7008 29.9988 30.8008 29.9988C31.1008 29.8988 31.3008 29.7988 31.5008 29.5988C32.0008 29.0988 32.1008 28.5988 31.7008 27.9988C31.6008 27.8988 31.6008 27.7988 31.5008 27.6988C31.6008 27.6988 31.6008 27.5988 31.7008 27.5988C32.0008 27.4988 32.2008 27.2988 32.4008 26.9988C32.5008 26.7988 32.6008 26.4988 32.5008 26.0988Z" fill="white"/>
<path d="M20.7004 24.3984C19.7004 24.3984 18.7004 24.3984 17.6004 24.3984C17.4004 24.3984 17.4004 24.3984 17.4004 24.5984C17.4004 27.1984 17.4004 29.6984 17.4004 32.2984V32.3984C18.5004 32.3984 19.5004 32.3984 20.6004 32.3984H20.7004C20.8004 32.3984 20.7004 32.2984 20.7004 32.2984C20.7004 29.6984 20.7004 27.0984 20.7004 24.4984C20.8004 24.4984 20.8004 24.3984 20.7004 24.3984Z" fill="white"/>
</g>
<defs>
<clipPath id="clip0_15693_1098">
<rect width="50" height="50" fill="white"/>
</clipPath>
</defs>
</svg>
