<svg width="50" height="50" viewBox="0 0 50 50" fill="none" xmlns="http://www.w3.org/2000/svg">
<g clip-path="url(#clip0_15693_1229)">
<path d="M25 50C11.2 50 0 38.8 0 25C0 11.2 11.2 0 25 0C38.8 0 50 11.2 50 25C50 38.8 38.8 50 25 50ZM25 1.5C12 1.5 1.5 12 1.5 25C1.5 38 12 48.5 25 48.5C38 48.5 48.5 38 48.5 25C48.5 12 38 1.5 25 1.5Z" fill="black"/>
<path d="M31.1001 29.4011C30.9001 28.9011 30.7001 28.3011 30.4001 27.8011C30.0001 27.1011 29.6001 26.4011 29.0001 25.9011C27.4001 24.2011 26.5001 23.7011 24.2001 24.5011C23.8001 24.6011 23.4001 24.9011 23.0001 25.2011C22.3001 25.8011 21.6001 26.3011 21.0001 27.0011C20.1001 28.0011 19.5001 29.1011 19.2001 30.5011C19.0001 31.5011 18.9001 32.6011 18.7001 33.6011C18.5001 34.7011 19.2001 35.7011 20.3001 35.8011C20.8001 35.8011 21.3001 35.8011 21.8001 35.6011C22.7001 35.4011 23.5001 35.1011 24.4001 34.8011C25.4001 34.5011 26.3001 34.6011 27.3001 35.0011C27.9001 35.2011 28.5001 35.4011 29.1001 35.6011C29.4001 35.7011 29.7001 35.6011 29.9001 35.5011C30.8001 34.9011 31.3001 34.1011 31.3001 32.9011C31.3001 32.3011 31.3001 31.7011 31.2001 31.3011C31.4001 30.5011 31.3001 29.9011 31.1001 29.4011Z" fill="black"/>
<path d="M18.1001 23.8016C17.5001 22.9016 16.8001 22.1016 15.8001 21.8016C15.5001 21.7016 15.1001 21.7016 14.8001 21.8016C14.1001 22.3016 13.8001 23.1016 13.7001 24.0016C13.6001 25.7016 14.2001 27.0016 15.6001 28.0016C16.3001 28.5016 17.1001 28.6016 17.8001 28.1016C18.5001 27.6016 19.0001 26.3016 18.6001 25.1016C18.6001 24.8016 18.4001 24.3016 18.1001 23.8016Z" fill="black"/>
<path d="M20.2004 22.8032C20.2004 22.8032 20.3004 22.9032 20.4004 22.9032C21.4004 23.5032 23.4004 23.1032 23.7004 21.9032C24.1004 20.3032 24.2004 18.7032 23.5004 17.1032C23.2004 16.5032 22.9004 16.0032 22.4004 15.6032C22.1004 15.3032 21.7004 15.0032 21.4004 14.8032C20.9004 14.6032 20.5004 14.6032 20.2004 15.0032C19.7004 15.8032 19.1004 16.5032 18.8004 17.4032C18.4004 18.8032 18.6004 21.5032 20.2004 22.8032Z" fill="black"/>
<path d="M26.6005 22.2015C27.4005 23.0015 29.5005 23.1015 30.1005 22.0015C30.9005 20.5015 31.4005 19.0015 31.1005 17.3015C31.0005 16.7015 30.7005 16.1015 30.4005 15.6015C30.2005 15.2015 29.9005 14.8015 29.6005 14.6015C29.2005 14.3015 28.8005 14.2015 28.4005 14.5015C27.7005 15.1015 27.0005 15.7015 26.5005 16.5015C25.7005 17.7015 25.2005 20.4015 26.5005 22.0015C26.5005 22.1015 26.6005 22.1015 26.6005 22.2015Z" fill="black"/>
<path d="M35.6006 21.3008C34.8006 20.3008 33.7006 20.3008 32.7006 21.3008C32.5006 21.5008 32.4006 21.7008 32.2006 21.9008C31.8006 22.6008 31.5006 23.4008 31.4006 24.2008C31.3006 24.8008 31.4006 25.4008 31.6006 25.8008C32.0006 26.9008 32.2006 27.2008 32.9006 27.2008C33.0006 27.2008 33.1006 27.2008 33.3006 27.2008H33.4006C33.8006 27.2008 34.2006 27.0008 34.5006 26.9008C35.2006 26.5008 35.7006 25.7008 36.1006 24.8008C36.5006 23.4008 36.3006 22.3008 35.6006 21.3008Z" fill="black"/>
</g>
<defs>
<clipPath id="clip0_15693_1229">
<rect width="50" height="50" fill="white"/>
</clipPath>
</defs>
</svg>
