<svg width="32" height="32" viewBox="0 0 32 32" fill="none" xmlns="http://www.w3.org/2000/svg">
<g clip-path="url(#clip0_14433_2337)">
<path d="M16 0C7.2 0 0 7.2 0 16C0 24.8 7.2 32 16 32C24.8 32 32 24.8 32 16C32 7.2 24.8 0 16 0ZM16 31C7.7 31 1 24.3 1 16C1 7.7 7.7 1 16 1C24.3 1 31 7.7 31 16C31 24.3 24.3 31 16 31Z" fill="black" fill-opacity="0.2"/>
<path d="M16.5 15.8008V3.30078C16.5 3.00078 16.3 2.80078 16 2.80078C15.7 2.80078 15.5 3.00078 15.5 3.30078V16.0008C15.5 16.1008 15.6 16.3008 15.7 16.4008L24.9 25.1008C25 25.2008 25.1 25.2008 25.2 25.2008C25.3 25.2008 25.5 25.1008 25.6 25.0008C25.8 24.8008 25.8 24.5008 25.6 24.3008L16.5 15.8008Z" fill="black" fill-opacity="0.2"/>
</g>
<defs>
<clipPath id="clip0_14433_2337">
<rect width="32" height="32" fill="white"/>
</clipPath>
</defs>
</svg>
